STARTFONT 2.1
FONT -FontForge-Axiforma Book-Regular-R-Normal--32-310-75-75-P-186-ISO10646-1
SIZE 31 75 75
FONTBOUNDINGBOX 54 42 -13 -10
COMMENT "Generated by fontforge, http://fontforge.sourceforge.net"
COMMENT "Copyright \(c\) 2017 by Kastelov. All rights reserved."
STARTPROPERTIES 39
FOUNDRY "FontForge"
FAMILY_NAME "Axiforma Book"
WEIGHT_NAME "Regular"
SLANT "R"
SETWIDTH_NAME "Normal"
ADD_STYLE_NAME ""
PIXEL_SIZE 32
POINT_SIZE 310
RESOLUTION_X 75
RESOLUTION_Y 75
SPACING "P"
AVERAGE_WIDTH 186
CHARSET_REGISTRY "ISO10646"
CHARSET_ENCODING "1"
FONTNAME_REGISTRY ""
CHARSET_COLLECTIONS "ISO8859-2 ISO8859-5 ISO8859-9 ISO8859-4 ISO10646-1"
FONT_NAME "Axiforma-Book"
FACE_NAME "Axiforma Book"
COPYRIGHT "Copyright \(c\) 2017 by Kastelov. All rights reserved."
FONT_VERSION "001.003"
FONT_ASCENT 26
FONT_DESCENT 6
UNDERLINE_POSITION -3
UNDERLINE_THICKNESS 2
X_HEIGHT 16
CAP_HEIGHT 23
RAW_ASCENT 800
RAW_DESCENT 200
NORM_SPACE 8
RELATIVE_WEIGHT 37
RELATIVE_SETWIDTH 50
SUPERSCRIPT_X 0
SUPERSCRIPT_Y 11
SUPERSCRIPT_SIZE 19
SUBSCRIPT_X 0
SUBSCRIPT_Y 2
SUBSCRIPT_SIZE 19
AVG_LOWERCASE_WIDTH 184
AVG_UPPERCASE_WIDTH 221
ENDPROPERTIES
CHARS 639
STARTCHAR CR
ENCODING 13
SWIDTH 130 0
DWIDTH 4 0
BBX 1 1 0 0
BITMAP
00
ENDCHAR
STARTCHAR space
ENCODING 32
SWIDTH 247 0
DWIDTH 8 0
BBX 1 1 0 0
BITMAP
00
ENDCHAR
STARTCHAR exclam
ENCODING 33
SWIDTH 292 0
DWIDTH 9 0
BBX 4 24 3 0
BITMAP
E0
E0
E0
E0
E0
E0
E0
E0
E0
E0
E0
E0
E0
E0
E0
E0
E0
E0
00
00
40
E0
F0
E0
ENDCHAR
STARTCHAR quotedbl
ENCODING 34
SWIDTH 455 0
DWIDTH 15 0
BBX 12 10 2 14
BITMAP
3CF0
38E0
78E0
71E0
71C0
71C0
E1C0
E380
E380
C300
ENDCHAR
STARTCHAR numbersign
ENCODING 35
SWIDTH 698 0
DWIDTH 22 0
BBX 20 24 1 0
BITMAP
01C1C0
0181C0
0181C0
038180
038180
038380
030380
3FFFF0
3FFFF0
070300
070700
070700
060700
060600
0E0600
FFFFE0
FFFFC0
0C0E00
0C0E00
1C0C00
1C0C00
1C1C00
181C00
181C00
ENDCHAR
STARTCHAR dollar
ENCODING 36
SWIDTH 561 0
DWIDTH 18 0
BBX 16 31 1 -4
BITMAP
01C0
01C0
01C0
07E0
1FF8
3FFC
3C1E
780C
7000
7000
7800
3C00
3E00
1F80
0FE0
03F8
00FC
003E
001E
000E
000F
600F
E00E
781E
7FFC
3FF8
0FF0
0180
0180
0180
0180
ENDCHAR
STARTCHAR percent
ENCODING 37
SWIDTH 877 0
DWIDTH 28 0
BBX 26 24 1 0
BITMAP
0F800E00
3FC01C00
78E01C00
60703800
E0707000
C030E000
E030E000
E071C000
70E38000
7FE70000
1FC70000
000E0000
001C0000
00387E00
0038FF00
0071C380
00E381C0
01E301C0
01C300C0
038301C0
070381C0
0701C380
0E01FF00
1C007E00
ENDCHAR
STARTCHAR ampersand
ENCODING 38
SWIDTH 697 0
DWIDTH 22 0
BBX 21 24 1 0
BITMAP
01F000
07F800
0F1C00
0E0E00
1C0E00
1C0E00
1C0E00
1C3C00
0C7800
0FF000
07C000
1F8000
3FC000
79E000
707040
603870
E01EE0
E00FC0
E007C0
7007C0
780FE0
3C3E70
1FFC38
0FF010
ENDCHAR
STARTCHAR quotesingle
ENCODING 39
SWIDTH 257 0
DWIDTH 8 0
BBX 6 10 1 14
BITMAP
1C
1C
3C
38
38
38
70
70
60
E0
ENDCHAR
STARTCHAR parenleft
ENCODING 40
SWIDTH 387 0
DWIDTH 12 0
BBX 11 33 1 -7
BITMAP
0040
00E0
03E0
0780
0F00
0E00
1E00
3C00
3800
3800
7000
7000
7000
7000
E000
E000
E000
E000
E000
F000
7000
7000
7000
3800
3800
3C00
1C00
0E00
0F00
0780
03C0
01E0
0040
ENDCHAR
STARTCHAR parenright
ENCODING 41
SWIDTH 387 0
DWIDTH 12 0
BBX 10 33 1 -7
BITMAP
8000
E000
F000
7800
3C00
1E00
0E00
0F00
0700
0780
0380
0380
03C0
01C0
01C0
01C0
01C0
01C0
01C0
01C0
01C0
0380
0380
0380
0700
0700
0E00
1E00
3C00
7800
F000
E000
8000
ENDCHAR
STARTCHAR asterisk
ENCODING 42
SWIDTH 450 0
DWIDTH 14 0
BBX 12 11 1 13
BITMAP
0600
0600
0600
6670
FFF0
3FC0
0F00
0F80
1DC0
38C0
30C0
ENDCHAR
STARTCHAR plus
ENCODING 43
SWIDTH 530 0
DWIDTH 17 0
BBX 15 15 1 4
BITMAP
0380
0380
0380
0380
0380
0380
FFFE
FFFE
FFFE
0380
0380
0380
0380
0380
0380
ENDCHAR
STARTCHAR comma
ENCODING 44
SWIDTH 239 0
DWIDTH 8 0
BBX 5 7 1 -4
BITMAP
70
78
78
18
30
E0
40
ENDCHAR
STARTCHAR hyphen
ENCODING 45
SWIDTH 516 0
DWIDTH 17 0
BBX 12 2 2 8
BITMAP
FFF0
FFF0
ENDCHAR
STARTCHAR period
ENCODING 46
SWIDTH 230 0
DWIDTH 7 0
BBX 4 4 2 -1
BITMAP
E0
F0
E0
40
ENDCHAR
STARTCHAR slash
ENCODING 47
SWIDTH 597 0
DWIDTH 19 0
BBX 17 30 1 -4
BITMAP
000380
000300
000700
000600
000E00
000E00
001C00
001C00
003800
003800
007000
007000
00E000
00E000
01C000
01C000
038000
038000
070000
070000
0E0000
0E0000
1C0000
1C0000
380000
380000
700000
700000
E00000
E00000
ENDCHAR
STARTCHAR zero
ENCODING 48
SWIDTH 678 0
DWIDTH 22 0
BBX 18 24 2 0
BITMAP
03F000
0FFC00
1FFE00
3C0F00
780700
700380
F00380
E00380
E001C0
E001C0
E001C0
E001C0
E001C0
E001C0
E001C0
E001C0
E003C0
F00380
700380
780700
3C0F00
3F3E00
1FFC00
07F800
ENDCHAR
STARTCHAR one
ENCODING 49
SWIDTH 381 0
DWIDTH 12 0
BBX 8 24 1 0
BITMAP
03
0F
1F
3F
7F
F7
E7
87
07
07
07
07
07
07
07
07
07
07
07
07
07
07
07
07
ENDCHAR
STARTCHAR two
ENCODING 50
SWIDTH 556 0
DWIDTH 18 0
BBX 15 24 1 0
BITMAP
0FE0
3FF0
7FF8
F03C
601C
000E
000E
000E
000E
001C
001C
0038
0078
00F0
01E0
03C0
0780
0F00
1E00
3C00
7C00
7FFE
7FFE
7FFE
ENDCHAR
STARTCHAR three
ENCODING 51
SWIDTH 552 0
DWIDTH 18 0
BBX 15 24 1 0
BITMAP
0FC0
3FF0
FFF8
703C
001C
001C
001C
001C
001C
0038
0FF0
0FE0
0FF0
0078
001C
001E
000E
000E
000E
001E
603C
F8FC
FFF8
3FE0
ENDCHAR
STARTCHAR four
ENCODING 52
SWIDTH 591 0
DWIDTH 19 0
BBX 18 24 0 0
BITMAP
000600
000E00
000E00
001E00
003E00
007E00
00FE00
01EE00
01CE00
038E00
070E00
0F0E00
1E0E00
1C0E00
380E00
7FFFC0
FFFFC0
7FFFC0
000E00
000E00
000E00
000E00
000E00
000E00
ENDCHAR
STARTCHAR five
ENCODING 53
SWIDTH 570 0
DWIDTH 18 0
BBX 16 24 1 0
BITMAP
1FFC
1FFC
3FFC
3800
3800
3800
3000
3000
3000
3FF0
7FF8
7E7C
301E
000E
0007
0007
0007
0007
0007
400E
601E
FCFC
7FF8
1FF0
ENDCHAR
STARTCHAR six
ENCODING 54
SWIDTH 612 0
DWIDTH 20 0
BBX 16 24 2 0
BITMAP
03F8
0FFE
1FFE
3C06
3800
7000
7000
E000
E000
E7F0
EFFC
FE7E
F80E
F00F
F007
E007
E007
E007
7007
700F
781E
3F7C
1FF8
07F0
ENDCHAR
STARTCHAR seven
ENCODING 55
SWIDTH 500 0
DWIDTH 16 0
BBX 14 24 1 0
BITMAP
FFFC
FFFC
FFFC
001C
0038
0038
0038
0070
0070
00E0
00E0
01C0
01C0
01C0
0380
0380
0700
0700
0E00
0E00
1E00
1C00
1C00
3800
ENDCHAR
STARTCHAR eight
ENCODING 56
SWIDTH 623 0
DWIDTH 20 0
BBX 16 24 2 0
BITMAP
07E0
1FF8
3FFC
781E
700E
600E
6006
700E
700E
381C
1FF8
0FF0
3FFC
781E
F00E
E007
E007
C007
E007
E007
F00F
7C3E
3FFC
1FF0
ENDCHAR
STARTCHAR nine
ENCODING 57
SWIDTH 610 0
DWIDTH 20 0
BBX 17 24 1 0
BITMAP
07E000
1FF800
3FFC00
381E00
700E00
700700
E00700
E00700
E00780
E00780
700780
780F80
3C3F80
1FFB80
0FF380
010300
000700
000700
000700
000E00
201E00
387C00
7FF800
1FE000
ENDCHAR
STARTCHAR colon
ENCODING 58
SWIDTH 258 0
DWIDTH 8 0
BBX 4 15 2 0
BITMAP
70
F0
F0
60
00
00
00
00
00
00
00
00
F0
F0
F0
ENDCHAR
STARTCHAR semicolon
ENCODING 59
SWIDTH 285 0
DWIDTH 9 0
BBX 5 19 2 -4
BITMAP
70
78
70
30
00
00
00
00
00
00
00
00
70
78
78
30
30
E0
C0
ENDCHAR
STARTCHAR less
ENCODING 60
SWIDTH 574 0
DWIDTH 18 0
BBX 15 17 1 2
BITMAP
0006
001E
007E
01F8
07E0
1F80
7E00
F800
E000
F800
3F00
0FC0
03F0
00FC
003E
000E
0002
ENDCHAR
STARTCHAR equal
ENCODING 61
SWIDTH 604 0
DWIDTH 19 0
BBX 15 9 2 6
BITMAP
FFFE
FFFE
FFFE
0000
0000
0000
FFFE
FFFE
FFFE
ENDCHAR
STARTCHAR greater
ENCODING 62
SWIDTH 546 0
DWIDTH 17 0
BBX 15 17 2 2
BITMAP
8000
E000
F000
7C00
1F00
0FC0
03F0
00FC
003E
007E
00F8
03E0
0F80
3E00
FC00
F000
C000
ENDCHAR
STARTCHAR question
ENCODING 63
SWIDTH 505 0
DWIDTH 16 0
BBX 14 24 1 0
BITMAP
1FC0
7FF0
FDF8
E038
4038
001C
001C
001C
0038
0038
0070
00E0
03C0
0380
0700
0600
0E00
0E00
0E00
0000
0000
0F00
0F00
0E00
ENDCHAR
STARTCHAR at
ENCODING 64
SWIDTH 975 0
DWIDTH 31 0
BBX 29 29 1 -5
BITMAP
00078000
007FF800
01FFFE00
03E01F00
07800780
0E0001C0
1C0000E0
38000060
381F9870
303FD830
7070F838
70E03838
60C03818
60C01818
E1C01818
E1C01838
60C01838
60E03830
70E07870
707DFCE0
303FCFC0
380F0700
1C000000
1E000000
0F000080
078003C0
03F00F80
00FFFE00
003FF800
ENDCHAR
STARTCHAR A
ENCODING 65
SWIDTH 671 0
DWIDTH 21 0
BBX 20 24 1 0
BITMAP
006000
006000
00E000
00F000
01F000
01F800
01B800
03B800
039C00
071C00
070E00
0F0E00
0E0E00
0E0700
1C0700
1FFF80
3FFF80
3FFF80
3801C0
7001C0
7001E0
F000E0
E000E0
E00070
ENDCHAR
STARTCHAR B
ENCODING 66
SWIDTH 669 0
DWIDTH 21 0
BBX 17 24 3 0
BITMAP
FFE000
FFF800
FFFC00
E01E00
E00E00
E00F00
E00700
E00F00
E00E00
E01E00
FFFC00
FFFC00
FFFE00
E00F00
E00700
E00380
E00380
E00380
E00380
E00780
E00F00
FFFE00
FFFC00
FFF800
ENDCHAR
STARTCHAR C
ENCODING 67
SWIDTH 778 0
DWIDTH 25 0
BBX 23 24 1 0
BITMAP
007F00
01FFE0
07FFF0
0F80FC
1E003C
3C001E
380008
780000
700000
700000
700000
700000
F00000
700000
700000
700000
700000
380000
3C000C
1E001E
0F007C
07FFF8
03FFE0
00FF80
ENDCHAR
STARTCHAR D
ENCODING 68
SWIDTH 756 0
DWIDTH 24 0
BBX 20 24 3 0
BITMAP
FFE000
FFFC00
FFFE00
E01F80
E00780
E003C0
E001C0
E000E0
E000E0
E000E0
E000E0
E000F0
E000F0
E000E0
E000E0
E000E0
E000E0
E001E0
E003C0
E007C0
E00F80
FFFF00
FFFE00
FFF000
ENDCHAR
STARTCHAR E
ENCODING 69
SWIDTH 605 0
DWIDTH 19 0
BBX 15 24 3 0
BITMAP
FFFE
FFFE
FFFE
E000
E000
E000
E000
E000
E000
E000
E000
FFFC
FFFC
E000
E000
E000
E000
E000
E000
E000
E000
FFFE
FFFE
FFFE
ENDCHAR
STARTCHAR F
ENCODING 70
SWIDTH 568 0
DWIDTH 18 0
BBX 14 24 3 0
BITMAP
FFFC
FFFC
FFFC
E000
E000
E000
E000
E000
E000
E000
E000
FFF8
FFF8
E000
E000
E000
E000
E000
E000
E000
E000
E000
E000
E000
ENDCHAR
STARTCHAR G
ENCODING 71
SWIDTH 812 0
DWIDTH 26 0
BBX 23 24 1 0
BITMAP
007F80
01FFE0
07FFF8
0F80FC
1E003C
3C0008
380000
780000
700000
700000
700FFE
700FFE
F00FFE
70000E
70000E
70000E
78000E
38000E
3C000E
1E001E
0F007C
07FFF8
03FFF0
00FF80
ENDCHAR
STARTCHAR H
ENCODING 72
SWIDTH 756 0
DWIDTH 24 0
BBX 18 24 3 0
BITMAP
E001C0
E001C0
E001C0
E001C0
E001C0
E001C0
E001C0
E001C0
E001C0
E001C0
FFFFC0
FFFFC0
FFFFC0
E001C0
E001C0
E001C0
E001C0
E001C0
E001C0
E001C0
E001C0
E001C0
E001C0
E001C0
ENDCHAR
STARTCHAR I
ENCODING 73
SWIDTH 282 0
DWIDTH 9 0
BBX 3 24 3 0
BITMAP
E0
E0
E0
E0
E0
E0
E0
E0
E0
E0
E0
E0
E0
E0
E0
E0
E0
E0
E0
E0
E0
E0
E0
E0
ENDCHAR
STARTCHAR J
ENCODING 74
SWIDTH 554 0
DWIDTH 18 0
BBX 14 24 1 0
BITMAP
001C
001C
001C
001C
001C
001C
001C
001C
001C
001C
001C
001C
001C
001C
001C
001C
001C
001C
001C
4038
E078
F9F0
7FF0
3FC0
ENDCHAR
STARTCHAR K
ENCODING 75
SWIDTH 661 0
DWIDTH 21 0
BBX 18 24 3 0
BITMAP
E003C0
E00780
E00F00
E01E00
E01C00
E03800
E07000
E0F000
E1E000
E3C000
E78000
E70000
EF8000
FFC000
F9E000
F8E000
F07000
E07800
E03C00
E01E00
E00F00
E00700
E00380
E003C0
ENDCHAR
STARTCHAR L
ENCODING 76
SWIDTH 601 0
DWIDTH 19 0
BBX 16 24 3 0
BITMAP
E000
E000
E000
E000
E000
E000
E000
E000
E000
E000
E000
E000
E000
E000
E000
E000
E000
E000
E000
E000
E000
FFFF
FFFF
FFFF
ENDCHAR
STARTCHAR M
ENCODING 77
SWIDTH 916 0
DWIDTH 29 0
BBX 23 24 3 0
BITMAP
800002
C00006
E0000E
E0000E
F0001E
F8003E
FC003E
FC007E
EE00FE
EF00EE
E701CE
E383CE
E3C38E
E1C70E
E0EF0E
E0FE0E
E07C0E
E03C0E
E0380E
E0100E
E0000E
E0000E
E0000E
E0000E
ENDCHAR
STARTCHAR N
ENCODING 78
SWIDTH 778 0
DWIDTH 25 0
BBX 19 24 3 0
BITMAP
8000E0
C000E0
E000E0
F000E0
F800E0
FC00E0
FC00E0
FE00E0
EF00E0
E780E0
E3C0E0
E1E0E0
E0F0E0
E070E0
E078E0
E03CE0
E01EE0
E00FE0
E007E0
E003E0
E003E0
E001E0
E000E0
E00060
ENDCHAR
STARTCHAR O
ENCODING 79
SWIDTH 856 0
DWIDTH 27 0
BBX 25 24 1 0
BITMAP
007F0000
01FFE000
07FFF000
0F80F800
1E003C00
3C001E00
38000E00
78000700
70000700
70000780
70000380
F0000380
F0000380
F0000380
70000380
70000700
70000700
38000F00
3C001E00
1E003C00
0F007C00
07FFF800
03FFE000
00FF8000
ENDCHAR
STARTCHAR P
ENCODING 80
SWIDTH 603 0
DWIDTH 19 0
BBX 15 24 3 0
BITMAP
FF80
FFF0
FFF8
E03C
E01E
E00E
E00E
E00E
E00E
E00E
E01E
E03C
FFFC
FFF0
FFC0
E000
E000
E000
E000
E000
E000
E000
E000
E000
ENDCHAR
STARTCHAR Q
ENCODING 81
SWIDTH 856 0
DWIDTH 27 0
BBX 25 28 1 -4
BITMAP
007F0000
01FFE000
07FFF000
0F80F800
1E003C00
3C001E00
38000E00
78000700
70000700
70000780
70000380
F0000380
F0000380
70000380
70000380
70000700
78000700
38000F00
3C001E00
1E003C00
0F007C00
07FFF800
03FFE000
00FF8000
0003E000
0001FF80
00007F80
00001F00
ENDCHAR
STARTCHAR R
ENCODING 82
SWIDTH 636 0
DWIDTH 20 0
BBX 16 24 3 0
BITMAP
FF80
FFF0
FFF8
E03C
E01E
E00E
E00E
E00E
E00E
E00E
E01C
FFFC
FFF8
FFE0
E3C0
E1E0
E0E0
E0F0
E078
E038
E03C
E01E
E00E
E00F
ENDCHAR
STARTCHAR S
ENCODING 83
SWIDTH 558 0
DWIDTH 18 0
BBX 16 24 1 0
BITMAP
07E0
1FF8
3FFC
3C1E
780C
7000
7000
7800
3800
3E00
1F80
0FE0
03F8
00FC
003E
001E
000E
000F
600E
E00E
F01E
7EFC
3FF8
0FF0
ENDCHAR
STARTCHAR T
ENCODING 84
SWIDTH 561 0
DWIDTH 18 0
BBX 18 24 0 0
BITMAP
FFFFC0
FFFFC0
FFFFC0
01C000
01C000
01C000
01C000
01C000
01C000
01C000
01C000
01C000
01C000
01C000
01C000
01C000
01C000
01C000
01C000
01C000
01C000
01C000
01C000
01C000
ENDCHAR
STARTCHAR U
ENCODING 85
SWIDTH 703 0
DWIDTH 23 0
BBX 17 24 3 0
BITMAP
E00380
E00380
E00380
E00380
E00380
E00380
E00380
E00380
E00380
E00380
E00380
E00380
E00380
E00380
E00380
E00380
E00380
E00380
E00700
F00700
780F00
7FFE00
3FFC00
0FF800
ENDCHAR
STARTCHAR V
ENCODING 86
SWIDTH 704 0
DWIDTH 23 0
BBX 22 24 0 0
BITMAP
F0001C
70003C
780038
380038
380070
3C0070
1C00F0
1E00E0
0E00E0
0E01C0
0701C0
070380
038380
038780
03C700
01C700
01CE00
00EE00
00FC00
007C00
007C00
007800
003800
003000
ENDCHAR
STARTCHAR W
ENCODING 87
SWIDTH 1024 0
DWIDTH 33 0
BBX 32 24 0 0
BITMAP
F0008007
70018007
7001C007
7801C00E
3803E00E
3803E00E
3C07601C
1C07701C
1C06701C
0E0E3038
0E0E3838
0E0C3838
071C1C70
071C1C70
07181C70
03B80EE0
03B80EE0
03F00EC0
01F007C0
01F007C0
01E00380
00E00380
00E00380
00C00100
ENDCHAR
STARTCHAR X
ENCODING 88
SWIDTH 621 0
DWIDTH 20 0
BBX 18 24 1 0
BITMAP
E001C0
F003C0
700780
380700
3C0F00
1C0E00
0E1C00
0F3C00
073800
03F000
03F000
01E000
01E000
03F000
03F000
073800
0F3C00
0E1C00
1C0E00
3C0F00
380700
700780
F003C0
E001C0
ENDCHAR
STARTCHAR Y
ENCODING 89
SWIDTH 633 0
DWIDTH 20 0
BBX 19 24 1 0
BITMAP
E001E0
E001C0
7003C0
700380
380700
3C0700
1C0E00
1E0E00
0E1C00
0F1C00
073800
03B800
03F000
01F000
01E000
00E000
00E000
00E000
00E000
00E000
00E000
00E000
00E000
00E000
ENDCHAR
STARTCHAR Z
ENCODING 90
SWIDTH 613 0
DWIDTH 20 0
BBX 18 24 1 0
BITMAP
7FFF80
7FFF80
7FFF80
000700
000F00
001E00
001C00
003C00
007800
007000
00F000
01E000
01C000
038000
078000
070000
0E0000
1E0000
1C0000
380000
780000
FFFFC0
FFFFC0
FFFFC0
ENDCHAR
STARTCHAR bracketleft
ENCODING 91
SWIDTH 364 0
DWIDTH 12 0
BBX 8 33 3 -7
BITMAP
FF
FF
E0
E0
E0
E0
E0
E0
E0
E0
E0
E0
E0
E0
E0
E0
E0
E0
E0
E0
E0
E0
E0
E0
E0
E0
E0
E0
E0
E0
E0
FF
FF
ENDCHAR
STARTCHAR backslash
ENCODING 92
SWIDTH 597 0
DWIDTH 19 0
BBX 17 30 1 -4
BITMAP
E00000
600000
700000
300000
380000
180000
1C0000
0C0000
0E0000
060000
070000
030000
038000
018000
01C000
00C000
00E000
006000
007000
003000
003800
001800
001C00
000C00
000E00
000600
000700
000300
000380
000380
ENDCHAR
STARTCHAR bracketright
ENCODING 93
SWIDTH 364 0
DWIDTH 12 0
BBX 9 33 0 -7
BITMAP
FF80
FF80
0380
0380
0380
0380
0380
0380
0380
0380
0380
0380
0380
0380
0380
0380
0380
0380
0380
0380
0380
0380
0380
0380
0380
0380
0380
0380
0380
0380
0380
FF80
FF80
ENDCHAR
STARTCHAR asciicircum
ENCODING 94
SWIDTH 517 0
DWIDTH 17 0
BBX 13 10 2 14
BITMAP
0600
0700
0F00
1F80
1DC0
38C0
30E0
7070
E070
E038
ENDCHAR
STARTCHAR underscore
ENCODING 95
SWIDTH 581 0
DWIDTH 19 0
BBX 19 2 0 -5
BITMAP
FFFFE0
FFFFE0
ENDCHAR
STARTCHAR grave
ENCODING 96
SWIDTH 426 0
DWIDTH 14 0
BBX 4 5 2 20
BITMAP
E0
E0
70
70
30
ENDCHAR
STARTCHAR a
ENCODING 97
SWIDTH 663 0
DWIDTH 21 0
BBX 18 17 1 0
BITMAP
07F9C0
1FFDC0
3E1FC0
3807C0
7003C0
7001C0
E001C0
E001C0
E001C0
E001C0
6001C0
7001C0
7003C0
3807C0
3E1FC0
0FFDC0
07F9C0
ENDCHAR
STARTCHAR b
ENCODING 98
SWIDTH 666 0
DWIDTH 21 0
BBX 18 24 2 0
BITMAP
E00000
E00000
E00000
E00000
E00000
E00000
E04000
E3F800
EFFE00
FE1F00
F80780
F00380
F00380
E001C0
E001C0
E001C0
E001C0
E001C0
F00380
F00380
F80780
FF1F00
EFFE00
E3F800
ENDCHAR
STARTCHAR c
ENCODING 99
SWIDTH 598 0
DWIDTH 19 0
BBX 17 18 1 0
BITMAP
004000
07FC00
1FFE00
3E0F00
3C0780
780300
700000
600000
E00000
E00000
E00000
700000
700000
780300
3C0780
1F1F00
0FFE00
07F800
ENDCHAR
STARTCHAR d
ENCODING 100
SWIDTH 666 0
DWIDTH 21 0
BBX 18 24 1 0
BITMAP
0001C0
0001C0
0001C0
0001C0
0001C0
0001C0
0001C0
07F9C0
1FFDC0
3E1FC0
3807C0
7003C0
7001C0
6001C0
E001C0
E001C0
E001C0
6001C0
7001C0
7003C0
3807C0
3E1FC0
0FFDC0
07F9C0
ENDCHAR
STARTCHAR e
ENCODING 101
SWIDTH 609 0
DWIDTH 19 0
BBX 17 18 1 0
BITMAP
004000
07F800
1FFE00
3E1E00
380700
700780
700380
600380
FFFF80
FFFF80
FFFF80
700000
700000
780000
380300
3F1F80
1FFF00
07FC00
ENDCHAR
STARTCHAR f
ENCODING 102
SWIDTH 389 0
DWIDTH 12 0
BBX 13 25 1 0
BITMAP
0040
07F8
0FF0
1F10
1C00
1C00
1C00
1C00
FFE0
FFE0
1C00
1C00
1C00
1C00
1C00
1C00
1C00
1C00
1C00
1C00
1C00
1C00
1C00
1C00
1C00
ENDCHAR
STARTCHAR g
ENCODING 103
SWIDTH 666 0
DWIDTH 21 0
BBX 18 24 1 -7
BITMAP
07F9C0
1FFDC0
3E0FC0
3807C0
7003C0
7001C0
E001C0
E001C0
E001C0
E001C0
7001C0
7003C0
7803C0
3C0FC0
1FFFC0
0FFDC0
03F1C0
0001C0
000380
000380
300700
7E3F00
3FFE00
0FF800
ENDCHAR
STARTCHAR h
ENCODING 104
SWIDTH 612 0
DWIDTH 20 0
BBX 15 24 2 0
BITMAP
E000
E000
E000
E000
E000
E000
E080
E7F0
EFFC
FC3C
F81E
F00E
F00E
E00E
E006
E006
E006
E006
E006
E006
E006
E006
E006
E006
ENDCHAR
STARTCHAR i
ENCODING 105
SWIDTH 241 0
DWIDTH 8 0
BBX 4 24 2 0
BITMAP
60
F0
F0
F0
00
00
00
E0
E0
E0
E0
E0
E0
E0
E0
E0
E0
E0
E0
E0
E0
E0
E0
E0
ENDCHAR
STARTCHAR j
ENCODING 106
SWIDTH 265 0
DWIDTH 8 0
BBX 9 31 -2 -7
BITMAP
0300
0780
0F80
0700
0000
0000
0000
0700
0700
0700
0700
0700
0700
0700
0700
0700
0700
0700
0700
0700
0700
0700
0700
0700
0700
0700
0700
0700
9E00
FE00
FC00
ENDCHAR
STARTCHAR k
ENCODING 107
SWIDTH 539 0
DWIDTH 17 0
BBX 15 24 2 0
BITMAP
E000
E000
E000
E000
E000
E000
E000
E03E
E078
E0F0
E1E0
E3C0
E780
EF00
FE00
FF00
F780
E3C0
E1E0
E0F0
E070
E078
E03C
E01E
ENDCHAR
STARTCHAR l
ENCODING 108
SWIDTH 241 0
DWIDTH 8 0
BBX 3 24 2 0
BITMAP
E0
E0
E0
E0
E0
E0
E0
E0
E0
E0
E0
E0
E0
E0
E0
E0
E0
E0
E0
E0
E0
E0
E0
E0
ENDCHAR
STARTCHAR m
ENCODING 109
SWIDTH 970 0
DWIDTH 31 0
BBX 27 18 2 0
BITMAP
01800800
E7F0FF00
EFF9FF80
FC3FC3C0
F81F01C0
F00F01E0
F00E00E0
E00E00E0
E00E00E0
E00E00E0
E00E00E0
E00E00E0
E00E00E0
E00E00E0
E00E00E0
E00E00E0
E00E00E0
E00E00E0
ENDCHAR
STARTCHAR n
ENCODING 110
SWIDTH 614 0
DWIDTH 20 0
BBX 15 18 2 0
BITMAP
0080
E7F0
EFFC
FC3C
F81E
F00E
F00E
E006
E006
E006
E006
E006
E006
E006
E006
E006
E006
E006
ENDCHAR
STARTCHAR o
ENCODING 111
SWIDTH 644 0
DWIDTH 21 0
BBX 18 18 1 0
BITMAP
004000
07FC00
1FFE00
3E1F00
3C0780
780380
7001C0
6001C0
E001C0
E001C0
E001C0
7001C0
7001C0
780380
3C0780
1F1F00
0FFE00
07F800
ENDCHAR
STARTCHAR p
ENCODING 112
SWIDTH 668 0
DWIDTH 21 0
BBX 18 25 2 -7
BITMAP
004000
E3F800
EFFE00
FE1F00
F80780
F00380
F001C0
E001C0
E001C0
E001C0
E001C0
E001C0
F003C0
F00380
F80780
FE1F00
EFFE00
E3F800
E00000
E00000
E00000
E00000
E00000
E00000
E00000
ENDCHAR
STARTCHAR q
ENCODING 113
SWIDTH 668 0
DWIDTH 21 0
BBX 18 24 1 -7
BITMAP
07F9C0
1FFDC0
3E1FC0
3807C0
7003C0
7001C0
6001C0
E001C0
E001C0
E001C0
6001C0
7001C0
7003C0
3807C0
3E1FC0
0FFDC0
07F9C0
0001C0
0001C0
0001C0
0001C0
0001C0
0001C0
0001C0
ENDCHAR
STARTCHAR r
ENCODING 114
SWIDTH 384 0
DWIDTH 12 0
BBX 10 18 2 0
BITMAP
0180
E7C0
EFC0
FC00
F800
F000
F000
E000
E000
E000
E000
E000
E000
E000
E000
E000
E000
E000
ENDCHAR
STARTCHAR s
ENCODING 115
SWIDTH 448 0
DWIDTH 14 0
BBX 12 18 1 0
BITMAP
0700
1FC0
3FE0
7060
7000
7000
7000
3C00
3F00
0FC0
03E0
00F0
0070
4070
E070
F0F0
7FE0
1FC0
ENDCHAR
STARTCHAR t
ENCODING 116
SWIDTH 422 0
DWIDTH 14 0
BBX 13 23 0 0
BITMAP
0C00
0C00
0C00
0C00
0C00
0C00
FFF0
FFF0
0C00
0C00
0C00
0C00
0C00
0C00
0C00
0C00
0C00
0C00
0C00
0E00
0F18
07F8
03F8
ENDCHAR
STARTCHAR u
ENCODING 117
SWIDTH 592 0
DWIDTH 19 0
BBX 15 17 2 0
BITMAP
E00E
E00E
E00E
E00E
E00E
E00E
E00E
E00E
E00E
E00E
E00E
E00E
F01C
701C
7C7C
3FF8
1FE0
ENDCHAR
STARTCHAR v
ENCODING 118
SWIDTH 558 0
DWIDTH 18 0
BBX 16 17 1 0
BITMAP
E007
E007
700E
700E
701C
381C
381C
1C38
1C38
0E70
0E70
0660
07E0
07C0
03C0
03C0
0180
ENDCHAR
STARTCHAR w
ENCODING 119
SWIDTH 834 0
DWIDTH 27 0
BBX 25 17 1 0
BITMAP
E01C0380
E01C0380
E03C0700
703E0700
70360700
70760600
30670E00
38630E00
38E38C00
18C39C00
1DC19C00
1DC1D800
0D81F800
0F80F800
0F00F000
07007000
07007000
ENDCHAR
STARTCHAR x
ENCODING 120
SWIDTH 501 0
DWIDTH 16 0
BBX 14 17 1 0
BITMAP
F01C
7038
3878
3870
1CE0
0FE0
0FC0
0780
0780
0F80
0FC0
1CE0
3CF0
3870
7038
F03C
E01C
ENDCHAR
STARTCHAR y
ENCODING 121
SWIDTH 548 0
DWIDTH 18 0
BBX 16 24 1 -7
BITMAP
E007
E00E
700E
700E
781C
381C
381C
1C38
1C38
0E70
0E70
0F70
07E0
07E0
03E0
03C0
01C0
0180
0380
0380
0700
5F00
7E00
FC00
ENDCHAR
STARTCHAR z
ENCODING 122
SWIDTH 504 0
DWIDTH 16 0
BBX 14 17 1 0
BITMAP
7FFC
7FFC
0038
0070
00E0
00E0
01C0
0380
0700
0F00
0E00
1C00
3800
7800
7000
FFFC
FFFC
ENDCHAR
STARTCHAR braceleft
ENCODING 123
SWIDTH 366 0
DWIDTH 12 0
BBX 10 33 1 -7
BITMAP
03C0
07C0
0F00
1C00
1C00
1C00
1C00
1C00
1C00
1C00
1C00
1C00
1C00
1C00
1800
7800
E000
F000
3800
1C00
1C00
1C00
1C00
1C00
1C00
1C00
1C00
1C00
1C00
1C00
0E00
0FC0
07C0
ENDCHAR
STARTCHAR bar
ENCODING 124
SWIDTH 256 0
DWIDTH 8 0
BBX 2 33 3 -6
BITMAP
C0
C0
C0
C0
C0
C0
C0
C0
C0
C0
C0
C0
C0
C0
C0
C0
C0
C0
C0
C0
C0
C0
C0
C0
C0
C0
C0
C0
C0
C0
C0
C0
C0
ENDCHAR
STARTCHAR braceright
ENCODING 125
SWIDTH 366 0
DWIDTH 12 0
BBX 10 33 1 -7
BITMAP
F000
F800
3C00
1C00
0C00
0E00
0E00
0C00
0C00
0C00
0C00
0C00
0C00
0C00
0E00
0780
01C0
03C0
0700
0E00
0C00
0C00
0C00
0C00
0C00
0C00
0E00
0E00
0E00
0C00
1C00
FC00
F000
ENDCHAR
STARTCHAR asciitilde
ENCODING 126
SWIDTH 663 0
DWIDTH 21 0
BBX 17 5 2 8
BITMAP
0E0000
3F8380
7FFF80
E0FF00
003C00
ENDCHAR
STARTCHAR exclamdown
ENCODING 161
SWIDTH 258 0
DWIDTH 8 0
BBX 4 24 2 -7
BITMAP
60
70
F0
70
00
00
70
70
70
70
70
70
70
70
70
70
70
70
70
70
70
70
70
70
ENDCHAR
STARTCHAR cent
ENCODING 162
SWIDTH 609 0
DWIDTH 19 0
BBX 17 23 1 -3
BITMAP
00E000
00E000
00E000
07FC00
1FFE00
3EEF00
3CE780
78E300
70E000
70E000
E0E000
E0E000
E0E000
70E000
70E000
78E300
3CE780
1FFF00
0FFE00
07F800
00E000
00E000
00E000
ENDCHAR
STARTCHAR sterling
ENCODING 163
SWIDTH 568 0
DWIDTH 18 0
BBX 15 24 2 0
BITMAP
07E0
1FF8
3FFC
3C1E
780C
7000
7000
7000
7000
7000
3800
FFF0
FFF0
1C00
1C00
1C00
1C00
1C00
3800
3800
7000
FFFE
FFFE
FFFE
ENDCHAR
STARTCHAR currency
ENCODING 164
SWIDTH 635 0
DWIDTH 20 0
BBX 16 16 2 4
BITMAP
4002
E7E7
7FFE
3E7C
381C
700E
7006
6006
6006
7006
700E
380E
3C3C
7FFE
EFF7
4082
ENDCHAR
STARTCHAR yen
ENCODING 165
SWIDTH 633 0
DWIDTH 20 0
BBX 18 24 1 0
BITMAP
E001C0
7001C0
700380
380380
380700
1C0F00
1C0E00
0E1C00
0E1C00
073800
073800
03F000
3FFF00
3FFF00
3FFF00
00E000
3FFF00
3FFF00
3FFF00
00E000
00E000
00E000
00E000
00E000
ENDCHAR
STARTCHAR brokenbar
ENCODING 166
SWIDTH 256 0
DWIDTH 8 0
BBX 2 33 3 -6
BITMAP
C0
C0
C0
C0
C0
C0
C0
C0
C0
C0
C0
C0
C0
00
00
00
00
00
00
00
C0
C0
C0
C0
C0
C0
C0
C0
C0
C0
C0
C0
C0
ENDCHAR
STARTCHAR section
ENCODING 167
SWIDTH 554 0
DWIDTH 18 0
BBX 15 31 1 -7
BITMAP
03E0
0FF8
1FFC
3C1E
3808
3800
3800
3800
3C00
1E00
7F80
77E0
E3F0
E0FC
F03E
780E
7C0E
3F06
0FCE
03FE
00FC
0078
003C
001C
001C
001C
601C
7878
7FF8
1FF0
07C0
ENDCHAR
STARTCHAR dieresis
ENCODING 168
SWIDTH 494 0
DWIDTH 16 0
BBX 10 4 2 20
BITMAP
E3C0
F3C0
F3C0
6180
ENDCHAR
STARTCHAR copyright
ENCODING 169
SWIDTH 862 0
DWIDTH 28 0
BBX 25 24 1 0
BITMAP
007F0000
01FFE000
07C0F000
0F003800
1C001C00
38000E00
303F0700
70FFC300
61C08380
61800180
61800180
E3000180
E3000180
63800180
61800180
61C08380
70E1C300
307F8700
381E0600
1C000E00
0E001C00
07807800
03FFE000
00FF8000
ENDCHAR
STARTCHAR ordfeminine
ENCODING 170
SWIDTH 413 0
DWIDTH 13 0
BBX 10 12 1 12
BITMAP
0C00
7F00
3380
00C0
00C0
3FC0
7FC0
60C0
E0C0
63C0
7FC0
1CC0
ENDCHAR
STARTCHAR guillemotleft
ENCODING 171
SWIDTH 506 0
DWIDTH 16 0
BBX 13 13 1 3
BITMAP
0738
0E38
1C70
18E0
38C0
71C0
E380
7180
31C0
38E0
1C70
0E70
0E38
ENDCHAR
STARTCHAR logicalnot
ENCODING 172
SWIDTH 608 0
DWIDTH 19 0
BBX 15 7 2 5
BITMAP
FFFE
FFFE
FFFE
0006
0006
0006
0006
ENDCHAR
STARTCHAR uni00AD
ENCODING 173
SWIDTH 514 0
DWIDTH 16 0
BBX 12 3 2 9
BITMAP
FFF0
FFF0
FFF0
ENDCHAR
STARTCHAR registered
ENCODING 174
SWIDTH 564 0
DWIDTH 18 0
BBX 16 15 1 9
BITMAP
07E0
1C38
300C
6786
67E6
4622
C623
C7C3
C6C3
4642
6666
300C
381C
0FF0
03C0
ENDCHAR
STARTCHAR macron
ENCODING 175
SWIDTH 474 0
DWIDTH 15 0
BBX 10 2 1 21
BITMAP
FFC0
FFC0
ENDCHAR
STARTCHAR degree
ENCODING 176
SWIDTH 363 0
DWIDTH 12 0
BBX 9 9 1 17
BITMAP
3E00
7F00
6180
C180
C180
E180
7380
3F00
1C00
ENDCHAR
STARTCHAR plusminus
ENCODING 177
SWIDTH 594 0
DWIDTH 19 0
BBX 15 19 2 3
BITMAP
0380
0380
0380
0380
0380
0380
0380
FFFE
FFFE
0380
0380
0380
0380
0380
0380
0000
0000
FFFE
FFFE
ENDCHAR
STARTCHAR uni00B2
ENCODING 178
SWIDTH 344 0
DWIDTH 11 0
BBX 9 13 1 16
BITMAP
3E00
FF00
4300
0300
0300
0300
0600
0E00
1C00
3800
7000
FF80
FF80
ENDCHAR
STARTCHAR uni00B3
ENCODING 179
SWIDTH 331 0
DWIDTH 11 0
BBX 8 13 1 16
BITMAP
7C
FE
07
03
07
3E
3E
07
03
03
87
FE
7C
ENDCHAR
STARTCHAR acute
ENCODING 180
SWIDTH 455 0
DWIDTH 15 0
BBX 5 5 1 20
BITMAP
38
38
70
70
E0
ENDCHAR
STARTCHAR paragraph
ENCODING 182
SWIDTH 645 0
DWIDTH 21 0
BBX 18 30 1 -7
BITMAP
1FFFC0
3FFFC0
7FE700
7FE700
FFE700
FFE700
FFE700
FFE700
FFE700
7FE700
7FE700
3FE700
0FE700
00E700
00E700
00E700
00E700
00E700
00E700
00E700
00E700
00E700
00E700
00E700
00E700
00E700
00E700
00E700
00E700
00E700
ENDCHAR
STARTCHAR periodcentered
ENCODING 183
SWIDTH 254 0
DWIDTH 8 0
BBX 4 3 2 0
BITMAP
F0
F0
F0
ENDCHAR
STARTCHAR cedilla
ENCODING 184
SWIDTH 310 0
DWIDTH 10 0
BBX 8 9 1 -8
BITMAP
18
18
30
3E
07
07
47
FE
7C
ENDCHAR
STARTCHAR uni00B9
ENCODING 185
SWIDTH 263 0
DWIDTH 8 0
BBX 5 13 1 16
BITMAP
18
38
78
F8
D8
18
18
18
18
18
18
18
18
ENDCHAR
STARTCHAR ordmasculine
ENCODING 186
SWIDTH 442 0
DWIDTH 14 0
BBX 12 11 1 12
BITMAP
1F80
39C0
6060
6030
C030
C030
C030
6060
70E0
3FC0
0F00
ENDCHAR
STARTCHAR guillemotright
ENCODING 187
SWIDTH 506 0
DWIDTH 16 0
BBX 13 13 2 3
BITMAP
E300
6380
71C0
38E0
1CE0
1C70
0E38
0E70
1C70
38E0
31C0
7180
E380
ENDCHAR
STARTCHAR onequarter
ENCODING 188
SWIDTH 854 0
DWIDTH 27 0
BBX 25 24 1 0
BITMAP
0C000600
1C000E00
3C001C00
FC003800
4C003000
0C006000
0C00E000
0C01C000
0C018000
0C030000
0C070000
0C0E0300
0C1C0700
00180F00
00301F00
00701B00
00E03300
01C06300
0180C300
0301FF80
0700FF80
0E000300
0C000300
18000300
ENDCHAR
STARTCHAR onehalf
ENCODING 189
SWIDTH 834 0
DWIDTH 27 0
BBX 24 24 1 0
BITMAP
0C000E
1C001C
3C0038
FC0030
4C0060
0C00E0
0C01C0
0C0180
0C0300
0C0700
0C0E00
0C1C3C
0C18FE
0030C7
007003
00E003
01C007
018006
03800E
07001C
0E0038
0C0070
1800FF
3800FF
ENDCHAR
STARTCHAR threequarters
ENCODING 190
SWIDTH 839 0
DWIDTH 27 0
BBX 24 24 1 0
BITMAP
7C0003
FF0007
47000E
03001C
030018
3E0030
3C0070
0700E0
0301C0
030180
830300
FF0706
7E0E0E
000C1E
00183E
003836
007066
00E0C6
00C186
0183FF
0381FF
070006
060006
0C0006
ENDCHAR
STARTCHAR questiondown
ENCODING 191
SWIDTH 497 0
DWIDTH 16 0
BBX 14 25 1 -8
BITMAP
0180
03C0
03C0
01C0
0000
0000
0180
0180
0180
0380
0380
0700
1E00
3C00
7800
7000
E000
E000
E000
E000
7018
783C
3FF8
1FF0
0380
ENDCHAR
STARTCHAR Agrave
ENCODING 192
SWIDTH 671 0
DWIDTH 21 0
BBX 20 31 1 0
BITMAP
038000
03C000
01C000
01C000
00E000
006000
000000
006000
006000
00E000
00F000
01F000
01F800
01B800
03B800
039C00
071C00
070E00
0F0E00
0E0E00
0E0700
1C0700
1FFF80
3FFF80
3FFF80
3801C0
7001C0
7001E0
F000E0
E000E0
E00070
ENDCHAR
STARTCHAR Aacute
ENCODING 193
SWIDTH 671 0
DWIDTH 21 0
BBX 20 31 1 0
BITMAP
001C00
003C00
003800
003000
007000
006000
000000
006000
006000
00E000
00F000
01F000
01F800
01B800
03B800
039C00
071C00
070E00
0F0E00
0E0E00
0E0700
1C0700
1FFF80
3FFF80
3FFF80
3801C0
7001C0
7001E0
F000E0
E000E0
E00070
ENDCHAR
STARTCHAR Acircumflex
ENCODING 194
SWIDTH 671 0
DWIDTH 21 0
BBX 20 31 1 0
BITMAP
006000
00F000
01F000
03B800
071C00
0F0E00
000000
006000
006000
00E000
00F000
01F000
01F800
01B800
03B800
039C00
071C00
070E00
0F0E00
0E0E00
0E0700
1C0700
1FFF80
3FFF80
3FFF80
3801C0
7001C0
7001E0
F000E0
E000E0
E00070
ENDCHAR
STARTCHAR Atilde
ENCODING 195
SWIDTH 671 0
DWIDTH 21 0
BBX 20 29 1 0
BITMAP
07C600
0FFE00
0C7C00
000000
000000
006000
006000
00E000
00F000
01F000
01F800
01B800
03B800
039C00
071C00
070E00
0F0E00
0E0E00
0E0700
1C0700
1FFF80
3FFF80
3FFF80
3801C0
7001C0
7001E0
F000E0
E000E0
E00070
ENDCHAR
STARTCHAR Adieresis
ENCODING 196
SWIDTH 671 0
DWIDTH 21 0
BBX 20 30 1 0
BITMAP
030800
079C00
079C00
031C00
000000
000000
006000
006000
00E000
00F000
01F000
01F800
01B800
03B800
039C00
071C00
070E00
0F0E00
0E0E00
0E0700
1C0700
1FFF80
3FFF80
3FFF80
3801C0
7001C0
7001E0
F000E0
E000E0
E00070
ENDCHAR
STARTCHAR Aring
ENCODING 197
SWIDTH 671 0
DWIDTH 21 0
BBX 20 32 1 0
BITMAP
00F000
01F800
031800
030800
031800
01F800
00F000
000000
006000
006000
00E000
00F000
01F000
01F800
01B800
03B800
039C00
071C00
070E00
0F0E00
0E0E00
0E0700
1C0700
1FFF80
3FFF80
3FFF80
3801C0
7001C0
7001E0
F000E0
E000E0
E00070
ENDCHAR
STARTCHAR AE
ENCODING 198
SWIDTH 1010 0
DWIDTH 32 0
BBX 31 24 0 0
BITMAP
0003FFFC
0003FFFC
0007FFFC
000EE000
000EE000
001CE000
001CE000
0038E000
0070E000
0070E000
00E0E000
01E0FFFC
01C0FFFC
0380E000
03FFE000
07FFE000
0FFFE000
0E00E000
1C00E000
3C00E000
3800E000
7000FFFE
F000FFFE
E000FFFE
ENDCHAR
STARTCHAR Ccedilla
ENCODING 199
SWIDTH 778 0
DWIDTH 25 0
BBX 23 32 1 -8
BITMAP
007F00
01FFE0
07FFF0
0F80FC
1E003C
3C001E
380008
780000
700000
700000
700000
700000
F00000
700000
700000
700000
700000
380000
3C000C
1E001E
0F007C
07FFF8
03FFE0
00FF80
001800
001800
003F00
000300
000300
006700
007F00
003E00
ENDCHAR
STARTCHAR Egrave
ENCODING 200
SWIDTH 605 0
DWIDTH 19 0
BBX 15 31 3 0
BITMAP
0E00
0E00
0700
0700
0380
0380
0000
FFFE
FFFE
FFFE
E000
E000
E000
E000
E000
E000
E000
E000
FFFC
FFFC
E000
E000
E000
E000
E000
E000
E000
E000
FFFE
FFFE
FFFE
ENDCHAR
STARTCHAR Eacute
ENCODING 201
SWIDTH 605 0
DWIDTH 19 0
BBX 15 31 3 0
BITMAP
00E0
01E0
01C0
0180
0380
0300
0000
FFFE
FFFE
FFFE
E000
E000
E000
E000
E000
E000
E000
E000
FFFC
FFFC
E000
E000
E000
E000
E000
E000
E000
E000
FFFE
FFFE
FFFE
ENDCHAR
STARTCHAR Ecircumflex
ENCODING 202
SWIDTH 605 0
DWIDTH 19 0
BBX 15 31 3 0
BITMAP
0300
0780
07C0
0EE0
1C70
3838
0000
FFFE
FFFE
FFFE
E000
E000
E000
E000
E000
E000
E000
E000
FFFC
FFFC
E000
E000
E000
E000
E000
E000
E000
E000
FFFE
FFFE
FFFE
ENDCHAR
STARTCHAR Edieresis
ENCODING 203
SWIDTH 605 0
DWIDTH 19 0
BBX 15 30 3 0
BITMAP
0820
1CF0
1CF0
1C70
0000
0000
FFFE
FFFE
FFFE
E000
E000
E000
E000
E000
E000
E000
E000
FFFC
FFFC
E000
E000
E000
E000
E000
E000
E000
E000
FFFE
FFFE
FFFE
ENDCHAR
STARTCHAR Igrave
ENCODING 204
SWIDTH 282 0
DWIDTH 9 0
BBX 5 31 1 0
BITMAP
E0
E0
70
70
30
38
00
38
38
38
38
38
38
38
38
38
38
38
38
38
38
38
38
38
38
38
38
38
38
38
38
ENDCHAR
STARTCHAR Iacute
ENCODING 205
SWIDTH 279 0
DWIDTH 9 0
BBX 6 31 3 0
BITMAP
3C
38
70
70
60
E0
00
E0
E0
E0
E0
E0
E0
E0
E0
E0
E0
E0
E0
E0
E0
E0
E0
E0
E0
E0
E0
E0
E0
E0
E0
ENDCHAR
STARTCHAR Icircumflex
ENCODING 206
SWIDTH 282 0
DWIDTH 9 0
BBX 11 31 -1 0
BITMAP
0600
0F00
1F00
3B80
71C0
E0E0
0000
0E00
0E00
0E00
0E00
0E00
0E00
0E00
0E00
0E00
0E00
0E00
0E00
0E00
0E00
0E00
0E00
0E00
0E00
0E00
0E00
0E00
0E00
0E00
0E00
ENDCHAR
STARTCHAR Idieresis
ENCODING 207
SWIDTH 282 0
DWIDTH 9 0
BBX 9 30 0 0
BITMAP
4100
E380
F380
E380
0000
0000
1C00
1C00
1C00
1C00
1C00
1C00
1C00
1C00
1C00
1C00
1C00
1C00
1C00
1C00
1C00
1C00
1C00
1C00
1C00
1C00
1C00
1C00
1C00
1C00
ENDCHAR
STARTCHAR Eth
ENCODING 208
SWIDTH 776 0
DWIDTH 25 0
BBX 23 24 0 0
BITMAP
0FFC00
0FFFC0
0FFFE0
0E01F0
0E0078
0E003C
0E001C
0E001C
0E000E
0E000E
0E000E
FFFC0E
FFFC0E
0E000E
0E000E
0E000E
0E001E
0E001C
0E003C
0E0078
0E00F8
0FFFF0
0FFFC0
0FFF00
ENDCHAR
STARTCHAR Ntilde
ENCODING 209
SWIDTH 778 0
DWIDTH 25 0
BBX 19 29 3 0
BITMAP
07C600
0FFE00
0C7C00
000000
000000
8000E0
C000E0
E000E0
F000E0
F800E0
FC00E0
FC00E0
FE00E0
EF00E0
E780E0
E3C0E0
E1E0E0
E0F0E0
E070E0
E078E0
E03CE0
E01EE0
E00FE0
E007E0
E003E0
E003E0
E001E0
E000E0
E00060
ENDCHAR
STARTCHAR Ograve
ENCODING 210
SWIDTH 856 0
DWIDTH 27 0
BBX 25 31 1 0
BITMAP
00780000
00380000
00380000
001C0000
001C0000
000C0000
00000000
007F0000
01FFE000
07FFF000
0F80F800
1E003C00
3C001E00
38000E00
78000700
70000700
70000780
70000380
F0000380
F0000380
F0000380
70000380
70000700
70000700
38000F00
3C001E00
1E003C00
0F007C00
07FFF800
03FFE000
00FF8000
ENDCHAR
STARTCHAR Oacute
ENCODING 211
SWIDTH 856 0
DWIDTH 27 0
BBX 25 31 1 0
BITMAP
00078000
00070000
000F0000
000E0000
000C0000
001C0000
00000000
007F0000
01FFE000
07FFF000
0F80F800
1E003C00
3C001E00
38000E00
78000700
70000700
70000780
70000380
F0000380
F0000380
F0000380
70000380
70000700
70000700
38000F00
3C001E00
1E003C00
0F007C00
07FFF800
03FFE000
00FF8000
ENDCHAR
STARTCHAR Ocircumflex
ENCODING 212
SWIDTH 856 0
DWIDTH 27 0
BBX 25 31 1 0
BITMAP
000C0000
001E0000
003E0000
00770000
00E38000
01C1C000
00000000
007F0000
01FFE000
07FFF000
0F80F800
1E003C00
3C001E00
38000E00
78000700
70000700
70000780
70000380
F0000380
F0000380
F0000380
70000380
70000700
70000700
38000F00
3C001E00
1E003C00
0F007C00
07FFF800
03FFE000
00FF8000
ENDCHAR
STARTCHAR Otilde
ENCODING 213
SWIDTH 856 0
DWIDTH 27 0
BBX 25 30 1 0
BITMAP
00200000
00FCE000
01FFC000
01878000
00000000
00000000
007F0000
01FFE000
07FFF000
0F80F800
1E003C00
3C001E00
38000E00
78000700
70000700
70000780
70000380
F0000380
F0000380
F0000380
70000380
70000700
70000700
38000F00
3C001E00
1E003C00
0F007C00
07FFF800
03FFE000
00FF8000
ENDCHAR
STARTCHAR Odieresis
ENCODING 214
SWIDTH 856 0
DWIDTH 27 0
BBX 25 30 1 0
BITMAP
00210000
00F38000
00F3C000
00738000
00000000
00000000
007F0000
01FFE000
07FFF000
0F80F800
1E003C00
3C001E00
38000E00
78000700
70000700
70000780
70000380
F0000380
F0000380
F0000380
70000380
70000700
70000700
38000F00
3C001E00
1E003C00
0F007C00
07FFF800
03FFE000
00FF8000
ENDCHAR
STARTCHAR multiply
ENCODING 215
SWIDTH 513 0
DWIDTH 16 0
BBX 13 13 2 4
BITMAP
4030
E078
70F0
39E0
1FC0
0F80
0F00
1F80
3DC0
78E0
F070
E030
4000
ENDCHAR
STARTCHAR Oslash
ENCODING 216
SWIDTH 856 0
DWIDTH 27 0
BBX 25 26 1 -1
BITMAP
00000C00
007F0E00
01FFFC00
07FFF800
0F80F800
1E007C00
3C00FE00
3801CE00
7801C700
70038700
70070780
70060380
F00E0380
F01C0380
F0380380
70380380
70700700
70E00700
38E00F00
3DC01E00
1F803C00
0F007C00
07FFF800
0FFFE000
1CFF8000
0C000000
ENDCHAR
STARTCHAR Ugrave
ENCODING 217
SWIDTH 703 0
DWIDTH 23 0
BBX 17 31 3 0
BITMAP
0F0000
070000
038000
038000
018000
01C000
000000
E00380
E00380
E00380
E00380
E00380
E00380
E00380
E00380
E00380
E00380
E00380
E00380
E00380
E00380
E00380
E00380
E00380
E00380
E00700
F00700
780F00
7FFE00
3FFC00
0FF800
ENDCHAR
STARTCHAR Uacute
ENCODING 218
SWIDTH 703 0
DWIDTH 23 0
BBX 17 31 3 0
BITMAP
007000
00F000
00E000
00E000
01C000
018000
000000
E00380
E00380
E00380
E00380
E00380
E00380
E00380
E00380
E00380
E00380
E00380
E00380
E00380
E00380
E00380
E00380
E00380
E00380
E00700
F00700
780F00
7FFE00
3FFC00
0FF800
ENDCHAR
STARTCHAR Ucircumflex
ENCODING 219
SWIDTH 703 0
DWIDTH 23 0
BBX 17 31 3 0
BITMAP
018000
03C000
03E000
077000
0E3800
1C3C00
000000
E00380
E00380
E00380
E00380
E00380
E00380
E00380
E00380
E00380
E00380
E00380
E00380
E00380
E00380
E00380
E00380
E00380
E00380
E00700
F00700
780F00
7FFE00
3FFC00
0FF800
ENDCHAR
STARTCHAR Udieresis
ENCODING 220
SWIDTH 703 0
DWIDTH 23 0
BBX 17 30 3 0
BITMAP
043000
0E7800
0E7800
0E3800
000000
000000
E00380
E00380
E00380
E00380
E00380
E00380
E00380
E00380
E00380
E00380
E00380
E00380
E00380
E00380
E00380
E00380
E00380
E00380
E00700
F00700
780F00
7FFE00
3FFC00
0FF800
ENDCHAR
STARTCHAR Yacute
ENCODING 221
SWIDTH 633 0
DWIDTH 20 0
BBX 19 31 1 0
BITMAP
007800
007000
007000
00E000
00E000
00C000
000000
E001E0
E001C0
7003C0
700380
380700
3C0700
1C0E00
1E0E00
0E1C00
0F1C00
073800
03B800
03F000
01F000
01E000
00E000
00E000
00E000
00E000
00E000
00E000
00E000
00E000
00E000
ENDCHAR
STARTCHAR Thorn
ENCODING 222
SWIDTH 617 0
DWIDTH 20 0
BBX 15 24 3 0
BITMAP
E000
E000
E000
E000
E000
FFF0
FFF8
E07C
E01E
E00E
E00E
E00E
E00E
E00E
E00E
E03C
FFFC
FFF8
FFE0
E000
E000
E000
E000
E000
ENDCHAR
STARTCHAR germandbls
ENCODING 223
SWIDTH 640 0
DWIDTH 20 0
BBX 17 31 2 -6
BITMAP
03E000
0FF800
1FFC00
3C1E00
780F00
700700
700700
700700
E00700
E00E00
E01E00
E0FC00
E0F800
E0FE00
E00F00
E00700
E00380
E00380
E00380
E00380
E00380
E00700
E21F00
E3FE00
E7FC00
E0C000
E00000
E00000
E00000
E00000
E00000
ENDCHAR
STARTCHAR agrave
ENCODING 224
SWIDTH 663 0
DWIDTH 21 0
BBX 18 25 1 0
BITMAP
038000
03C000
01C000
01C000
00E000
000000
000000
000000
07F9C0
1FFDC0
3E1FC0
3807C0
7003C0
7001C0
E001C0
E001C0
E001C0
E001C0
6001C0
7001C0
7003C0
3807C0
3E1FC0
0FFDC0
07F9C0
ENDCHAR
STARTCHAR aacute
ENCODING 225
SWIDTH 663 0
DWIDTH 21 0
BBX 18 25 1 0
BITMAP
003800
003800
007000
007000
00E000
000000
000000
000000
07F9C0
1FFDC0
3E1FC0
3807C0
7003C0
7001C0
E001C0
E001C0
E001C0
E001C0
6001C0
7001C0
7003C0
3807C0
3E1FC0
0FFDC0
07F9C0
ENDCHAR
STARTCHAR acircumflex
ENCODING 226
SWIDTH 663 0
DWIDTH 21 0
BBX 18 25 1 0
BITMAP
00E000
01F000
03B800
073C00
071C00
000000
000000
000000
07F9C0
1FFDC0
3E1FC0
3807C0
7003C0
7001C0
E001C0
E001C0
E001C0
E001C0
6001C0
7001C0
7003C0
3807C0
3E1FC0
0FFDC0
07F9C0
ENDCHAR
STARTCHAR atilde
ENCODING 227
SWIDTH 663 0
DWIDTH 21 0
BBX 18 24 1 0
BITMAP
078600
0FFE00
0EFC00
043800
000000
000000
000000
07F9C0
1FFDC0
3E1FC0
3807C0
7003C0
7001C0
E001C0
E001C0
E001C0
E001C0
6001C0
7001C0
7003C0
3807C0
3E1FC0
0FFDC0
07F9C0
ENDCHAR
STARTCHAR adieresis
ENCODING 228
SWIDTH 663 0
DWIDTH 21 0
BBX 18 24 1 0
BITMAP
071C00
0F1E00
0F1E00
071C00
000000
000000
000000
07F9C0
1FFDC0
3E1FC0
3807C0
7003C0
7001C0
E001C0
E001C0
E001C0
E001C0
6001C0
7001C0
7003C0
3807C0
3E1FC0
0FFDC0
07F9C0
ENDCHAR
STARTCHAR aring
ENCODING 229
SWIDTH 663 0
DWIDTH 21 0
BBX 18 26 1 0
BITMAP
01F000
03F800
031800
031800
031800
01F000
00E000
000000
000000
07F9C0
1FFDC0
3E1FC0
3807C0
7003C0
7001C0
E001C0
E001C0
E001C0
E001C0
6001C0
7001C0
7003C0
3807C0
3E1FC0
0FFDC0
07F9C0
ENDCHAR
STARTCHAR ae
ENCODING 230
SWIDTH 997 0
DWIDTH 32 0
BBX 30 18 1 0
BITMAP
01000400
1FF07FC0
7FF8FFE0
783DE0F0
001FC078
000F8038
000F0038
0007001C
1FFFFFFC
3FFFFFFC
7C070000
E00F0000
E00F0000
E01F8000
E03FC010
78F9F0F8
7FF0FFF0
1FE03FC0
ENDCHAR
STARTCHAR ccedilla
ENCODING 231
SWIDTH 598 0
DWIDTH 19 0
BBX 17 26 1 -8
BITMAP
004000
07FC00
1FFE00
3E0F00
3C0780
780300
700000
600000
E00000
E00000
E00000
700000
700000
780300
3C0780
1F1F00
0FFE00
07F800
00C000
01C000
01F000
003800
001800
023800
03F000
03E000
ENDCHAR
STARTCHAR egrave
ENCODING 232
SWIDTH 609 0
DWIDTH 19 0
BBX 17 25 1 0
BITMAP
078000
038000
038000
01C000
01C000
000000
000000
004000
07F800
1FFE00
3E1E00
380700
700780
700380
600380
FFFF80
FFFF80
FFFF80
700000
700000
780000
380300
3F1F80
1FFF00
07FC00
ENDCHAR
STARTCHAR eacute
ENCODING 233
SWIDTH 609 0
DWIDTH 19 0
BBX 17 25 1 0
BITMAP
007800
007000
007000
00E000
00E000
000000
000000
004000
07F800
1FFE00
3E1E00
380700
700780
700380
600380
FFFF80
FFFF80
FFFF80
700000
700000
780000
380300
3F1F80
1FFF00
07FC00
ENDCHAR
STARTCHAR ecircumflex
ENCODING 234
SWIDTH 609 0
DWIDTH 19 0
BBX 17 25 1 0
BITMAP
00E000
01E000
03F000
073800
0E1C00
000000
000000
004000
07F800
1FFE00
3E1E00
380700
700780
700380
600380
FFFF80
FFFF80
FFFF80
700000
700000
780000
380300
3F1F80
1FFF00
07FC00
ENDCHAR
STARTCHAR edieresis
ENCODING 235
SWIDTH 609 0
DWIDTH 19 0
BBX 17 24 1 0
BITMAP
061C00
0F1C00
0F3E00
0F1C00
000000
000000
004000
07F800
1FFE00
3E1E00
380700
700780
700380
600380
FFFF80
FFFF80
FFFF80
700000
700000
780000
380300
3F1F80
1FFF00
07FC00
ENDCHAR
STARTCHAR igrave
ENCODING 236
SWIDTH 241 0
DWIDTH 8 0
BBX 5 25 0 0
BITMAP
F0
70
70
38
38
00
00
00
38
38
38
38
38
38
38
38
38
38
38
38
38
38
38
38
38
ENDCHAR
STARTCHAR iacute
ENCODING 237
SWIDTH 241 0
DWIDTH 8 0
BBX 6 25 2 0
BITMAP
3C
38
38
70
60
00
00
00
E0
E0
E0
E0
E0
E0
E0
E0
E0
E0
E0
E0
E0
E0
E0
E0
E0
ENDCHAR
STARTCHAR icircumflex
ENCODING 238
SWIDTH 241 0
DWIDTH 8 0
BBX 10 25 -1 0
BITMAP
1C00
1E00
3F00
7380
E1C0
0000
0000
0000
1C00
1C00
1C00
1C00
1C00
1C00
1C00
1C00
1C00
1C00
1C00
1C00
1C00
1C00
1C00
1C00
1C00
ENDCHAR
STARTCHAR idieresis
ENCODING 239
SWIDTH 241 0
DWIDTH 8 0
BBX 10 24 -1 0
BITMAP
E180
F3C0
F3C0
E3C0
0000
0000
0000
1C00
1C00
1C00
1C00
1C00
1C00
1C00
1C00
1C00
1C00
1C00
1C00
1C00
1C00
1C00
1C00
1C00
ENDCHAR
STARTCHAR eth
ENCODING 240
SWIDTH 656 0
DWIDTH 21 0
BBX 18 27 1 0
BITMAP
004000
00E000
00F380
007F80
003E00
003E00
00FF00
00E700
000380
000380
0001C0
07F1C0
1FFDC0
3F3FC0
3806C0
7007C0
7003C0
E003C0
E001C0
E001C0
E003C0
700380
700380
380700
3E1E00
1FFC00
07F800
ENDCHAR
STARTCHAR ntilde
ENCODING 241
SWIDTH 614 0
DWIDTH 20 0
BBX 15 24 2 0
BITMAP
0E08
1FFC
3FF8
1070
0000
0000
0080
E7F0
EFFC
FC3C
F81E
F00E
F00E
E006
E006
E006
E006
E006
E006
E006
E006
E006
E006
E006
ENDCHAR
STARTCHAR ograve
ENCODING 242
SWIDTH 644 0
DWIDTH 21 0
BBX 18 25 1 0
BITMAP
038000
038000
01C000
01C000
00C000
000000
000000
004000
07FC00
1FFE00
3E1F00
3C0780
780380
7001C0
6001C0
E001C0
E001C0
E001C0
7001C0
7001C0
780380
3C0780
1F1F00
0FFE00
07F800
ENDCHAR
STARTCHAR oacute
ENCODING 243
SWIDTH 644 0
DWIDTH 21 0
BBX 18 25 1 0
BITMAP
007800
007000
007000
00E000
00E000
000000
000000
004000
07FC00
1FFE00
3E1F00
3C0780
780380
7001C0
6001C0
E001C0
E001C0
E001C0
7001C0
7001C0
780380
3C0780
1F1F00
0FFE00
07F800
ENDCHAR
STARTCHAR ocircumflex
ENCODING 244
SWIDTH 644 0
DWIDTH 21 0
BBX 18 25 1 0
BITMAP
00E000
01F000
03B800
073C00
0E1C00
000000
000000
004000
07FC00
1FFE00
3E1F00
3C0780
780380
7001C0
6001C0
E001C0
E001C0
E001C0
7001C0
7001C0
780380
3C0780
1F1F00
0FFE00
07F800
ENDCHAR
STARTCHAR otilde
ENCODING 245
SWIDTH 644 0
DWIDTH 21 0
BBX 18 24 1 0
BITMAP
078400
0FFE00
0EFC00
003800
000000
000000
004000
07FC00
1FFE00
3E1F00
3C0780
780380
7001C0
6001C0
E001C0
E001C0
E001C0
7001C0
7001C0
780380
3C0780
1F1F00
0FFE00
07F800
ENDCHAR
STARTCHAR odieresis
ENCODING 246
SWIDTH 644 0
DWIDTH 21 0
BBX 18 24 1 0
BITMAP
061C00
0F3C00
0F3E00
071C00
000000
000000
004000
07FC00
1FFE00
3E1F00
3C0780
780380
7001C0
6001C0
E001C0
E001C0
E001C0
7001C0
7001C0
780380
3C0780
1F1F00
0FFE00
07F800
ENDCHAR
STARTCHAR divide
ENCODING 247
SWIDTH 550 0
DWIDTH 18 0
BBX 14 15 2 3
BITMAP
0300
0780
0780
0700
0000
0000
FFFC
FFFC
FFFC
0000
0000
0300
0780
0780
0700
ENDCHAR
STARTCHAR oslash
ENCODING 248
SWIDTH 644 0
DWIDTH 21 0
BBX 18 21 1 -2
BITMAP
000100
004380
07FF00
1FFE00
3E1F00
3C1F80
781B80
7039C0
6071C0
E061C0
E0E1C0
E1C1C0
7181C0
7301C0
7F0380
3E0780
1F1F00
1FFE00
1FF800
300000
100000
ENDCHAR
STARTCHAR ugrave
ENCODING 249
SWIDTH 592 0
DWIDTH 19 0
BBX 15 25 2 0
BITMAP
0E00
0700
0700
0380
0380
0000
0000
0000
E00E
E00E
E00E
E00E
E00E
E00E
E00E
E00E
E00E
E00E
E00E
E00E
F01C
701C
7C7C
3FF8
1FE0
ENDCHAR
STARTCHAR uacute
ENCODING 250
SWIDTH 592 0
DWIDTH 19 0
BBX 15 25 2 0
BITMAP
00E0
01E0
01C0
0180
0380
0000
0000
0000
E00E
E00E
E00E
E00E
E00E
E00E
E00E
E00E
E00E
E00E
E00E
E00E
F01C
701C
7C7C
3FF8
1FE0
ENDCHAR
STARTCHAR ucircumflex
ENCODING 251
SWIDTH 592 0
DWIDTH 19 0
BBX 15 25 2 0
BITMAP
0380
07C0
0EE0
1EE0
1C70
0000
0000
0000
E00E
E00E
E00E
E00E
E00E
E00E
E00E
E00E
E00E
E00E
E00E
E00E
F01C
701C
7C7C
3FF8
1FE0
ENDCHAR
STARTCHAR udieresis
ENCODING 252
SWIDTH 592 0
DWIDTH 19 0
BBX 15 24 2 0
BITMAP
1C70
3C78
3CF8
1C70
0000
0000
0000
E00E
E00E
E00E
E00E
E00E
E00E
E00E
E00E
E00E
E00E
E00E
E00E
F01C
701C
7C7C
3FF8
1FE0
ENDCHAR
STARTCHAR yacute
ENCODING 253
SWIDTH 548 0
DWIDTH 18 0
BBX 16 32 1 -7
BITMAP
00E0
00E0
01C0
01C0
0180
0000
0000
0000
E007
E00E
700E
700E
781C
381C
381C
1C38
1C38
0E70
0E70
0F70
07E0
07E0
03E0
03C0
01C0
0180
0380
0380
0700
5F00
7E00
FC00
ENDCHAR
STARTCHAR thorn
ENCODING 254
SWIDTH 666 0
DWIDTH 21 0
BBX 18 31 2 -7
BITMAP
E00000
E00000
E00000
E00000
E00000
E00000
E0C000
E7F800
EFFE00
FE1F00
F80780
F00380
F00380
E001C0
E001C0
E001C0
E001C0
E001C0
F00380
F00380
F80780
FE1F00
EFFE00
E3F800
E00000
E00000
E00000
E00000
E00000
E00000
E00000
ENDCHAR
STARTCHAR ydieresis
ENCODING 255
SWIDTH 548 0
DWIDTH 18 0
BBX 16 31 1 -7
BITMAP
0C30
1E78
1E78
1C78
0000
0000
0000
E007
E00E
700E
700E
781C
381C
381C
1C38
1C38
0E70
0E70
0F70
07E0
07E0
03E0
03C0
01C0
0180
0380
0380
0700
5F00
7E00
FC00
ENDCHAR
STARTCHAR Amacron
ENCODING 256
SWIDTH 671 0
DWIDTH 21 0
BBX 20 29 1 0
BITMAP
0FFE00
0FFE00
0FFE00
000000
000000
006000
006000
00E000
00F000
01F000
01F800
01B800
03B800
039C00
071C00
070E00
0F0E00
0E0E00
0E0700
1C0700
1FFF80
3FFF80
3FFF80
3801C0
7001C0
7001E0
F000E0
E000E0
E00070
ENDCHAR
STARTCHAR amacron
ENCODING 257
SWIDTH 663 0
DWIDTH 21 0
BBX 18 23 1 0
BITMAP
07FC00
07FC00
07FC00
000000
000000
000000
07F9C0
1FFDC0
3E1FC0
3807C0
7003C0
7001C0
E001C0
E001C0
E001C0
E001C0
6001C0
7001C0
7003C0
3807C0
3E1FC0
0FFDC0
07F9C0
ENDCHAR
STARTCHAR Abreve
ENCODING 258
SWIDTH 671 0
DWIDTH 21 0
BBX 20 31 1 0
BITMAP
0E0600
0E0600
060E00
079C00
03FC00
00F000
000000
006000
006000
00E000
00F000
01F000
01F800
01B800
03B800
039C00
071C00
070E00
0F0E00
0E0E00
0E0700
1C0700
1FFF80
3FFF80
3FFF80
3801C0
7001C0
7001E0
F000E0
E000E0
E00070
ENDCHAR
STARTCHAR abreve
ENCODING 259
SWIDTH 663 0
DWIDTH 21 0
BBX 18 25 1 0
BITMAP
0E0E00
0E0E00
071C00
07FC00
03F000
000000
000000
000000
07F9C0
1FFDC0
3E1FC0
3807C0
7003C0
7001C0
E001C0
E001C0
E001C0
E001C0
6001C0
7001C0
7003C0
3807C0
3E1FC0
0FFDC0
07F9C0
ENDCHAR
STARTCHAR Aogonek
ENCODING 260
SWIDTH 669 0
DWIDTH 21 0
BBX 20 32 1 -8
BITMAP
006000
006000
00E000
00F000
01F000
01F800
01B800
03B800
039C00
071C00
070E00
0F0E00
0E0E00
0E0700
1C0700
1FFF80
3FFF80
3FFF80
3801C0
7001C0
7001E0
F000E0
E000E0
E00070
0000E0
0001C0
000380
000300
000300
000380
0003F0
0001F0
ENDCHAR
STARTCHAR aogonek
ENCODING 261
SWIDTH 660 0
DWIDTH 21 0
BBX 18 25 1 -8
BITMAP
07F9C0
1FFDC0
3E1FC0
3807C0
7003C0
7001C0
E001C0
E001C0
E001C0
E001C0
6001C0
7001C0
7003C0
3807C0
3E1FC0
0FFDC0
07F9C0
000380
000700
000E00
000C00
000C00
000E80
000FC0
0007C0
ENDCHAR
STARTCHAR Cacute
ENCODING 262
SWIDTH 778 0
DWIDTH 25 0
BBX 23 31 1 0
BITMAP
000380
000780
000700
000600
000E00
000C00
000000
007F00
01FFE0
07FFF0
0F80FC
1E003C
3C001E
380008
780000
700000
700000
700000
700000
F00000
700000
700000
700000
700000
380000
3C000C
1E001E
0F007C
07FFF8
03FFE0
00FF80
ENDCHAR
STARTCHAR cacute
ENCODING 263
SWIDTH 598 0
DWIDTH 19 0
BBX 17 25 1 0
BITMAP
003800
007800
007000
007000
00E000
000000
000000
004000
07FC00
1FFE00
3E0F00
3C0780
780300
700000
600000
E00000
E00000
E00000
700000
700000
780300
3C0780
1F1F00
0FFE00
07F800
ENDCHAR
STARTCHAR Ccircumflex
ENCODING 264
SWIDTH 778 0
DWIDTH 25 0
BBX 23 31 1 0
BITMAP
000C00
001C00
003E00
007700
00E380
01C1C0
000000
007F00
01FFE0
07FFF0
0F80FC
1E003C
3C001E
380008
780000
700000
700000
700000
700000
F00000
700000
700000
700000
700000
380000
3C000C
1E001E
0F007C
07FFF8
03FFE0
00FF80
ENDCHAR
STARTCHAR ccircumflex
ENCODING 265
SWIDTH 598 0
DWIDTH 19 0
BBX 17 25 1 0
BITMAP
00E000
01F000
03B800
073800
0F1C00
000000
000000
004000
07FC00
1FFE00
3E0F00
3C0780
780300
700000
600000
E00000
E00000
E00000
700000
700000
780300
3C0780
1F1F00
0FFE00
07F800
ENDCHAR
STARTCHAR Cdotaccent
ENCODING 266
SWIDTH 778 0
DWIDTH 25 0
BBX 23 30 1 0
BITMAP
000C00
001E00
003E00
001C00
000000
000000
007F00
01FFE0
07FFF0
0F80FC
1E003C
3C001E
380008
780000
700000
700000
700000
700000
F00000
700000
700000
700000
700000
380000
3C000C
1E001E
0F007C
07FFF8
03FFE0
00FF80
ENDCHAR
STARTCHAR cdotaccent
ENCODING 267
SWIDTH 598 0
DWIDTH 19 0
BBX 17 24 1 0
BITMAP
00C000
01E000
01E000
00E000
000000
000000
004000
07FC00
1FFE00
3E0F00
3C0780
780300
700000
600000
E00000
E00000
E00000
700000
700000
780300
3C0780
1F1F00
0FFE00
07F800
ENDCHAR
STARTCHAR Ccaron
ENCODING 268
SWIDTH 778 0
DWIDTH 25 0
BBX 23 31 1 0
BITMAP
01C1C0
00E380
007700
003E00
001E00
001C00
000000
007F00
01FFE0
07FFF0
0F80FC
1E003C
3C001E
380008
780000
700000
700000
700000
700000
F00000
700000
700000
700000
700000
380000
3C000C
1E001E
0F007C
07FFF8
03FFE0
00FF80
ENDCHAR
STARTCHAR ccaron
ENCODING 269
SWIDTH 598 0
DWIDTH 19 0
BBX 17 25 1 0
BITMAP
0F1C00
073800
03B800
01F000
00E000
000000
000000
004000
07FC00
1FFE00
3E0F00
3C0780
780300
700000
600000
E00000
E00000
E00000
700000
700000
780300
3C0780
1F1F00
0FFE00
07F800
ENDCHAR
STARTCHAR Dcaron
ENCODING 270
SWIDTH 756 0
DWIDTH 24 0
BBX 20 31 3 0
BITMAP
1C3800
1E7800
0E7000
07E000
03C000
018000
000000
FFE000
FFFC00
FFFE00
E01F80
E00780
E003C0
E001C0
E000E0
E000E0
E000E0
E000E0
E000F0
E000F0
E000E0
E000E0
E000E0
E000E0
E001E0
E003C0
E007C0
E00F80
FFFF00
FFFE00
FFF000
ENDCHAR
STARTCHAR dcaron
ENCODING 271
SWIDTH 699 0
DWIDTH 22 0
BBX 24 25 1 0
BITMAP
000007
0001CE
0001CE
0001CC
0001DC
0001C0
0001C0
0001C0
07F9C0
1FFDC0
3E1FC0
3807C0
7003C0
7001C0
6001C0
E001C0
E001C0
E001C0
6001C0
7001C0
7003C0
3807C0
3E1FC0
0FFDC0
07F9C0
ENDCHAR
STARTCHAR Dcroat
ENCODING 272
SWIDTH 776 0
DWIDTH 25 0
BBX 23 24 0 0
BITMAP
0FFC00
0FFFC0
0FFFE0
0E01F0
0E0078
0E003C
0E001C
0E001C
0E000E
0E000E
0E000E
FFFC0E
FFFC0E
0E000E
0E000E
0E000E
0E001E
0E001C
0E003C
0E0078
0E00F8
0FFFF0
0FFFC0
0FFF00
ENDCHAR
STARTCHAR dcroat
ENCODING 273
SWIDTH 669 0
DWIDTH 21 0
BBX 21 24 1 0
BITMAP
0001C0
0001C0
0001C0
003FF8
003FF8
0001C0
0001C0
07F9C0
1FFDC0
3E1FC0
3807C0
7003C0
7001C0
6001C0
E001C0
E001C0
E001C0
6001C0
7001C0
7003C0
3807C0
3E1FC0
0FFDC0
07F9C0
ENDCHAR
STARTCHAR Emacron
ENCODING 274
SWIDTH 605 0
DWIDTH 19 0
BBX 15 29 3 0
BITMAP
3FF8
3FF8
3FF8
0000
0000
FFFE
FFFE
FFFE
E000
E000
E000
E000
E000
E000
E000
E000
FFFC
FFFC
E000
E000
E000
E000
E000
E000
E000
E000
FFFE
FFFE
FFFE
ENDCHAR
STARTCHAR emacron
ENCODING 275
SWIDTH 609 0
DWIDTH 19 0
BBX 17 23 1 0
BITMAP
0FFC00
0FFC00
0FFC00
000000
000000
004000
07F800
1FFE00
3E1E00
380700
700780
700380
600380
FFFF80
FFFF80
FFFF80
700000
700000
780000
380300
3F1F80
1FFF00
07FC00
ENDCHAR
STARTCHAR Ebreve
ENCODING 276
SWIDTH 605 0
DWIDTH 19 0
BBX 15 31 3 0
BITMAP
3838
3838
3838
1EF0
0FE0
07C0
0000
FFFE
FFFE
FFFE
E000
E000
E000
E000
E000
E000
E000
E000
FFFC
FFFC
E000
E000
E000
E000
E000
E000
E000
E000
FFFE
FFFE
FFFE
ENDCHAR
STARTCHAR ebreve
ENCODING 277
SWIDTH 609 0
DWIDTH 19 0
BBX 17 25 1 0
BITMAP
0C0E00
0E0C00
0E1C00
07F800
03F000
000000
000000
004000
07F800
1FFE00
3E1E00
380700
700780
700380
600380
FFFF80
FFFF80
FFFF80
700000
700000
780000
380300
3F1F80
1FFF00
07FC00
ENDCHAR
STARTCHAR Edotaccent
ENCODING 278
SWIDTH 605 0
DWIDTH 19 0
BBX 15 30 3 0
BITMAP
0300
0780
0780
0380
0000
0000
FFFE
FFFE
FFFE
E000
E000
E000
E000
E000
E000
E000
E000
FFFC
FFFC
E000
E000
E000
E000
E000
E000
E000
E000
FFFE
FFFE
FFFE
ENDCHAR
STARTCHAR edotaccent
ENCODING 279
SWIDTH 609 0
DWIDTH 19 0
BBX 17 24 1 0
BITMAP
00C000
01E000
01E000
01E000
000000
000000
004000
07F800
1FFE00
3E1E00
380700
700780
700380
600380
FFFF80
FFFF80
FFFF80
700000
700000
780000
380300
3F1F80
1FFF00
07FC00
ENDCHAR
STARTCHAR Eogonek
ENCODING 280
SWIDTH 603 0
DWIDTH 19 0
BBX 15 32 3 -8
BITMAP
FFFE
FFFE
FFFE
E000
E000
E000
E000
E000
E000
E000
E000
FFFC
FFFC
E000
E000
E000
E000
E000
E000
E000
E000
FFFE
FFFE
FFFE
001C
0030
0060
0060
00E0
00F4
007E
003E
ENDCHAR
STARTCHAR eogonek
ENCODING 281
SWIDTH 609 0
DWIDTH 19 0
BBX 17 26 1 -8
BITMAP
004000
07F800
1FFE00
3E1E00
380700
700780
700380
600380
FFFF80
FFFF80
FFFF80
700000
700000
780000
380300
3F1F80
1FFF00
07FC00
007000
00E000
01C000
018000
01C000
01F800
01F800
00F800
ENDCHAR
STARTCHAR Ecaron
ENCODING 282
SWIDTH 605 0
DWIDTH 19 0
BBX 15 31 3 0
BITMAP
3838
1C70
0EE0
07C0
0780
0300
0000
FFFE
FFFE
FFFE
E000
E000
E000
E000
E000
E000
E000
E000
FFFC
FFFC
E000
E000
E000
E000
E000
E000
E000
E000
FFFE
FFFE
FFFE
ENDCHAR
STARTCHAR ecaron
ENCODING 283
SWIDTH 609 0
DWIDTH 19 0
BBX 17 25 1 0
BITMAP
0E1C00
073800
03F000
01E000
00E000
000000
000000
004000
07F800
1FFE00
3E1E00
380700
700780
700380
600380
FFFF80
FFFF80
FFFF80
700000
700000
780000
380300
3F1F80
1FFF00
07FC00
ENDCHAR
STARTCHAR Gcircumflex
ENCODING 284
SWIDTH 812 0
DWIDTH 26 0
BBX 23 31 1 0
BITMAP
000C00
001E00
003F00
007700
00E380
01E1C0
000000
007F80
01FFE0
07FFF8
0F80FC
1E003C
3C0008
380000
780000
700000
700000
700FFE
700FFE
F00FFE
70000E
70000E
70000E
78000E
38000E
3C000E
1E001E
0F007C
07FFF8
03FFF0
00FF80
ENDCHAR
STARTCHAR gcircumflex
ENCODING 285
SWIDTH 666 0
DWIDTH 21 0
BBX 18 32 1 -7
BITMAP
00E000
01F000
03F000
073800
0E1C00
000000
000000
000000
07F9C0
1FFDC0
3E0FC0
3807C0
7003C0
7001C0
E001C0
E001C0
E001C0
E001C0
7001C0
7003C0
7803C0
3C0FC0
1FFFC0
0FFDC0
03F1C0
0001C0
000380
000380
300700
7E3F00
3FFE00
0FF800
ENDCHAR
STARTCHAR Gbreve
ENCODING 286
SWIDTH 812 0
DWIDTH 26 0
BBX 23 31 1 0
BITMAP
01C0C0
01C0C0
00C1C0
00F780
007F80
001E00
000000
007F80
01FFE0
07FFF8
0F80FC
1E003C
3C0008
380000
780000
700000
700000
700FFE
700FFE
F00FFE
70000E
70000E
70000E
78000E
38000E
3C000E
1E001E
0F007C
07FFF8
03FFF0
00FF80
ENDCHAR
STARTCHAR gbreve
ENCODING 287
SWIDTH 666 0
DWIDTH 21 0
BBX 18 32 1 -7
BITMAP
0C0C00
0C0C00
0E1C00
07F800
03F000
000000
000000
000000
07F9C0
1FFDC0
3E0FC0
3807C0
7003C0
7001C0
E001C0
E001C0
E001C0
E001C0
7001C0
7003C0
7803C0
3C0FC0
1FFFC0
0FFDC0
03F1C0
0001C0
000380
000380
300700
7E3F00
3FFE00
0FF800
ENDCHAR
STARTCHAR Gdotaccent
ENCODING 288
SWIDTH 812 0
DWIDTH 26 0
BBX 23 30 1 0
BITMAP
000C00
001E00
001E00
001E00
000000
000000
007F80
01FFE0
07FFF8
0F80FC
1E003C
3C0008
380000
780000
700000
700000
700FFE
700FFE
F00FFE
70000E
70000E
70000E
78000E
38000E
3C000E
1E001E
0F007C
07FFF8
03FFF0
00FF80
ENDCHAR
STARTCHAR gdotaccent
ENCODING 289
SWIDTH 666 0
DWIDTH 21 0
BBX 18 31 1 -7
BITMAP
00C000
01E000
01E000
01E000
000000
000000
000000
07F9C0
1FFDC0
3E0FC0
3807C0
7003C0
7001C0
E001C0
E001C0
E001C0
E001C0
7001C0
7003C0
7803C0
3C0FC0
1FFFC0
0FFDC0
03F1C0
0001C0
000380
000380
300700
7E3F00
3FFE00
0FF800
ENDCHAR
STARTCHAR uni0122
ENCODING 290
SWIDTH 812 0
DWIDTH 26 0
BBX 23 32 1 -8
BITMAP
007F80
01FFE0
07FFF8
0F80FC
1E003C
3C0008
380000
780000
700000
700000
700FFE
700FFE
F00FFE
70000E
70000E
70000E
78000E
38000E
3C000E
1E001E
0F007C
07FFF8
03FFF0
00FF80
000000
000C00
001E00
001E00
001E00
000C00
001C00
003800
ENDCHAR
STARTCHAR uni0123
ENCODING 291
SWIDTH 666 0
DWIDTH 21 0
BBX 18 33 1 -7
BITMAP
007000
00E000
00C000
01E000
01E000
01E000
00C000
000000
000000
07F9C0
1FFDC0
3E0FC0
3807C0
7003C0
7001C0
E001C0
E001C0
E001C0
E001C0
7001C0
7003C0
7803C0
3C0FC0
1FFFC0
0FFDC0
03F1C0
0001C0
000380
000380
300700
7E3F00
3FFE00
0FF800
ENDCHAR
STARTCHAR Hcircumflex
ENCODING 292
SWIDTH 756 0
DWIDTH 24 0
BBX 18 31 3 0
BITMAP
00C000
01E000
03F000
03B800
073C00
0E1C00
000000
E001C0
E001C0
E001C0
E001C0
E001C0
E001C0
E001C0
E001C0
E001C0
E001C0
FFFFC0
FFFFC0
FFFFC0
E001C0
E001C0
E001C0
E001C0
E001C0
E001C0
E001C0
E001C0
E001C0
E001C0
E001C0
ENDCHAR
STARTCHAR hcircumflex
ENCODING 293
SWIDTH 613 0
DWIDTH 20 0
BBX 18 31 -1 0
BITMAP
0C0000
1E0000
3F0000
770000
E38000
E1C000
000000
1C0000
1C0000
1C0000
1C0000
1C0000
1C0000
1C1000
1CFE00
1DFF80
1F8780
1F03C0
1E01C0
1E01C0
1C01C0
1C00C0
1C00C0
1C00C0
1C00C0
1C00C0
1C00C0
1C00C0
1C00C0
1C00C0
1C00C0
ENDCHAR
STARTCHAR Hbar
ENCODING 294
SWIDTH 794 0
DWIDTH 25 0
BBX 25 24 0 0
BITMAP
1C001800
1C001800
1C001800
1C001800
FFFFFF80
FFFFFF80
FFFFFF80
1C001800
1C001800
1C001800
1FFFF800
1FFFF800
1FFFF800
1C001800
1C001800
1C001800
1C001800
1C001800
1C001800
1C001800
1C001800
1C001800
1C001800
1C001800
ENDCHAR
STARTCHAR hbar
ENCODING 295
SWIDTH 613 0
DWIDTH 20 0
BBX 17 24 0 0
BITMAP
380000
380000
380000
FFE000
FFE000
380000
382000
39FC00
3BFF00
3F0F00
3E0780
3C0380
3C0380
380380
380180
380180
380180
380180
380180
380180
380180
380180
380180
380180
ENDCHAR
STARTCHAR Itilde
ENCODING 296
SWIDTH 282 0
DWIDTH 9 0
BBX 11 30 -1 0
BITMAP
7C60
FFE0
EFE0
4380
0000
0000
0E00
0E00
0E00
0E00
0E00
0E00
0E00
0E00
0E00
0E00
0E00
0E00
0E00
0E00
0E00
0E00
0E00
0E00
0E00
0E00
0E00
0E00
0E00
0E00
ENDCHAR
STARTCHAR itilde
ENCODING 297
SWIDTH 241 0
DWIDTH 8 0
BBX 11 24 -2 0
BITMAP
3C20
7FE0
EFE0
43C0
0000
0000
0000
0E00
0E00
0E00
0E00
0E00
0E00
0E00
0E00
0E00
0E00
0E00
0E00
0E00
0E00
0E00
0E00
0E00
ENDCHAR
STARTCHAR Imacron
ENCODING 298
SWIDTH 282 0
DWIDTH 9 0
BBX 11 29 -1 0
BITMAP
FFE0
FFE0
0000
0000
0000
0E00
0E00
0E00
0E00
0E00
0E00
0E00
0E00
0E00
0E00
0E00
0E00
0E00
0E00
0E00
0E00
0E00
0E00
0E00
0E00
0E00
0E00
0E00
0E00
ENDCHAR
STARTCHAR imacron
ENCODING 299
SWIDTH 241 0
DWIDTH 8 0
BBX 10 23 -1 0
BITMAP
FFC0
FFC0
FFC0
0000
0000
0000
1C00
1C00
1C00
1C00
1C00
1C00
1C00
1C00
1C00
1C00
1C00
1C00
1C00
1C00
1C00
1C00
1C00
ENDCHAR
STARTCHAR Ibreve
ENCODING 300
SWIDTH 282 0
DWIDTH 9 0
BBX 11 31 -1 0
BITMAP
E060
E0E0
E0E0
7FC0
3F80
0F00
0000
0E00
0E00
0E00
0E00
0E00
0E00
0E00
0E00
0E00
0E00
0E00
0E00
0E00
0E00
0E00
0E00
0E00
0E00
0E00
0E00
0E00
0E00
0E00
0E00
ENDCHAR
STARTCHAR ibreve
ENCODING 301
SWIDTH 241 0
DWIDTH 8 0
BBX 11 25 -2 0
BITMAP
E060
60E0
70E0
3FC0
1F80
0000
0000
0000
0E00
0E00
0E00
0E00
0E00
0E00
0E00
0E00
0E00
0E00
0E00
0E00
0E00
0E00
0E00
0E00
0E00
ENDCHAR
STARTCHAR Iogonek
ENCODING 302
SWIDTH 282 0
DWIDTH 9 0
BBX 6 32 0 -8
BITMAP
1C
1C
1C
1C
1C
1C
1C
1C
1C
1C
1C
1C
1C
1C
1C
1C
1C
1C
1C
1C
1C
1C
1C
1C
38
70
E0
C0
C0
E0
FC
7C
ENDCHAR
STARTCHAR iogonek
ENCODING 303
SWIDTH 241 0
DWIDTH 8 0
BBX 7 32 -1 -8
BITMAP
0C
1E
1E
1E
00
00
00
1C
1C
1C
1C
1C
1C
1C
1C
1C
1C
1C
1C
1C
1C
1C
1C
1C
18
70
60
E0
E0
F4
FC
7E
ENDCHAR
STARTCHAR Idotaccent
ENCODING 304
SWIDTH 282 0
DWIDTH 9 0
BBX 4 30 3 0
BITMAP
60
F0
F0
F0
00
00
E0
E0
E0
E0
E0
E0
E0
E0
E0
E0
E0
E0
E0
E0
E0
E0
E0
E0
E0
E0
E0
E0
E0
E0
ENDCHAR
STARTCHAR dotlessi
ENCODING 305
SWIDTH 241 0
DWIDTH 8 0
BBX 3 17 2 0
BITMAP
E0
E0
E0
E0
E0
E0
E0
E0
E0
E0
E0
E0
E0
E0
E0
E0
E0
ENDCHAR
STARTCHAR IJ
ENCODING 306
SWIDTH 832 0
DWIDTH 27 0
BBX 21 24 3 0
BITMAP
E00038
E00038
E00038
E00038
E00038
E00038
E00038
E00038
E00038
E00038
E00038
E00038
E00038
E00038
E00038
E00038
E00038
E00038
E00078
E00070
E1C0F0
E3F3E0
E1FFC0
E07F80
ENDCHAR
STARTCHAR ij
ENCODING 307
SWIDTH 506 0
DWIDTH 16 0
BBX 12 31 2 -7
BITMAP
6060
F0F0
F0F0
F070
0000
0000
0000
E070
E070
E070
E070
E070
E070
E070
E070
E070
E070
E070
E070
E070
E070
E070
E070
E070
0070
0070
0070
00E0
09E0
0FC0
1F80
ENDCHAR
STARTCHAR Jcircumflex
ENCODING 308
SWIDTH 554 0
DWIDTH 18 0
BBX 18 31 1 0
BITMAP
001800
001C00
003E00
007700
00E380
01C1C0
000000
001C00
001C00
001C00
001C00
001C00
001C00
001C00
001C00
001C00
001C00
001C00
001C00
001C00
001C00
001C00
001C00
001C00
001C00
001C00
403800
E07800
F9F000
7FF000
3FC000
ENDCHAR
STARTCHAR jcircumflex
ENCODING 309
SWIDTH 265 0
DWIDTH 8 0
BBX 12 32 -2 -7
BITMAP
0700
0F80
1DC0
1CE0
38E0
0010
0000
0000
0700
0700
0700
0700
0700
0700
0700
0700
0700
0700
0700
0700
0700
0700
0700
0700
0700
0700
0700
0700
0700
9E00
FE00
FC00
ENDCHAR
STARTCHAR uni0136
ENCODING 310
SWIDTH 661 0
DWIDTH 21 0
BBX 18 32 3 -8
BITMAP
E003C0
E00780
E00F00
E01E00
E01C00
E03800
E07000
E0F000
E1E000
E3C000
E78000
E70000
EF8000
FFC000
F9E000
F8E000
F07000
E07800
E03C00
E01E00
E00F00
E00700
E00380
E003C0
000000
01C000
01E000
01E000
01E000
00C000
018000
030000
ENDCHAR
STARTCHAR uni0137
ENCODING 311
SWIDTH 539 0
DWIDTH 17 0
BBX 15 32 2 -8
BITMAP
E000
E000
E000
E000
E000
E000
E000
E03E
E078
E0F0
E1E0
E3C0
E780
EF00
FE00
FF00
F780
E3C0
E1E0
E0F0
E070
E078
E03C
E01E
0000
0780
0780
0780
0180
0300
0600
0400
ENDCHAR
STARTCHAR kgreenlandic
ENCODING 312
SWIDTH 538 0
DWIDTH 17 0
BBX 15 17 2 0
BITMAP
E03E
E078
E0F0
E1E0
E3C0
E780
EF00
FE00
FF00
F780
E3C0
E1E0
E0F0
E070
E078
E03C
E01E
ENDCHAR
STARTCHAR Lacute
ENCODING 313
SWIDTH 601 0
DWIDTH 19 0
BBX 16 31 3 0
BITMAP
3C00
3800
7800
7000
6000
E000
0000
E000
E000
E000
E000
E000
E000
E000
E000
E000
E000
E000
E000
E000
E000
E000
E000
E000
E000
E000
E000
E000
FFFF
FFFF
FFFF
ENDCHAR
STARTCHAR lacute
ENCODING 314
SWIDTH 239 0
DWIDTH 8 0
BBX 6 31 2 0
BITMAP
3C
38
38
70
70
60
00
E0
E0
E0
E0
E0
E0
E0
E0
E0
E0
E0
E0
E0
E0
E0
E0
E0
E0
E0
E0
E0
E0
E0
E0
ENDCHAR
STARTCHAR uni013B
ENCODING 315
SWIDTH 601 0
DWIDTH 19 0
BBX 16 33 3 -9
BITMAP
E000
E000
E000
E000
E000
E000
E000
E000
E000
E000
E000
E000
E000
E000
E000
E000
E000
E000
E000
E000
E000
FFFF
FFFF
FFFF
0000
0180
03C0
03C0
01C0
01C0
0380
0300
0200
ENDCHAR
STARTCHAR uni013C
ENCODING 316
SWIDTH 241 0
DWIDTH 8 0
BBX 5 33 1 -9
BITMAP
70
70
70
70
70
70
70
70
70
70
70
70
70
70
70
70
70
70
70
70
70
70
70
70
00
30
78
78
78
30
70
E0
40
ENDCHAR
STARTCHAR Lcaron
ENCODING 317
SWIDTH 606 0
DWIDTH 19 0
BBX 16 25 3 0
BITMAP
000E
E01C
E01C
E018
E038
E000
E000
E000
E000
E000
E000
E000
E000
E000
E000
E000
E000
E000
E000
E000
E000
E000
FFFF
FFFF
FFFF
ENDCHAR
STARTCHAR lcaron
ENCODING 318
SWIDTH 269 0
DWIDTH 9 0
BBX 9 25 2 0
BITMAP
0380
E380
E700
E700
E600
E000
E000
E000
E000
E000
E000
E000
E000
E000
E000
E000
E000
E000
E000
E000
E000
E000
E000
E000
E000
ENDCHAR
STARTCHAR Ldot
ENCODING 319
SWIDTH 603 0
DWIDTH 19 0
BBX 16 24 3 0
BITMAP
E000
E000
E000
E000
E000
E000
E000
E000
E000
E000
E078
E078
E078
E000
E000
E000
E000
E000
E000
E000
E000
FFFF
FFFF
FFFF
ENDCHAR
STARTCHAR ldot
ENCODING 320
SWIDTH 349 0
DWIDTH 11 0
BBX 9 24 2 0
BITMAP
E000
E000
E000
E000
E000
E000
E000
E000
E000
E000
E100
E380
E780
E380
E000
E000
E000
E000
E000
E000
E000
E000
E000
E000
ENDCHAR
STARTCHAR Lslash
ENCODING 321
SWIDTH 609 0
DWIDTH 19 0
BBX 18 24 1 0
BITMAP
380000
380000
380000
380000
380000
380000
380000
388000
398000
3F8000
3F0000
3E0000
780000
F80000
F80000
B80000
380000
380000
380000
380000
380000
3FFFC0
3FFFC0
3FFFC0
ENDCHAR
STARTCHAR lslash
ENCODING 322
SWIDTH 298 0
DWIDTH 10 0
BBX 7 24 1 0
BITMAP
38
38
38
38
38
38
38
38
3A
3E
3E
3C
78
F8
F8
B8
38
38
38
38
38
38
38
38
ENDCHAR
STARTCHAR Nacute
ENCODING 323
SWIDTH 778 0
DWIDTH 25 0
BBX 19 31 3 0
BITMAP
003800
007800
007000
007000
00E000
00C000
000000
8000E0
C000E0
E000E0
F000E0
F800E0
FC00E0
FC00E0
FE00E0
EF00E0
E780E0
E3C0E0
E1E0E0
E0F0E0
E070E0
E078E0
E03CE0
E01EE0
E00FE0
E007E0
E003E0
E003E0
E001E0
E000E0
E00060
ENDCHAR
STARTCHAR nacute
ENCODING 324
SWIDTH 614 0
DWIDTH 20 0
BBX 15 25 2 0
BITMAP
00E0
00E0
01C0
01C0
0180
0000
0000
0080
E7F0
EFFC
FC3C
F81E
F00E
F00E
E006
E006
E006
E006
E006
E006
E006
E006
E006
E006
E006
ENDCHAR
STARTCHAR uni0145
ENCODING 325
SWIDTH 778 0
DWIDTH 25 0
BBX 19 32 3 -8
BITMAP
8000E0
C000E0
E000E0
F000E0
F800E0
FC00E0
FC00E0
FE00E0
EF00E0
E780E0
E3C0E0
E1E0E0
E0F0E0
E070E0
E078E0
E03CE0
E01EE0
E00FE0
E007E0
E003E0
E003E0
E001E0
E000E0
E00060
000000
00E000
00F000
00F000
007000
006000
00C000
018000
ENDCHAR
STARTCHAR uni0146
ENCODING 326
SWIDTH 614 0
DWIDTH 20 0
BBX 15 26 2 -8
BITMAP
0080
E7F0
EFFC
FC3C
F81E
F00E
F00E
E006
E006
E006
E006
E006
E006
E006
E006
E006
E006
E006
0000
01C0
03C0
03C0
01C0
01C0
0380
0300
ENDCHAR
STARTCHAR Ncaron
ENCODING 327
SWIDTH 778 0
DWIDTH 25 0
BBX 19 31 3 0
BITMAP
0E0E00
071C00
03B800
01F800
00F000
006000
000000
8000E0
C000E0
E000E0
F000E0
F800E0
FC00E0
FC00E0
FE00E0
EF00E0
E780E0
E3C0E0
E1E0E0
E0F0E0
E070E0
E078E0
E03CE0
E01EE0
E00FE0
E007E0
E003E0
E003E0
E001E0
E000E0
E00060
ENDCHAR
STARTCHAR ncaron
ENCODING 328
SWIDTH 614 0
DWIDTH 20 0
BBX 15 25 2 0
BITMAP
1C38
0E70
07E0
03C0
01C0
0000
0000
0080
E7F0
EFFC
FC3C
F81E
F00E
F00E
E006
E006
E006
E006
E006
E006
E006
E006
E006
E006
E006
ENDCHAR
STARTCHAR napostrophe
ENCODING 329
SWIDTH 636 0
DWIDTH 20 0
BBX 19 25 -1 0
BITMAP
380000
700000
700000
600000
E00000
000000
000000
000800
0E7F00
0FFF80
0FC3C0
0F01E0
0F00E0
0E00E0
0E00E0
0E00E0
0E00E0
0E00E0
0E00E0
0E00E0
0E00E0
0E00E0
0E00E0
0E00E0
0E00E0
ENDCHAR
STARTCHAR Eng
ENCODING 330
SWIDTH 778 0
DWIDTH 25 0
BBX 19 32 3 -8
BITMAP
8000E0
C000E0
E000E0
F000E0
F800E0
F800E0
FC00E0
FE00E0
EF00E0
E780E0
E3C0E0
E1C0E0
E0E0E0
E0F0E0
E078E0
E03CE0
E01EE0
E00EE0
E007E0
E007E0
E003E0
E001E0
E000E0
E000E0
0000E0
0000E0
0001E0
0001C0
0003C0
01FF80
01FF00
00FC00
ENDCHAR
STARTCHAR eng
ENCODING 331
SWIDTH 613 0
DWIDTH 20 0
BBX 15 25 2 -7
BITMAP
0080
E7F0
EFFC
FC3C
F81E
F00E
F00E
E00E
E006
E006
E006
E006
E006
E006
E006
E006
E006
E006
0006
0006
000E
000E
003E
007C
0078
ENDCHAR
STARTCHAR Omacron
ENCODING 332
SWIDTH 856 0
DWIDTH 27 0
BBX 25 29 1 0
BITMAP
01FFC000
01FFC000
01FFC000
00000000
00000000
007F0000
01FFE000
07FFF000
0F80F800
1E003C00
3C001E00
38000E00
78000700
70000700
70000780
70000380
F0000380
F0000380
F0000380
70000380
70000700
70000700
38000F00
3C001E00
1E003C00
0F007C00
07FFF800
03FFE000
00FF8000
ENDCHAR
STARTCHAR omacron
ENCODING 333
SWIDTH 644 0
DWIDTH 21 0
BBX 18 23 1 0
BITMAP
0FFC00
0FFC00
0FFC00
000000
000000
004000
07FC00
1FFE00
3E1F00
3C0780
780380
7001C0
6001C0
E001C0
E001C0
E001C0
7001C0
7001C0
780380
3C0780
1F1F00
0FFE00
07F800
ENDCHAR
STARTCHAR Obreve
ENCODING 334
SWIDTH 856 0
DWIDTH 27 0
BBX 25 31 1 0
BITMAP
01C0C000
01C0C000
00C1C000
00F3C000
007F8000
001E0000
00000000
007F0000
01FFE000
07FFF000
0F80F800
1E003C00
3C001E00
38000E00
78000700
70000700
70000780
70000380
F0000380
F0000380
F0000380
70000380
70000700
70000700
38000F00
3C001E00
1E003C00
0F007C00
07FFF800
03FFE000
00FF8000
ENDCHAR
STARTCHAR obreve
ENCODING 335
SWIDTH 644 0
DWIDTH 21 0
BBX 18 25 1 0
BITMAP
0C0E00
0E0E00
0E1C00
07FC00
03F800
000000
000000
004000
07FC00
1FFE00
3E1F00
3C0780
780380
7001C0
6001C0
E001C0
E001C0
E001C0
7001C0
7001C0
780380
3C0780
1F1F00
0FFE00
07F800
ENDCHAR
STARTCHAR Ohungarumlaut
ENCODING 336
SWIDTH 856 0
DWIDTH 27 0
BBX 25 31 1 0
BITMAP
003CE000
0038E000
0039C000
0071C000
00718000
00638000
00000000
007F0000
01FFE000
07FFF000
0F80F800
1E003C00
3C001E00
38000E00
78000700
70000700
70000780
70000380
F0000380
F0000380
F0000380
70000380
70000700
70000700
38000F00
3C001E00
1E003C00
0F007C00
07FFF800
03FFE000
00FF8000
ENDCHAR
STARTCHAR ohungarumlaut
ENCODING 337
SWIDTH 644 0
DWIDTH 21 0
BBX 18 25 1 0
BITMAP
01CF00
03CE00
038E00
039C00
031C00
000000
000000
004000
07FC00
1FFE00
3E1F00
3C0780
780380
7001C0
6001C0
E001C0
E001C0
E001C0
7001C0
7001C0
780380
3C0780
1F1F00
0FFE00
07F800
ENDCHAR
STARTCHAR OE
ENCODING 338
SWIDTH 975 0
DWIDTH 31 0
BBX 27 24 2 0
BITMAP
007FFFE0
07FFFFE0
0FFFFFE0
1F070000
3C070000
78070000
70070000
F0070000
E0070000
E0070000
E0070000
E007FFE0
E007FFE0
E0070000
E0070000
E0070000
E0070000
F0070000
78070000
7C070000
3E070000
1FFFFFE0
07FFFFE0
01FFFFE0
ENDCHAR
STARTCHAR oe
ENCODING 339
SWIDTH 1075 0
DWIDTH 34 0
BBX 32 18 1 0
BITMAP
00400080
07FC0FF0
1FFE3FF8
3E1F7C3C
3C07F00E
7803E00F
7001E007
7001C007
E001FFFF
E001FFFF
E001FFFF
7001C000
7001E000
7803E000
3C07F006
1F3F7E3E
0FFE3FFE
07F80FF8
ENDCHAR
STARTCHAR Racute
ENCODING 340
SWIDTH 636 0
DWIDTH 20 0
BBX 16 31 3 0
BITMAP
01C0
01C0
0380
0380
0300
0700
0000
FF80
FFF0
FFF8
E03C
E01E
E00E
E00E
E00E
E00E
E00E
E01C
FFFC
FFF8
FFE0
E3C0
E1E0
E0E0
E0F0
E078
E038
E03C
E01E
E00E
E00F
ENDCHAR
STARTCHAR racute
ENCODING 341
SWIDTH 392 0
DWIDTH 13 0
BBX 10 25 2 0
BITMAP
0780
0700
0700
0E00
0E00
0000
0000
0180
E7C0
EFC0
FC00
F800
F000
F000
E000
E000
E000
E000
E000
E000
E000
E000
E000
E000
E000
ENDCHAR
STARTCHAR uni0156
ENCODING 342
SWIDTH 636 0
DWIDTH 20 0
BBX 16 32 3 -8
BITMAP
FF80
FFF0
FFF8
E03C
E01E
E00E
E00E
E00E
E00E
E00E
E01C
FFFC
FFF8
FFE0
E3C0
E1E0
E0E0
E0F0
E078
E038
E03C
E01E
E00E
E00F
0000
0380
03C0
03C0
01C0
0180
0300
0600
ENDCHAR
STARTCHAR uni0157
ENCODING 343
SWIDTH 393 0
DWIDTH 13 0
BBX 11 27 1 -9
BITMAP
0040
73E0
77E0
7E00
7C00
7800
7800
7000
7000
7000
7000
7000
7000
7000
7000
7000
7000
7000
0000
3000
7800
7800
7800
3000
7000
E000
4000
ENDCHAR
STARTCHAR Rcaron
ENCODING 344
SWIDTH 636 0
DWIDTH 20 0
BBX 16 31 3 0
BITMAP
7870
38E0
1DC0
0FC0
0780
0300
0000
FF80
FFF0
FFF8
E03C
E01E
E00E
E00E
E00E
E00E
E00E
E01C
FFFC
FFF8
FFE0
E3C0
E1E0
E0E0
E0F0
E078
E038
E03C
E01E
E00E
E00F
ENDCHAR
STARTCHAR rcaron
ENCODING 345
SWIDTH 392 0
DWIDTH 13 0
BBX 10 25 2 0
BITMAP
E1C0
7380
3F00
1E00
0E00
0000
0000
0080
E7C0
EFC0
FC00
F800
F000
F000
E000
E000
E000
E000
E000
E000
E000
E000
E000
E000
E000
ENDCHAR
STARTCHAR Sacute
ENCODING 346
SWIDTH 558 0
DWIDTH 18 0
BBX 16 31 1 0
BITMAP
00F0
00E0
00E0
01C0
01C0
0180
0000
07E0
1FF8
3FFC
3C1E
780C
7000
7000
7800
3800
3E00
1F80
0FE0
03F8
00FC
003E
001E
000E
000F
600E
E00E
F01E
7EFC
3FF8
0FF0
ENDCHAR
STARTCHAR sacute
ENCODING 347
SWIDTH 448 0
DWIDTH 14 0
BBX 12 25 1 0
BITMAP
01C0
03C0
0380
0300
0700
0000
0000
0700
1FC0
3FE0
7060
7000
7000
7000
3C00
3F00
0FC0
03E0
00F0
0070
4070
E070
F0F0
7FE0
1FC0
ENDCHAR
STARTCHAR Scircumflex
ENCODING 348
SWIDTH 558 0
DWIDTH 18 0
BBX 16 31 1 0
BITMAP
0180
03C0
03E0
0770
0E38
1C1C
0000
07E0
1FF8
3FFC
3C1E
780C
7000
7000
7800
3800
3E00
1F80
0FE0
03F8
00FC
003E
001E
000E
000F
600E
E00E
F01E
7EFC
3FF8
0FF0
ENDCHAR
STARTCHAR scircumflex
ENCODING 349
SWIDTH 448 0
DWIDTH 14 0
BBX 12 25 1 0
BITMAP
0700
0F80
1DC0
39C0
70E0
0000
0000
0700
1FC0
3FE0
7060
7000
7000
7000
3C00
3F00
0FC0
03E0
00F0
0070
4070
E070
F0F0
7FE0
1FC0
ENDCHAR
STARTCHAR Scedilla
ENCODING 350
SWIDTH 558 0
DWIDTH 18 0
BBX 16 32 1 -8
BITMAP
07E0
1FF8
3FFC
3C1E
780C
7000
7000
7800
3800
3E00
1F80
0FE0
03F8
00FC
003E
001E
000E
000F
600E
E00E
F01E
7EFC
3FF8
0FF0
0380
0300
03E0
0070
0070
04F0
0FE0
07C0
ENDCHAR
STARTCHAR scedilla
ENCODING 351
SWIDTH 448 0
DWIDTH 14 0
BBX 12 26 1 -8
BITMAP
0700
1FC0
3FE0
7060
7000
7000
7000
3C00
3F00
0FC0
03E0
00F0
0070
4070
E070
F0F0
7FE0
1FC0
0E00
0C00
0F80
01C0
01C0
13C0
3F80
1F00
ENDCHAR
STARTCHAR Scaron
ENCODING 352
SWIDTH 558 0
DWIDTH 18 0
BBX 16 31 1 0
BITMAP
1C1C
0E38
0770
03E0
01C0
01C0
0000
07E0
1FF8
3FFC
3C1E
780C
7000
7000
7800
3800
3E00
1F80
0FE0
03F8
00FC
003E
001E
000E
000F
600E
E00E
F01E
7EFC
3FF8
0FF0
ENDCHAR
STARTCHAR scaron
ENCODING 353
SWIDTH 448 0
DWIDTH 14 0
BBX 12 25 1 0
BITMAP
70E0
39C0
1DC0
0F80
0700
0000
0000
0700
1FC0
3FE0
7060
7000
7000
7000
3C00
3F00
0FC0
03E0
00F0
0070
4070
E070
F0F0
7FE0
1FC0
ENDCHAR
STARTCHAR Tcaron
ENCODING 356
SWIDTH 561 0
DWIDTH 18 0
BBX 18 31 0 0
BITMAP
0E1C00
0E3C00
073800
03F000
01E000
00C000
000000
FFFFC0
FFFFC0
FFFFC0
01C000
01C000
01C000
01C000
01C000
01C000
01C000
01C000
01C000
01C000
01C000
01C000
01C000
01C000
01C000
01C000
01C000
01C000
01C000
01C000
01C000
ENDCHAR
STARTCHAR tcaron
ENCODING 357
SWIDTH 425 0
DWIDTH 14 0
BBX 14 25 0 0
BITMAP
001C
001C
0C18
0C38
0C38
0C00
0C00
0C00
FFF0
FFF0
0C00
0C00
0C00
0C00
0C00
0C00
0C00
0C00
0C00
0C00
0C00
0E00
0F18
07F8
03F8
ENDCHAR
STARTCHAR Tbar
ENCODING 358
SWIDTH 591 0
DWIDTH 19 0
BBX 17 24 1 0
BITMAP
FFFF80
FFFF80
FFFF80
01C000
01C000
01C000
01C000
01C000
01C000
01C000
3FFE00
3FFE00
3FFE00
01C000
01C000
01C000
01C000
01C000
01C000
01C000
01C000
01C000
01C000
01C000
ENDCHAR
STARTCHAR tbar
ENCODING 359
SWIDTH 430 0
DWIDTH 14 0
BBX 12 23 1 0
BITMAP
1C00
1C00
1C00
1C00
1C00
1C00
FFF0
FFF0
1C00
1C00
1C00
1C00
FFF0
FFF0
1C00
1C00
1C00
1C00
1C00
1C00
1E30
0FF0
07F0
ENDCHAR
STARTCHAR Utilde
ENCODING 360
SWIDTH 703 0
DWIDTH 23 0
BBX 17 29 3 0
BITMAP
0F8C00
1FFC00
38F800
000000
000000
E00380
E00380
E00380
E00380
E00380
E00380
E00380
E00380
E00380
E00380
E00380
E00380
E00380
E00380
E00380
E00380
E00380
E00380
E00700
F00700
780F00
7FFE00
3FFC00
0FF800
ENDCHAR
STARTCHAR utilde
ENCODING 361
SWIDTH 592 0
DWIDTH 19 0
BBX 15 24 2 0
BITMAP
0E10
3FF8
3FF8
30F0
0000
0000
0000
E00E
E00E
E00E
E00E
E00E
E00E
E00E
E00E
E00E
E00E
E00E
E00E
F01C
701C
7C7C
3FF8
1FE0
ENDCHAR
STARTCHAR Umacron
ENCODING 362
SWIDTH 703 0
DWIDTH 23 0
BBX 17 29 3 0
BITMAP
1FFC00
1FFC00
1FFC00
000000
000000
E00380
E00380
E00380
E00380
E00380
E00380
E00380
E00380
E00380
E00380
E00380
E00380
E00380
E00380
E00380
E00380
E00380
E00380
E00700
F00700
780F00
7FFE00
3FFC00
0FF800
ENDCHAR
STARTCHAR umacron
ENCODING 363
SWIDTH 592 0
DWIDTH 19 0
BBX 15 23 2 0
BITMAP
1FF0
1FF0
1FF0
0000
0000
0000
E00E
E00E
E00E
E00E
E00E
E00E
E00E
E00E
E00E
E00E
E00E
E00E
F01C
701C
7C7C
3FF8
1FE0
ENDCHAR
STARTCHAR Ubreve
ENCODING 364
SWIDTH 703 0
DWIDTH 23 0
BBX 17 31 3 0
BITMAP
181C00
181C00
1C1800
0E7800
0FF000
03E000
000000
E00380
E00380
E00380
E00380
E00380
E00380
E00380
E00380
E00380
E00380
E00380
E00380
E00380
E00380
E00380
E00380
E00380
E00380
E00700
F00700
780F00
7FFE00
3FFC00
0FF800
ENDCHAR
STARTCHAR ubreve
ENCODING 365
SWIDTH 592 0
DWIDTH 19 0
BBX 15 25 2 0
BITMAP
3838
3838
1C70
1FF0
0FE0
0000
0000
0000
E00E
E00E
E00E
E00E
E00E
E00E
E00E
E00E
E00E
E00E
E00E
E00E
F01C
701C
7C7C
3FF8
1FE0
ENDCHAR
STARTCHAR Uring
ENCODING 366
SWIDTH 703 0
DWIDTH 23 0
BBX 17 32 3 0
BITMAP
03C000
07E000
063000
063000
063000
07E000
03C000
000000
E00380
E00380
E00380
E00380
E00380
E00380
E00380
E00380
E00380
E00380
E00380
E00380
E00380
E00380
E00380
E00380
E00380
E00380
E00700
F00700
780F00
7FFE00
3FFC00
0FF800
ENDCHAR
STARTCHAR uring
ENCODING 367
SWIDTH 592 0
DWIDTH 19 0
BBX 15 26 2 0
BITMAP
0380
07C0
0C60
0C60
0C60
0FE0
07C0
0000
0000
E00E
E00E
E00E
E00E
E00E
E00E
E00E
E00E
E00E
E00E
E00E
E00E
F01C
701C
7C7C
3FF8
1FE0
ENDCHAR
STARTCHAR Uhungarumlaut
ENCODING 368
SWIDTH 703 0
DWIDTH 23 0
BBX 17 31 3 0
BITMAP
079E00
079C00
071C00
073800
0E3800
0E3000
000000
E00380
E00380
E00380
E00380
E00380
E00380
E00380
E00380
E00380
E00380
E00380
E00380
E00380
E00380
E00380
E00380
E00380
E00380
E00700
F00700
780F00
7FFE00
3FFC00
0FF800
ENDCHAR
STARTCHAR uhungarumlaut
ENCODING 369
SWIDTH 592 0
DWIDTH 19 0
BBX 15 25 2 0
BITMAP
0F3C
0E38
0E38
0C70
1C70
0000
0000
0000
E00E
E00E
E00E
E00E
E00E
E00E
E00E
E00E
E00E
E00E
E00E
E00E
F01C
701C
7C7C
3FF8
1FE0
ENDCHAR
STARTCHAR Uogonek
ENCODING 370
SWIDTH 703 0
DWIDTH 23 0
BBX 17 32 3 -8
BITMAP
E00380
E00380
E00380
E00380
E00380
E00380
E00380
E00380
E00380
E00380
E00380
E00380
E00380
E00380
E00380
E00380
E00380
E00380
E00700
F00700
780F00
7FFE00
3FFC00
0FF800
00E000
018000
038000
030000
030000
03E000
03F000
01F000
ENDCHAR
STARTCHAR uogonek
ENCODING 371
SWIDTH 592 0
DWIDTH 19 0
BBX 15 25 2 -8
BITMAP
E00E
E00E
E00E
E00E
E00E
E00E
E00E
E00E
E00E
E00E
E00E
E00E
F01C
701C
7C7C
3FF8
0FE0
0180
0300
0600
0E00
0E00
0F40
07C0
07E0
ENDCHAR
STARTCHAR Wcircumflex
ENCODING 372
SWIDTH 1024 0
DWIDTH 33 0
BBX 32 31 0 0
BITMAP
00018000
0001C000
0003E000
00077000
000E3800
001C1C00
00000000
F0008007
70018007
7001C007
7801C00E
3803E00E
3803E00E
3C07601C
1C07701C
1C06701C
0E0E3038
0E0E3838
0E0C3838
071C1C70
071C1C70
07181C70
03B80EE0
03B80EE0
03F00EC0
01F007C0
01F007C0
01E00380
00E00380
00E00380
00C00100
ENDCHAR
STARTCHAR wcircumflex
ENCODING 373
SWIDTH 834 0
DWIDTH 27 0
BBX 25 25 1 0
BITMAP
001C0000
003E0000
00770000
00E70000
01C38000
00000000
00000000
00000000
E01C0380
E01C0380
E03C0700
703E0700
70360700
70760600
30670E00
38630E00
38E38C00
18C39C00
1DC19C00
1DC1D800
0D81F800
0F80F800
0F00F000
07007000
07007000
ENDCHAR
STARTCHAR Ycircumflex
ENCODING 374
SWIDTH 633 0
DWIDTH 20 0
BBX 19 31 1 0
BITMAP
00C000
01E000
03F000
073800
073C00
0E1C00
000000
E001E0
E001C0
7003C0
700380
380700
3C0700
1C0E00
1E0E00
0E1C00
0F1C00
073800
03B800
03F000
01F000
01E000
00E000
00E000
00E000
00E000
00E000
00E000
00E000
00E000
00E000
ENDCHAR
STARTCHAR ycircumflex
ENCODING 375
SWIDTH 548 0
DWIDTH 18 0
BBX 16 32 1 -7
BITMAP
0180
03C0
07E0
0E70
1C38
0000
0000
0000
E007
E00E
700E
700E
781C
381C
381C
1C38
1C38
0E70
0E70
0F70
07E0
07E0
03E0
03C0
01C0
0180
0380
0380
0700
5F00
7E00
FC00
ENDCHAR
STARTCHAR Ydieresis
ENCODING 376
SWIDTH 633 0
DWIDTH 20 0
BBX 19 30 1 0
BITMAP
021000
073C00
0F3C00
071800
000000
000000
E001E0
E001C0
7003C0
700380
380700
3C0700
1C0E00
1E0E00
0E1C00
0F1C00
073800
03B800
03F000
01F000
01E000
00E000
00E000
00E000
00E000
00E000
00E000
00E000
00E000
00E000
ENDCHAR
STARTCHAR Zacute
ENCODING 377
SWIDTH 613 0
DWIDTH 20 0
BBX 18 31 1 0
BITMAP
007800
007000
007000
00E000
00E000
00C000
000000
7FFF80
7FFF80
7FFF80
000700
000F00
001E00
001C00
003C00
007800
007000
00F000
01E000
01C000
038000
078000
070000
0E0000
1E0000
1C0000
380000
780000
FFFFC0
FFFFC0
FFFFC0
ENDCHAR
STARTCHAR zacute
ENCODING 378
SWIDTH 504 0
DWIDTH 16 0
BBX 14 25 1 0
BITMAP
01E0
01C0
0380
0380
0300
0000
0000
0000
7FFC
7FFC
0038
0070
00E0
00E0
01C0
0380
0700
0F00
0E00
1C00
3800
7800
7000
FFFC
FFFC
ENDCHAR
STARTCHAR Zdotaccent
ENCODING 379
SWIDTH 613 0
DWIDTH 20 0
BBX 18 30 1 0
BITMAP
00C000
01E000
01E000
01E000
000000
000000
7FFF80
7FFF80
7FFF80
000700
000F00
001E00
001C00
003C00
007800
007000
00F000
01E000
01C000
038000
078000
070000
0E0000
1E0000
1C0000
380000
780000
FFFFC0
FFFFC0
FFFFC0
ENDCHAR
STARTCHAR zdotaccent
ENCODING 380
SWIDTH 504 0
DWIDTH 16 0
BBX 14 24 1 0
BITMAP
0300
0780
0780
0380
0000
0000
0000
7FFC
7FFC
0038
0070
00E0
00E0
01C0
0380
0700
0F00
0E00
1C00
3800
7800
7000
FFFC
FFFC
ENDCHAR
STARTCHAR Zcaron
ENCODING 381
SWIDTH 613 0
DWIDTH 20 0
BBX 18 31 1 0
BITMAP
0E1C00
0F3C00
073800
03F000
01E000
00C000
000000
7FFF80
7FFF80
7FFF80
000700
000F00
001E00
001C00
003C00
007800
007000
00F000
01E000
01C000
038000
078000
070000
0E0000
1E0000
1C0000
380000
780000
FFFFC0
FFFFC0
FFFFC0
ENDCHAR
STARTCHAR zcaron
ENCODING 382
SWIDTH 504 0
DWIDTH 16 0
BBX 14 25 1 0
BITMAP
3870
1CE0
0FC0
0780
0380
0000
0000
0000
7FFC
7FFC
0038
0070
00E0
00E0
01C0
0380
0700
0F00
0E00
1C00
3800
7800
7000
FFFC
FFFC
ENDCHAR
STARTCHAR uni0218
ENCODING 536
SWIDTH 558 0
DWIDTH 18 0
BBX 16 33 1 -9
BITMAP
07E0
1FF8
3FFC
3C1E
780C
7000
7000
7800
3800
3E00
1F80
0FE0
03F8
00FC
003E
001E
000E
000F
600E
E00E
F01E
7EFC
3FF8
0FF0
0000
0180
03C0
03C0
03C0
01C0
0380
0700
0200
ENDCHAR
STARTCHAR uni0219
ENCODING 537
SWIDTH 448 0
DWIDTH 14 0
BBX 12 27 1 -9
BITMAP
0700
1FC0
3FE0
7060
7000
7000
7000
3C00
3F00
0FC0
03E0
00F0
0070
4070
E070
F0F0
7FE0
1FC0
0000
0000
0700
0F00
0700
0300
0600
0E00
0800
ENDCHAR
STARTCHAR uni021A
ENCODING 538
SWIDTH 561 0
DWIDTH 18 0
BBX 18 32 0 -8
BITMAP
FFFFC0
FFFFC0
FFFFC0
01C000
01C000
01C000
01C000
01C000
01C000
01C000
01C000
01C000
01C000
01C000
01C000
01C000
01C000
01C000
01C000
01C000
01C000
01C000
01C000
01C000
000000
01C000
01E000
01E000
00E000
00C000
01C000
030000
ENDCHAR
STARTCHAR uni021B
ENCODING 539
SWIDTH 422 0
DWIDTH 14 0
BBX 13 32 0 -9
BITMAP
0C00
0C00
0C00
0C00
0C00
0C00
FFF0
FFF0
0C00
0C00
0C00
0C00
0C00
0C00
0C00
0C00
0C00
0C00
0C00
0E00
0F18
07F8
03F8
0000
0000
01C0
03E0
01E0
00C0
01C0
0380
0300
ENDCHAR
STARTCHAR uni0237
ENCODING 567
SWIDTH 265 0
DWIDTH 8 0
BBX 8 24 -2 -7
BITMAP
07
07
07
07
07
07
07
07
07
07
07
07
07
07
07
07
07
07
07
07
07
9E
FE
FC
ENDCHAR
STARTCHAR circumflex
ENCODING 710
SWIDTH 575 0
DWIDTH 18 0
BBX 10 5 2 20
BITMAP
1C00
3E00
7700
7380
E3C0
ENDCHAR
STARTCHAR caron
ENCODING 711
SWIDTH 549 0
DWIDTH 18 0
BBX 10 5 2 20
BITMAP
E3C0
7380
7700
3E00
1C00
ENDCHAR
STARTCHAR breve
ENCODING 728
SWIDTH 443 0
DWIDTH 14 0
BBX 11 5 1 20
BITMAP
E060
E0E0
70E0
7FC0
1F80
ENDCHAR
STARTCHAR dotaccent
ENCODING 729
SWIDTH 300 0
DWIDTH 10 0
BBX 4 4 1 20
BITMAP
70
F0
F0
70
ENDCHAR
STARTCHAR ring
ENCODING 730
SWIDTH 378 0
DWIDTH 12 0
BBX 8 7 1 19
BITMAP
3C
7E
C6
C3
E6
7E
38
ENDCHAR
STARTCHAR ogonek
ENCODING 731
SWIDTH 387 0
DWIDTH 12 0
BBX 7 8 1 -8
BITMAP
1C
30
60
E0
E0
F4
7C
3E
ENDCHAR
STARTCHAR tilde
ENCODING 732
SWIDTH 539 0
DWIDTH 17 0
BBX 11 4 2 21
BITMAP
3040
FCE0
FFC0
C7C0
ENDCHAR
STARTCHAR hungarumlaut
ENCODING 733
SWIDTH 513 0
DWIDTH 16 0
BBX 10 5 2 20
BITMAP
73C0
7380
E380
E300
C700
ENDCHAR
STARTCHAR uni0394
ENCODING 916
SWIDTH 733 0
DWIDTH 23 0
BBX 22 24 1 0
BITMAP
007000
007000
007800
00F800
00DC00
01CC00
018E00
038E00
038700
070700
070380
0E0380
0E0180
0C01C0
1C01C0
1C00E0
3800E0
380070
700070
700038
E00038
FFFFFC
FFFFFC
FFFFFC
ENDCHAR
STARTCHAR uni03A9
ENCODING 937
SWIDTH 865 0
DWIDTH 28 0
BBX 24 24 2 0
BITMAP
00FE00
03FFC0
0FFFE0
1F01F0
3E0078
38003C
78001E
70000E
F0000E
E0000F
E00007
E00007
E00007
E0000F
E0000E
F0000E
70001E
78001C
3C003C
1E0078
0F00F0
FFC3FF
FFC3FF
FFC3FF
ENDCHAR
STARTCHAR uni03BC
ENCODING 956
SWIDTH 616 0
DWIDTH 20 0
BBX 15 24 2 -7
BITMAP
E00E
E00E
E00E
E00E
E00E
E00E
E00E
E00E
E00E
E00E
E00E
E00E
F00E
F01E
FC7E
FFF6
EFE6
E000
E000
E000
E000
E000
E000
E000
ENDCHAR
STARTCHAR pi
ENCODING 960
SWIDTH 620 0
DWIDTH 20 0
BBX 18 17 1 0
BITMAP
FFFFC0
FFFFC0
1C0E00
1C0E00
1C0E00
1C0E00
1C0E00
1C0E00
1C0E00
1C0E00
1C0E00
1C0E00
1C0E00
1C0E00
1C0E00
1C0E00
1C0E00
ENDCHAR
STARTCHAR uni0401
ENCODING 1025
SWIDTH 605 0
DWIDTH 19 0
BBX 15 30 3 0
BITMAP
0820
1C70
1EF0
1C70
0000
0000
FFFE
FFFE
FFFE
E000
E000
E000
E000
E000
E000
E000
E000
FFFC
FFFC
E000
E000
E000
E000
E000
E000
E000
E000
FFFE
FFFE
FFFE
ENDCHAR
STARTCHAR uni0410
ENCODING 1040
SWIDTH 671 0
DWIDTH 21 0
BBX 20 24 1 0
BITMAP
006000
006000
00E000
00F000
01F000
01F800
01B800
03B800
039C00
071C00
070E00
0F0E00
0E0E00
0E0700
1C0700
1FFF80
3FFF80
3FFF80
3801C0
7001C0
7001E0
F000E0
E000E0
E00070
ENDCHAR
STARTCHAR uni0411
ENCODING 1041
SWIDTH 645 0
DWIDTH 21 0
BBX 16 24 3 0
BITMAP
FFFE
FFFE
FFFE
E000
E000
E000
E000
E000
E000
FFC0
FFF8
FFFC
E01E
E00F
E007
E007
E007
E007
E007
E00F
E01E
FFFE
FFFC
FFF0
ENDCHAR
STARTCHAR uni0412
ENCODING 1042
SWIDTH 669 0
DWIDTH 21 0
BBX 17 24 3 0
BITMAP
FFE000
FFF800
FFFC00
E01E00
E00E00
E00F00
E00700
E00F00
E00E00
E01E00
FFFC00
FFFC00
FFFE00
E00F00
E00700
E00380
E00380
E00380
E00380
E00780
E00F00
FFFE00
FFFC00
FFF800
ENDCHAR
STARTCHAR uni0413
ENCODING 1043
SWIDTH 541 0
DWIDTH 17 0
BBX 14 24 3 0
BITMAP
FFFC
FFFC
FFFC
E000
E000
E000
E000
E000
E000
E000
E000
E000
E000
E000
E000
E000
E000
E000
E000
E000
E000
E000
E000
E000
ENDCHAR
STARTCHAR uni0414
ENCODING 1044
SWIDTH 756 0
DWIDTH 24 0
BBX 22 29 1 -5
BITMAP
003000
003000
003800
007800
007800
00FC00
00FC00
00CE00
01CE00
01CE00
018700
038700
038700
070380
070380
0703C0
0E01C0
0E01C0
0E00E0
1C00E0
1C00E0
FFFFFC
FFFFFC
FFFFFC
E0001C
E0001C
E0001C
E0001C
E0001C
ENDCHAR
STARTCHAR uni0415
ENCODING 1045
SWIDTH 605 0
DWIDTH 19 0
BBX 15 24 3 0
BITMAP
FFFE
FFFE
FFFE
E000
E000
E000
E000
E000
E000
E000
E000
FFFC
FFFC
E000
E000
E000
E000
E000
E000
E000
E000
FFFE
FFFE
FFFE
ENDCHAR
STARTCHAR uni0416
ENCODING 1046
SWIDTH 990 0
DWIDTH 32 0
BBX 31 24 0 0
BITMAP
7C03803C
7E03807C
3F0380FC
070381E0
038381C0
03838380
01C38380
01C38700
00E38700
00E38F00
00739E00
007FFE00
003FFC00
007FFE00
00F38E00
00E38F00
01E38700
01C38380
038383C0
078381C0
0F0381E0
7F0380FE
7E03807E
FC03803E
ENDCHAR
STARTCHAR uni0417
ENCODING 1047
SWIDTH 595 0
DWIDTH 19 0
BBX 16 24 1 0
BITMAP
0FE0
3FF8
7FFC
701E
000E
0007
0007
0007
000E
001E
0FFC
0FF0
0FFC
003E
000F
0007
0007
0007
0007
0007
E00F
FC7E
7FFC
1FF0
ENDCHAR
STARTCHAR uni0418
ENCODING 1048
SWIDTH 778 0
DWIDTH 25 0
BBX 19 24 3 0
BITMAP
E00060
E000E0
E000E0
E001E0
E003E0
E007E0
E00EE0
E00EE0
E01CE0
E038E0
E070E0
E0F0E0
E0E0E0
E1C0E0
E380E0
E700E0
E700E0
EE00E0
FC00E0
F800E0
F800E0
F000E0
E000E0
C000E0
ENDCHAR
STARTCHAR uni0419
ENCODING 1049
SWIDTH 778 0
DWIDTH 25 0
BBX 19 30 3 0
BITMAP
000200
0C0700
0F1E00
07FC00
01F800
000000
E00060
E000E0
E000E0
E001E0
E003E0
E007E0
E00EE0
E00EE0
E01CE0
E038E0
E070E0
E0F0E0
E0E0E0
E1C0E0
E380E0
E700E0
E700E0
EE00E0
FC00E0
F800E0
F800E0
F000E0
E000E0
C000E0
ENDCHAR
STARTCHAR uni041A
ENCODING 1050
SWIDTH 661 0
DWIDTH 21 0
BBX 18 24 3 0
BITMAP
E003C0
E00780
E00F00
E01E00
E01C00
E03800
E07000
E0F000
E1E000
E3C000
E78000
E70000
EF8000
FFC000
F9E000
F8E000
F07000
E07800
E03C00
E01E00
E00F00
E00700
E00380
E003C0
ENDCHAR
STARTCHAR uni041B
ENCODING 1051
SWIDTH 636 0
DWIDTH 20 0
BBX 19 24 1 0
BITMAP
00C000
00C000
00E000
01E000
01E000
01F000
03F000
03B800
073800
073800
071C00
0E1C00
0E1E00
0E0E00
1C0E00
1C0700
380700
380700
380380
700380
7003C0
F001C0
E001C0
E001E0
ENDCHAR
STARTCHAR uni041C
ENCODING 1052
SWIDTH 916 0
DWIDTH 29 0
BBX 23 24 3 0
BITMAP
800002
C00006
E0000E
E0000E
F0001E
F8003E
FC003E
FC007E
EE00FE
EF00EE
E701CE
E383CE
E3C38E
E1C70E
E0EF0E
E0FE0E
E07C0E
E03C0E
E0380E
E0100E
E0000E
E0000E
E0000E
E0000E
ENDCHAR
STARTCHAR uni041D
ENCODING 1053
SWIDTH 756 0
DWIDTH 24 0
BBX 18 24 3 0
BITMAP
E001C0
E001C0
E001C0
E001C0
E001C0
E001C0
E001C0
E001C0
E001C0
E001C0
FFFFC0
FFFFC0
FFFFC0
E001C0
E001C0
E001C0
E001C0
E001C0
E001C0
E001C0
E001C0
E001C0
E001C0
E001C0
ENDCHAR
STARTCHAR uni041E
ENCODING 1054
SWIDTH 856 0
DWIDTH 27 0
BBX 25 24 1 0
BITMAP
007F0000
01FFE000
07FFF000
0F80F800
1E003C00
3C001E00
38000E00
78000700
70000700
70000780
70000380
F0000380
F0000380
F0000380
70000380
70000700
70000700
38000F00
3C001E00
1E003C00
0F007C00
07FFF800
03FFE000
00FF8000
ENDCHAR
STARTCHAR uni041F
ENCODING 1055
SWIDTH 756 0
DWIDTH 24 0
BBX 18 24 3 0
BITMAP
FFFFC0
FFFFC0
FFFFC0
E001C0
E001C0
E001C0
E001C0
E001C0
E001C0
E001C0
E001C0
E001C0
E001C0
E001C0
E001C0
E001C0
E001C0
E001C0
E001C0
E001C0
E001C0
E001C0
E001C0
E001C0
ENDCHAR
STARTCHAR uni0420
ENCODING 1056
SWIDTH 603 0
DWIDTH 19 0
BBX 15 24 3 0
BITMAP
FF80
FFF0
FFF8
E03C
E01E
E00E
E00E
E00E
E00E
E00E
E01E
E03C
FFFC
FFF0
FFC0
E000
E000
E000
E000
E000
E000
E000
E000
E000
ENDCHAR
STARTCHAR uni0421
ENCODING 1057
SWIDTH 778 0
DWIDTH 25 0
BBX 23 24 1 0
BITMAP
007F00
01FFE0
07FFF0
0F80FC
1E003C
3C001E
380008
780000
700000
700000
700000
700000
F00000
700000
700000
700000
700000
380000
3C000C
1E001E
0F007C
07FFF8
03FFE0
00FF80
ENDCHAR
STARTCHAR uni0422
ENCODING 1058
SWIDTH 561 0
DWIDTH 18 0
BBX 18 24 0 0
BITMAP
FFFFC0
FFFFC0
FFFFC0
01C000
01C000
01C000
01C000
01C000
01C000
01C000
01C000
01C000
01C000
01C000
01C000
01C000
01C000
01C000
01C000
01C000
01C000
01C000
01C000
01C000
ENDCHAR
STARTCHAR uni0423
ENCODING 1059
SWIDTH 598 0
DWIDTH 19 0
BBX 18 24 1 0
BITMAP
E001C0
F003C0
700380
780780
380700
3C0700
1C0E00
1E0E00
0E1C00
0E1C00
073800
073800
03F800
03F000
01F000
01E000
00E000
01C000
03C000
038000
078000
5F0000
FE0000
FC0000
ENDCHAR
STARTCHAR uni0424
ENCODING 1060
SWIDTH 910 0
DWIDTH 29 0
BBX 27 29 1 -3
BITMAP
000E0000
000E0000
000E0000
00FFE000
03FFF800
0FEEFE00
1F0E1F00
3C0E0780
380E0380
780E03C0
700E01C0
700E01C0
F00E00E0
E00E00E0
E00E00E0
E00E00E0
700E01C0
700E01C0
700E01C0
380E0380
3C0E0780
1E0E0F00
0F8E7E00
07FFFC00
01FFF000
003F8000
000E0000
000E0000
000E0000
ENDCHAR
STARTCHAR uni0425
ENCODING 1061
SWIDTH 621 0
DWIDTH 20 0
BBX 18 24 1 0
BITMAP
E001C0
F003C0
700780
380700
3C0F00
1C0E00
0E1C00
0F3C00
073800
03F000
03F000
01E000
01E000
03F000
03F000
073800
0F3C00
0E1C00
1C0E00
3C0F00
380700
700780
F003C0
E001C0
ENDCHAR
STARTCHAR uni0426
ENCODING 1062
SWIDTH 706 0
DWIDTH 23 0
BBX 18 29 3 -5
BITMAP
E00700
E00700
E00700
E00700
E00700
E00700
E00700
E00700
E00700
E00700
E00700
E00700
E00700
E00700
E00700
E00700
E00700
E00700
E00700
E00700
E00700
FFFFC0
FFFFC0
FFFFC0
0001C0
0001C0
0001C0
0001C0
0001C0
ENDCHAR
STARTCHAR uni0427
ENCODING 1063
SWIDTH 677 0
DWIDTH 22 0
BBX 17 24 2 0
BITMAP
E00380
E00380
E00380
E00380
E00380
E00380
E00380
E00380
E00380
E00380
E00380
E00380
F00380
781F80
7FFF80
1FFF80
03C380
000380
000380
000380
000380
000380
000380
000380
ENDCHAR
STARTCHAR uni0428
ENCODING 1064
SWIDTH 1086 0
DWIDTH 35 0
BBX 29 24 3 0
BITMAP
E0070038
E0070038
E0070038
E0070038
E0070038
E0070038
E0070038
E0070038
E0070038
E0070038
E0070038
E0070038
E0070038
E0070038
E0070038
E0070038
E0070038
E0070038
E0070038
E0070038
E0070038
FFFFFFF8
FFFFFFF8
FFFFFFF8
ENDCHAR
STARTCHAR uni0429
ENCODING 1065
SWIDTH 1107 0
DWIDTH 35 0
BBX 31 29 3 -5
BITMAP
E0070038
E0070038
E0070038
E0070038
E0070038
E0070038
E0070038
E0070038
E0070038
E0070038
E0070038
E0070038
E0070038
E0070038
E0070038
E0070038
E0070038
E0070038
E0070038
E0070038
E0070038
FFFFFFFE
FFFFFFFE
FFFFFFFE
0000000E
0000000E
0000000E
0000000E
0000000E
ENDCHAR
STARTCHAR uni042A
ENCODING 1066
SWIDTH 746 0
DWIDTH 24 0
BBX 23 24 0 0
BITMAP
FF8000
FF8000
FF8000
038000
038000
038000
038000
038000
038700
03FFE0
03FFF8
03F078
03803C
03801C
03800E
03800E
03800E
03800E
03801E
03801C
03807C
03FFF8
03FFF0
03FFC0
ENDCHAR
STARTCHAR uni042B
ENCODING 1067
SWIDTH 899 0
DWIDTH 29 0
BBX 23 24 3 0
BITMAP
E0000E
E0000E
E0000E
E0000E
E0000E
E0000E
E0000E
E0000E
E0000E
FFF00E
FFFC0E
FFFE0E
E01E0E
E0070E
E0070E
E0070E
E0078E
E0070E
E0070E
E00F0E
E01E0E
FFFE0E
FFFC0E
FFF00E
ENDCHAR
STARTCHAR uni042C
ENCODING 1068
SWIDTH 641 0
DWIDTH 21 0
BBX 16 24 3 0
BITMAP
E000
E000
E000
E000
E000
E000
E000
E000
E3C0
FFF8
FFFC
FC3E
E00F
E007
E007
E007
E007
E007
E007
E00F
E01E
FFFE
FFF8
FFE0
ENDCHAR
STARTCHAR uni042D
ENCODING 1069
SWIDTH 783 0
DWIDTH 25 0
BBX 23 24 1 0
BITMAP
01FC00
0FFF00
1FFFC0
7E03E0
7800F0
F00078
200038
00003C
00001C
00001C
00001C
07FFFE
07FFFE
07FFFC
00001C
00001C
00001C
000038
600078
F000F0
7C01E0
3FFFC0
0FFF80
03FE00
ENDCHAR
STARTCHAR uni042E
ENCODING 1070
SWIDTH 1104 0
DWIDTH 35 0
BBX 31 24 3 0
BITMAP
E001FC00
E007FF80
E01FFFC0
E03E03E0
E07800F0
E0F00078
E0E00038
E1E0001C
E1C0001C
E1C0001E
E1C0000E
FF80000E
FF80000E
FFC0000E
E1C0001E
E1C0001C
E1C0001C
E1E0003C
E0F00078
E07800F0
E07C01F0
E03FDFE0
E00FFF80
E003FE00
ENDCHAR
STARTCHAR uni042F
ENCODING 1071
SWIDTH 642 0
DWIDTH 21 0
BBX 16 24 2 0
BITMAP
03FF
1FFF
3FFF
7C07
7007
E007
E007
E007
E007
E007
F007
7807
7FFF
3FFF
0FFF
0707
0E07
1E07
1C07
3C07
7807
7007
F007
E007
ENDCHAR
STARTCHAR uni0430
ENCODING 1072
SWIDTH 663 0
DWIDTH 21 0
BBX 18 17 1 0
BITMAP
07F9C0
1FFDC0
3E1FC0
3807C0
7003C0
7001C0
E001C0
E001C0
E001C0
E001C0
6001C0
7001C0
7003C0
3807C0
3E1FC0
0FFDC0
07F9C0
ENDCHAR
STARTCHAR uni0431
ENCODING 1073
SWIDTH 666 0
DWIDTH 21 0
BBX 18 25 2 0
BITMAP
000700
001F00
03FF00
0FFC00
1FC000
3E0000
780000
700000
E1F000
E7FC00
EFFE00
FC0F00
F80780
F00380
F001C0
E001C0
E001C0
E001C0
F001C0
700380
780380
380780
3E1F00
1FFE00
07F800
ENDCHAR
STARTCHAR uni0432
ENCODING 1074
SWIDTH 618 0
DWIDTH 20 0
BBX 16 25 2 0
BITMAP
0380
0FF8
1FFC
3C1E
780E
700E
E00E
E00E
E00E
E00E
E03C
FFF8
FFFC
E07E
E00F
E007
E007
E003
E003
F007
7007
780F
3E3E
1FFC
0FF8
ENDCHAR
STARTCHAR uni0433
ENCODING 1075
SWIDTH 493 0
DWIDTH 16 0
BBX 14 18 1 0
BITMAP
0100
7FE0
7FF0
7078
0038
0038
0078
00F0
07E0
1F80
3C00
7000
F000
E000
F008
F878
7FFC
3FF0
ENDCHAR
STARTCHAR uni0434
ENCODING 1076
SWIDTH 665 0
DWIDTH 21 0
BBX 18 24 1 -7
BITMAP
07F9C0
1FFDC0
3E0FC0
3807C0
7003C0
7001C0
E001C0
E001C0
E001C0
E001C0
7001C0
7003C0
7803C0
3C0FC0
1FFFC0
0FFDC0
03F1C0
0001C0
000180
000380
000780
3E3F00
3FFE00
1FF800
ENDCHAR
STARTCHAR uni0435
ENCODING 1077
SWIDTH 609 0
DWIDTH 19 0
BBX 17 18 1 0
BITMAP
004000
07F800
1FFE00
3E1E00
380700
700780
700380
600380
FFFF80
FFFF80
FFFF80
700000
700000
780000
380300
3F1F80
1FFF00
07FC00
ENDCHAR
STARTCHAR uni0436
ENCODING 1078
SWIDTH 828 0
DWIDTH 27 0
BBX 26 17 0 0
BITMAP
7C0E0F80
7E0E1F80
0F0E1C00
070E3C00
070E3800
038E3800
038E7000
01FFF000
00FFC000
01FFE000
03CE7000
038E7800
070E3800
0F0E1C00
1E0E1E00
7C0E0FC0
F80E07C0
ENDCHAR
STARTCHAR uni0437
ENCODING 1079
SWIDTH 543 0
DWIDTH 17 0
BBX 15 25 1 -7
BITMAP
0100
1FE0
7FF8
F87C
601C
001C
000E
000C
001C
001C
0078
1FF0
1FE0
1FF8
003C
001E
000E
000E
000E
000E
001E
C01C
FCFC
7FF8
1FE0
ENDCHAR
STARTCHAR uni0438
ENCODING 1080
SWIDTH 630 0
DWIDTH 20 0
BBX 16 17 2 0
BITMAP
E007
E007
E007
E007
E007
E007
E007
E007
E007
E007
E007
E00F
E00F
701F
7C7F
3FF7
1FE7
ENDCHAR
STARTCHAR uni0439
ENCODING 1081
SWIDTH 630 0
DWIDTH 20 0
BBX 16 23 2 0
BITMAP
0008
181C
1FF8
0FF0
03C0
0000
E007
E007
E007
E007
E007
E007
E007
E007
E007
E007
E007
E00F
E00F
701F
7C7F
3FF7
1FE7
ENDCHAR
STARTCHAR uni043A
ENCODING 1082
SWIDTH 539 0
DWIDTH 17 0
BBX 15 24 2 0
BITMAP
E000
E000
E000
E000
E000
E000
E000
E03E
E078
E0F0
E1E0
E3C0
E780
EF00
FE00
FF00
F780
E3C0
E1E0
E0F0
E070
E078
E03C
E01E
ENDCHAR
STARTCHAR uni043B
ENCODING 1083
SWIDTH 561 0
DWIDTH 18 0
BBX 16 17 1 0
BITMAP
0180
0180
03C0
03C0
07E0
07E0
0E70
0E70
1C38
1C38
381C
381C
700E
700E
700E
E007
E007
ENDCHAR
STARTCHAR uni043C
ENCODING 1084
SWIDTH 768 0
DWIDTH 25 0
BBX 20 17 2 0
BITMAP
E00030
E00070
F00070
F800F0
FC01F0
FC03F0
EE03F0
E70770
E78E70
E39C70
E1DC70
E0F870
E0F070
E06070
E00070
E00070
E00070
ENDCHAR
STARTCHAR uni043D
ENCODING 1085
SWIDTH 608 0
DWIDTH 19 0
BBX 15 17 2 0
BITMAP
E00E
E00E
E00E
E00E
E00E
E00E
E00E
FFFE
FFFE
FFFE
E00E
E00E
E00E
E00E
E00E
E00E
E00E
ENDCHAR
STARTCHAR uni043E
ENCODING 1086
SWIDTH 644 0
DWIDTH 21 0
BBX 18 18 1 0
BITMAP
004000
07FC00
1FFE00
3E1F00
3C0780
780380
7001C0
6001C0
E001C0
E001C0
E001C0
7001C0
7001C0
780380
3C0780
1F1F00
0FFE00
07F800
ENDCHAR
STARTCHAR uni043F
ENCODING 1087
SWIDTH 614 0
DWIDTH 20 0
BBX 15 18 2 0
BITMAP
0080
E7F0
EFFC
FC3C
F81E
F00E
F00E
E006
E006
E006
E006
E006
E006
E006
E006
E006
E006
E006
ENDCHAR
STARTCHAR uni0440
ENCODING 1088
SWIDTH 668 0
DWIDTH 21 0
BBX 18 25 2 -7
BITMAP
004000
E3F800
EFFE00
FE1F00
F80780
F00380
F001C0
E001C0
E001C0
E001C0
E001C0
E001C0
F003C0
F00380
F80780
FE1F00
EFFE00
E3F800
E00000
E00000
E00000
E00000
E00000
E00000
E00000
ENDCHAR
STARTCHAR uni0441
ENCODING 1089
SWIDTH 598 0
DWIDTH 19 0
BBX 17 18 1 0
BITMAP
004000
07FC00
1FFE00
3E0F00
3C0780
780300
700000
600000
E00000
E00000
E00000
700000
700000
780300
3C0780
1F1F00
0FFE00
07F800
ENDCHAR
STARTCHAR uni0442
ENCODING 1090
SWIDTH 970 0
DWIDTH 31 0
BBX 27 18 2 0
BITMAP
01800800
E7F0FF00
EFF9FF80
FC3FC3C0
F81F01C0
F00F01E0
F00E00E0
E00E00E0
E00E00E0
E00E00E0
E00E00E0
E00E00E0
E00E00E0
E00E00E0
E00E00E0
E00E00E0
E00E00E0
E00E00E0
ENDCHAR
STARTCHAR uni0443
ENCODING 1091
SWIDTH 548 0
DWIDTH 18 0
BBX 16 24 1 -7
BITMAP
E007
E00E
700E
700E
781C
381C
383C
1C38
1C38
0E70
0E70
0F70
07E0
07E0
03E0
03C0
01C0
0180
0380
0380
0700
5F00
7E00
FC00
ENDCHAR
STARTCHAR uni0444
ENCODING 1092
SWIDTH 816 0
DWIDTH 26 0
BBX 24 31 1 -7
BITMAP
001800
001800
001800
001800
001800
001800
003C00
03FFC0
0FFFF0
1E1878
38181C
70180E
70180E
601807
E01807
E01807
E01807
601807
70180E
70180E
3C181C
1F18F8
0FFFF0
03FFC0
001800
001800
001800
001800
001800
001800
001800
ENDCHAR
STARTCHAR uni0445
ENCODING 1093
SWIDTH 502 0
DWIDTH 16 0
BBX 14 17 1 0
BITMAP
F01C
7038
3878
3C70
1CE0
0FE0
0FC0
0780
0780
0F80
0FC0
1CE0
3CF0
3870
7038
F03C
E01C
ENDCHAR
STARTCHAR uni0446
ENCODING 1094
SWIDTH 670 0
DWIDTH 21 0
BBX 19 23 2 -6
BITMAP
E00700
E00700
E00700
E00700
E00700
E00700
E00700
E00700
E00700
E00700
E00700
E00F00
E00F00
701F00
7C7F00
3FF7E0
1FE3E0
000060
000060
000060
000060
000060
000060
ENDCHAR
STARTCHAR uni0447
ENCODING 1095
SWIDTH 556 0
DWIDTH 18 0
BBX 14 17 1 0
BITMAP
E01C
E01C
E01C
E01C
E01C
E01C
E01C
F01C
781C
7FFC
3FFC
07DC
001C
001C
001C
001C
001C
ENDCHAR
STARTCHAR uni0448
ENCODING 1096
SWIDTH 963 0
DWIDTH 31 0
BBX 26 17 2 0
BITMAP
E00E00C0
E00E00C0
E00E00C0
E00E00C0
E00E00C0
E00E00C0
E00E00C0
E00E00C0
E00E00C0
E00E01C0
E00E01C0
E01E01C0
E01E01C0
703F03C0
7CFF8FC0
3FF3FEC0
1FE1FCC0
ENDCHAR
STARTCHAR uni0449
ENCODING 1097
SWIDTH 1004 0
DWIDTH 32 0
BBX 30 23 2 -6
BITMAP
E00E00C0
E00E00C0
E00E00C0
E00E00C0
E00E00C0
E00E00C0
E00E00C0
E00E00C0
E00E00C0
E00E01C0
E00E01C0
E01E01C0
E01E01C0
703F03C0
7CFF8FE0
3FF3FEFC
1FE1FC7C
0000001C
0000001C
0000001C
0000001C
0000001C
0000001C
ENDCHAR
STARTCHAR uni044A
ENCODING 1098
SWIDTH 641 0
DWIDTH 21 0
BBX 19 17 0 0
BITMAP
FF0000
FF0000
FF0000
071C00
07FF00
07FFC0
0783C0
0700E0
0700E0
0700E0
0700E0
0700E0
0700E0
0381E0
03C3C0
01FF80
00FF00
ENDCHAR
STARTCHAR uni044B
ENCODING 1099
SWIDTH 751 0
DWIDTH 24 0
BBX 20 17 2 0
BITMAP
E00070
E00070
E00070
E00070
E00070
E00070
FFE070
FFF870
E07C70
E01C70
E01C70
E00C70
E01C70
E01C70
E0F870
FFF870
FFE070
ENDCHAR
STARTCHAR uni044C
ENCODING 1100
SWIDTH 558 0
DWIDTH 18 0
BBX 15 17 2 0
BITMAP
E000
E000
E000
E380
FFF0
FFF8
F83C
E01C
E00C
E00E
E00E
E00E
701C
701C
7C7C
3FF8
1FE0
ENDCHAR
STARTCHAR uni044D
ENCODING 1101
SWIDTH 603 0
DWIDTH 19 0
BBX 17 18 1 0
BITMAP
008000
1FF000
3FFC00
7C3E00
F00F00
600700
000700
000380
03FF80
03FF80
03FF80
000380
000700
600700
F00F00
7C3E00
3FFC00
0FF000
ENDCHAR
STARTCHAR uni044E
ENCODING 1102
SWIDTH 839 0
DWIDTH 27 0
BBX 23 24 2 0
BITMAP
E00000
E00000
E00000
E00000
E00000
E00000
E00200
E03FE0
E07FF0
E0F078
E1E03C
E3C01E
E3800E
E3800E
FF8006
FF0006
FF8006
E3800E
E3800E
E3C01E
E1E03C
E0F8F8
E07FF0
E03FE0
ENDCHAR
STARTCHAR uni044F
ENCODING 1103
SWIDTH 550 0
DWIDTH 18 0
BBX 14 17 1 0
BITMAP
0FFC
3FFC
7E1C
701C
701C
701C
701C
781C
3FFC
1FFC
07DC
0E1C
1C1C
1C1C
381C
701C
F01C
ENDCHAR
STARTCHAR uni0451
ENCODING 1105
SWIDTH 609 0
DWIDTH 19 0
BBX 17 23 1 0
BITMAP
0F1C00
0F3C00
0F3C00
061C00
000000
004000
07F800
1FFE00
3E1E00
380700
700780
700380
600380
FFFF80
FFFF80
FFFF80
700000
700000
780000
380300
3F1F80
1FFF00
07FC00
ENDCHAR
STARTCHAR Wgrave
ENCODING 7808
SWIDTH 1024 0
DWIDTH 33 0
BBX 32 31 0 0
BITMAP
000F0000
00070000
00038000
00038000
00018000
0001C000
00000000
F0008007
70018007
7001C007
7801C00E
3803E00E
3803E00E
3C07601C
1C07701C
1C06701C
0E0E3038
0E0E3838
0E0C3838
071C1C70
071C1C70
07181C70
03B80EE0
03B80EE0
03F00EC0
01F007C0
01F007C0
01E00380
00E00380
00E00380
00C00100
ENDCHAR
STARTCHAR wgrave
ENCODING 7809
SWIDTH 834 0
DWIDTH 27 0
BBX 25 25 1 0
BITMAP
00700000
00780000
00380000
00180000
001C0000
00000000
00000000
00000000
E01C0380
E01C0380
E03C0700
703E0700
70360700
70760600
30670E00
38630E00
38E38C00
18C39C00
1DC19C00
1DC1D800
0D81F800
0F80F800
0F00F000
07007000
07007000
ENDCHAR
STARTCHAR Wacute
ENCODING 7810
SWIDTH 1024 0
DWIDTH 33 0
BBX 32 31 0 0
BITMAP
00007800
00007000
0000F000
0000E000
0000C000
0001C000
00000000
F0008007
70018007
7001C007
7801C00E
3803E00E
3803E00E
3C07601C
1C07701C
1C06701C
0E0E3038
0E0E3838
0E0C3838
071C1C70
071C1C70
07181C70
03B80EE0
03B80EE0
03F00EC0
01F007C0
01F007C0
01E00380
00E00380
00E00380
00C00100
ENDCHAR
STARTCHAR wacute
ENCODING 7811
SWIDTH 834 0
DWIDTH 27 0
BBX 25 25 1 0
BITMAP
00070000
00070000
000E0000
000E0000
001C0000
00000000
00000000
00000000
E01C0380
E01C0380
E03C0700
703E0700
70360700
70760600
30670E00
38630E00
38E38C00
18C39C00
1DC19C00
1DC1D800
0D81F800
0F80F800
0F00F000
07007000
07007000
ENDCHAR
STARTCHAR Wdieresis
ENCODING 7812
SWIDTH 1024 0
DWIDTH 33 0
BBX 32 30 0 0
BITMAP
00041000
000E7800
000E7800
000E3800
00000000
00000000
F0008007
70018007
7001C007
7801C00E
3803E00E
3803E00E
3C07601C
1C07701C
1C06701C
0E0E3038
0E0E3838
0E0C3838
071C1C70
071C1C70
07181C70
03B80EE0
03B80EE0
03F00EC0
01F007C0
01F007C0
01E00380
00E00380
00E00380
00C00100
ENDCHAR
STARTCHAR wdieresis
ENCODING 7813
SWIDTH 834 0
DWIDTH 27 0
BBX 25 24 1 0
BITMAP
00C38000
01E78000
01E7C000
01E38000
00000000
00000000
00000000
E01C0380
E01C0380
E03C0700
703E0700
70360700
70760600
30670E00
38630E00
38E38C00
18C39C00
1DC19C00
1DC1D800
0D81F800
0F80F800
0F00F000
07007000
07007000
ENDCHAR
STARTCHAR Ygrave
ENCODING 7922
SWIDTH 633 0
DWIDTH 20 0
BBX 19 31 1 0
BITMAP
078000
038000
03C000
01C000
00C000
00E000
000000
E001E0
E001C0
7003C0
700380
380700
3C0700
1C0E00
1E0E00
0E1C00
0F1C00
073800
03B800
03F000
01F000
01E000
00E000
00E000
00E000
00E000
00E000
00E000
00E000
00E000
00E000
ENDCHAR
STARTCHAR ygrave
ENCODING 7923
SWIDTH 548 0
DWIDTH 18 0
BBX 16 32 1 -7
BITMAP
0700
0700
0380
0380
0180
0000
0000
0000
E007
E00E
700E
700E
781C
381C
381C
1C38
1C38
0E70
0E70
0F70
07E0
07E0
03E0
03C0
01C0
0180
0380
0380
0700
5F00
7E00
FC00
ENDCHAR
STARTCHAR uni2009
ENCODING 8201
SWIDTH 78 0
DWIDTH 3 0
BBX 1 1 0 0
BITMAP
00
ENDCHAR
STARTCHAR endash
ENCODING 8211
SWIDTH 715 0
DWIDTH 23 0
BBX 19 2 2 8
BITMAP
FFFFE0
FFFFE0
ENDCHAR
STARTCHAR emdash
ENCODING 8212
SWIDTH 1034 0
DWIDTH 33 0
BBX 29 2 2 8
BITMAP
FFFFFFF8
FFFFFFF8
ENDCHAR
STARTCHAR quoteleft
ENCODING 8216
SWIDTH 234 0
DWIDTH 7 0
BBX 5 7 1 17
BITMAP
18
38
70
60
F0
F8
70
ENDCHAR
STARTCHAR quoteright
ENCODING 8217
SWIDTH 232 0
DWIDTH 7 0
BBX 4 7 2 17
BITMAP
70
F0
F0
70
60
E0
C0
ENDCHAR
STARTCHAR quotesinglbase
ENCODING 8218
SWIDTH 239 0
DWIDTH 8 0
BBX 5 7 1 -4
BITMAP
70
78
78
18
30
E0
40
ENDCHAR
STARTCHAR quotedblleft
ENCODING 8220
SWIDTH 472 0
DWIDTH 15 0
BBX 11 7 2 17
BITMAP
3020
7060
E0C0
C180
E1E0
F1E0
E0E0
ENDCHAR
STARTCHAR quotedblright
ENCODING 8221
SWIDTH 461 0
DWIDTH 15 0
BBX 12 7 2 17
BITMAP
70E0
F1E0
F0F0
7060
60E0
C1C0
8180
ENDCHAR
STARTCHAR quotedblbase
ENCODING 8222
SWIDTH 466 0
DWIDTH 15 0
BBX 12 7 1 -4
BITMAP
70F0
78F0
78F0
3030
3060
E0C0
C080
ENDCHAR
STARTCHAR dagger
ENCODING 8224
SWIDTH 477 0
DWIDTH 15 0
BBX 13 33 1 -6
BITMAP
0700
0700
0700
0700
0700
0700
0700
0700
0700
0700
0700
FFF8
FFF8
0700
0700
0700
0700
0700
0700
0700
0700
0700
0700
0700
0700
0700
0700
0700
0700
0700
0700
0700
0700
ENDCHAR
STARTCHAR daggerdbl
ENCODING 8225
SWIDTH 477 0
DWIDTH 15 0
BBX 13 33 1 -6
BITMAP
0700
0700
0700
0700
0700
0700
0700
0700
0700
FFF8
FFF8
FFF8
0700
0700
0700
0700
0700
0700
0700
0700
0700
FFF8
FFF8
0700
0700
0700
0700
0700
0700
0700
0700
0700
0700
ENDCHAR
STARTCHAR bullet
ENCODING 8226
SWIDTH 413 0
DWIDTH 13 0
BBX 9 8 2 7
BITMAP
3E00
7F00
7F00
FF80
FF80
7F80
7F00
3E00
ENDCHAR
STARTCHAR ellipsis
ENCODING 8230
SWIDTH 691 0
DWIDTH 22 0
BBX 18 4 2 -1
BITMAP
E1E1C0
F1E3C0
E1E1C0
400080
ENDCHAR
STARTCHAR perthousand
ENCODING 8240
SWIDTH 1292 0
DWIDTH 41 0
BBX 40 24 1 0
BITMAP
0F800E0000
3FC01C0000
78E01C0000
6070380000
E070700000
C030E00000
E030E00000
E071C00000
70E3800000
7FE7000000
1FC7000000
000E000000
001C000000
00387E01F0
0038FF07FC
0071C38F1E
00E381CE0E
01E301CC06
01C300CC07
038301CC06
070381CC06
0701C38E0E
0E01FF07FC
1C007E03F8
ENDCHAR
STARTCHAR guilsinglleft
ENCODING 8249
SWIDTH 326 0
DWIDTH 10 0
BBX 8 13 1 3
BITMAP
07
0E
1C
18
38
70
E0
70
30
38
1C
0E
0E
ENDCHAR
STARTCHAR guilsinglright
ENCODING 8250
SWIDTH 326 0
DWIDTH 10 0
BBX 7 13 2 3
BITMAP
E0
60
70
38
1C
1C
0E
0E
1C
38
30
70
E0
ENDCHAR
STARTCHAR fraction
ENCODING 8260
SWIDTH 188 0
DWIDTH 6 0
BBX 20 24 -7 0
BITMAP
000030
000070
0000E0
0000C0
000180
000380
000700
000E00
000C00
001800
003800
007000
006000
00C000
01C000
038000
070000
060000
0C0000
1C0000
380000
700000
600000
E00000
ENDCHAR
STARTCHAR uni2070
ENCODING 8304
SWIDTH 370 0
DWIDTH 12 0
BBX 10 13 1 16
BITMAP
3E00
7F80
6380
E1C0
C0C0
C0C0
C0C0
C0C0
C0C0
E1C0
7380
7F00
1E00
ENDCHAR
STARTCHAR uni2074
ENCODING 8308
SWIDTH 365 0
DWIDTH 12 0
BBX 9 13 1 16
BITMAP
0300
0700
0700
0F00
1B00
3300
7300
E300
FF80
FF80
0300
0300
0300
ENDCHAR
STARTCHAR uni2075
ENCODING 8309
SWIDTH 348 0
DWIDTH 11 0
BBX 9 13 1 16
BITMAP
7F00
7F00
6000
6000
6000
7E00
7700
0380
0180
0180
4380
FF00
3E00
ENDCHAR
STARTCHAR uni2076
ENCODING 8310
SWIDTH 347 0
DWIDTH 11 0
BBX 9 13 1 16
BITMAP
1F00
7F80
6000
E000
C000
FF00
F780
E180
C180
C180
E380
7F00
3E00
ENDCHAR
STARTCHAR uni2077
ENCODING 8311
SWIDTH 286 0
DWIDTH 9 0
BBX 9 13 0 16
BITMAP
FF80
FF80
0300
0300
0600
0600
0E00
0C00
1C00
1800
1800
3000
3000
ENDCHAR
STARTCHAR uni2078
ENCODING 8312
SWIDTH 384 0
DWIDTH 12 0
BBX 10 13 1 16
BITMAP
3F00
7F80
6180
6180
6180
3F00
3F00
6180
E0C0
E0C0
61C0
7F80
1F00
ENDCHAR
STARTCHAR uni2079
ENCODING 8313
SWIDTH 377 0
DWIDTH 12 0
BBX 10 13 1 16
BITMAP
3E00
7F00
E180
C180
C1C0
E1C0
7FC0
3EC0
0180
0180
4380
7F00
3C00
ENDCHAR
STARTCHAR uni2080
ENCODING 8320
SWIDTH 370 0
DWIDTH 12 0
BBX 10 13 1 -5
BITMAP
1E00
7F00
7380
E1C0
C0C0
C0C0
C0C0
C0C0
C0C0
E1C0
6380
7F80
3E00
ENDCHAR
STARTCHAR uni2081
ENCODING 8321
SWIDTH 263 0
DWIDTH 8 0
BBX 5 13 1 -5
BITMAP
08
38
78
F8
D8
18
18
18
18
18
18
18
18
ENDCHAR
STARTCHAR uni2082
ENCODING 8322
SWIDTH 344 0
DWIDTH 11 0
BBX 9 13 1 -5
BITMAP
3C00
FF00
6300
0300
0300
0300
0700
0E00
1C00
3800
7000
FF80
FF80
ENDCHAR
STARTCHAR uni2083
ENCODING 8323
SWIDTH 331 0
DWIDTH 11 0
BBX 8 13 1 -5
BITMAP
7C
FE
47
03
03
0E
3C
0F
03
03
83
FF
7C
ENDCHAR
STARTCHAR uni2084
ENCODING 8324
SWIDTH 365 0
DWIDTH 12 0
BBX 9 13 1 -5
BITMAP
0300
0300
0700
0F00
1B00
3B00
7300
6300
FF80
FF80
0300
0300
0300
ENDCHAR
STARTCHAR uni2085
ENCODING 8325
SWIDTH 348 0
DWIDTH 11 0
BBX 9 13 1 -5
BITMAP
7F00
7F00
6000
6000
6000
7E00
7F00
0380
0180
0180
4380
FF00
7E00
ENDCHAR
STARTCHAR uni2086
ENCODING 8326
SWIDTH 347 0
DWIDTH 11 0
BBX 9 13 1 -5
BITMAP
1F00
3F80
7000
E000
C000
DF00
FF80
E180
C180
C180
E180
7F00
3E00
ENDCHAR
STARTCHAR uni2087
ENCODING 8327
SWIDTH 286 0
DWIDTH 9 0
BBX 9 13 0 -5
BITMAP
FF80
FF80
0300
0300
0700
0600
0E00
0C00
0C00
1800
1800
3000
3000
ENDCHAR
STARTCHAR uni2088
ENCODING 8328
SWIDTH 384 0
DWIDTH 12 0
BBX 10 13 1 -5
BITMAP
1E00
7F80
6180
6180
6180
3F00
3F00
7180
60C0
E0C0
E1C0
7F80
3F00
ENDCHAR
STARTCHAR uni2089
ENCODING 8329
SWIDTH 377 0
DWIDTH 12 0
BBX 10 13 1 -5
BITMAP
1E00
7F00
6380
C180
C180
E1C0
73C0
3EC0
0180
0180
0380
7F00
7E00
ENDCHAR
STARTCHAR Euro
ENCODING 8364
SWIDTH 745 0
DWIDTH 24 0
BBX 21 24 1 0
BITMAP
001FC0
007FF8
01FFF8
03E018
078000
070000
0E0000
0E0000
1C0000
7FFFC0
FFFFC0
1C0000
1C0000
7FFF80
7FFF80
FFFF00
0E0000
0E0000
0F0000
078000
03C018
01F8F8
00FFF8
003FE0
ENDCHAR
STARTCHAR uni20BD
ENCODING 8381
SWIDTH 616 0
DWIDTH 20 0
BBX 19 24 0 0
BITMAP
1FF800
1FFF00
1FFF80
1C07C0
1C01C0
1C01C0
1C00E0
1C00E0
1C00E0
1C01E0
1C01C0
1C07C0
FFFF80
FFFF00
FFF800
1C0000
1C0000
FFFE00
FFFE00
FFFE00
1C0000
1C0000
1C0000
1C0000
ENDCHAR
STARTCHAR uni2116
ENCODING 8470
SWIDTH 1157 0
DWIDTH 37 0
BBX 33 24 3 0
BITMAP
8000E00000
C000E00000
E000E00000
F000E00000
F800E03000
FC00E0FE00
FC00E1FF00
FE00E38700
EF00E38380
E780E30380
E3C0E70380
E1E0E38380
E0F0E3C700
E070E1FF00
E078E0FE00
E03CE03000
E01EE00000
E00FE3FF00
E007E3FF00
E003E3FF00
E003E00000
E001E00000
E000E00000
E000600000
ENDCHAR
STARTCHAR trademark
ENCODING 8482
SWIDTH 816 0
DWIDTH 26 0
BBX 22 12 1 12
BITMAP
FFA000
FFB004
18300C
18381C
183C3C
183E3C
18376C
1833CC
18318C
18308C
18300C
18300C
ENDCHAR
STARTCHAR estimated
ENCODING 8494
SWIDTH 961 0
DWIDTH 31 0
BBX 28 25 2 -1
BITMAP
007FC000
01F9F800
07001C00
0C000700
18000380
38000380
780003C0
780003E0
F80003E0
F80003E0
F80003E0
F80003F0
FFFFFFF0
F8000000
F8000000
F8000000
F8000000
78000000
78000000
38000180
18000300
0E000E00
03803C00
00FFF000
00040000
ENDCHAR
STARTCHAR uni2150
ENCODING 8528
SWIDTH 847 0
DWIDTH 27 0
BBX 24 24 2 0
BITMAP
18001C
380018
780030
F80070
D800E0
1800C0
180180
180380
180700
180E00
180C00
1819FF
1839FF
007006
00E006
00C00C
01C00C
038018
070018
060030
0C0030
1C0070
380060
7000E0
ENDCHAR
STARTCHAR uni2151
ENCODING 8529
SWIDTH 859 0
DWIDTH 27 0
BBX 25 24 1 0
BITMAP
0C000E00
1C001C00
3C003800
FC003000
4C006000
0C00E000
0C01C000
0C018000
0C030000
0C070000
0C0E0000
0C1C3E00
0C187F00
0030E380
0070C180
00E0C180
01C0C180
0180E780
03807F80
07000180
0E000180
0C000300
18007F00
38007E00
ENDCHAR
STARTCHAR uni2153
ENCODING 8531
SWIDTH 832 0
DWIDTH 27 0
BBX 24 24 1 0
BITMAP
0C000E
1C001C
3C0038
FC0030
4C0060
0C00E0
0C01C0
0C0380
0C0300
0C0600
0C0E00
0C1C3C
0C18FE
003047
007003
00E003
01C00E
01803C
030007
070003
0E0003
0C0083
1800FF
38007E
ENDCHAR
STARTCHAR uni2154
ENCODING 8532
SWIDTH 836 0
DWIDTH 27 0
BBX 24 24 1 0
BITMAP
3E0007
FF000E
63000C
038018
038038
030070
070060
0E00C0
1C01C0
380380
700700
FF867C
FF8CFE
001C86
003807
007006
00601E
00E03C
01C00E
038007
030003
060007
0E01FE
1C00FC
ENDCHAR
STARTCHAR uni2155
ENCODING 8533
SWIDTH 834 0
DWIDTH 27 0
BBX 25 24 1 0
BITMAP
0C000C00
1C001C00
3C003800
FC007000
4C006000
0C00C000
0C01C000
0C038000
0C030000
0C060000
0C0E0000
0C1C7F00
0C387F00
00306000
00606000
00E06000
01C07E00
01807F00
03000380
07000180
0E000180
1C000300
1800FF00
30007E00
ENDCHAR
STARTCHAR uni2156
ENCODING 8534
SWIDTH 843 0
DWIDTH 27 0
BBX 25 24 1 0
BITMAP
3E000700
FF000E00
63000C00
03801800
03803800
03007000
07006000
0E00C000
1C01C000
38038000
70070000
FF867F00
FF8C7F00
001C6000
00386000
00706000
00607E00
00E07F00
01C00300
03800180
03000180
06008300
0E00FF00
1C007E00
ENDCHAR
STARTCHAR uni2157
ENCODING 8535
SWIDTH 827 0
DWIDTH 26 0
BBX 24 24 1 0
BITMAP
3C0006
FF000C
47001C
030038
030070
3E0060
3C00E0
0701C0
030380
030300
830600
FF0E7E
7E1C7E
0038C0
0030C0
0060C0
00E0FC
01C0FE
018003
030003
070003
0E0087
1C01FE
1800FC
ENDCHAR
STARTCHAR uni2158
ENCODING 8536
SWIDTH 877 0
DWIDTH 28 0
BBX 25 24 1 0
BITMAP
01000380
03000700
07000600
0F000C00
1F001C00
3B003800
33007000
63006000
FFC0C000
FFC1C000
03038000
03033F80
03063F80
000E3000
001C2000
00382000
00307F00
00607F80
00E02180
01C00180
01800180
03004180
07007F80
0E003F00
ENDCHAR
STARTCHAR uni2159
ENCODING 8537
SWIDTH 840 0
DWIDTH 27 0
BBX 24 24 1 0
BITMAP
0C000C
1C0018
3C0038
FC0070
4C0060
0C00C0
0C01C0
0C0380
0C0700
0C0600
0C0C00
0C1C7F
0C387F
007040
006040
00C0C0
01C0FE
0380FF
030043
060003
0E0003
1C0083
3800FF
30007C
ENDCHAR
STARTCHAR uni215A
ENCODING 8538
SWIDTH 855 0
DWIDTH 27 0
BBX 24 24 1 0
BITMAP
3F0006
7F000E
60001C
600018
600030
7E0070
7F00E0
0381C0
018180
018300
438700
FF0E3E
7E0C7F
0018E0
0039C0
007180
00E1BE
00C1FF
0181C3
038183
070183
0600C3
0C00FF
1C007E
ENDCHAR
STARTCHAR oneeighth
ENCODING 8539
SWIDTH 864 0
DWIDTH 28 0
BBX 25 24 1 0
BITMAP
0C000E00
1C001C00
3C001800
FC003000
4C007000
0C00E000
0C00C000
0C018000
0C038000
0C070000
0C0E0000
0C0C3E00
0C187F00
00386380
0070C180
00606180
00C07F00
01C03E00
03806380
0700C180
0600C180
0C00C180
1C007F80
38003F00
ENDCHAR
STARTCHAR threeeighths
ENCODING 8540
SWIDTH 863 0
DWIDTH 28 0
BBX 25 24 1 0
BITMAP
7C000600
FF000E00
47001C00
03001800
03003000
3E007000
3C00E000
0701C000
03018000
03030000
83070000
FF0E3E00
7E1C7F00
00186380
0038C180
00706180
00E07F00
00C03E00
01806380
0380C180
0700C180
0E00C180
0C007F80
1C003F00
ENDCHAR
STARTCHAR fiveeighths
ENCODING 8541
SWIDTH 861 0
DWIDTH 28 0
BBX 25 24 1 0
BITMAP
3F000600
7F000E00
60001C00
60003800
60003000
7E006000
7F00E000
0381C000
01818000
01830000
43870000
FF0E3E00
7E1C7F00
0018E380
0030C180
00706380
00E07F00
00C03E00
01806380
0380C180
0700C180
0E00C180
0C00FF80
18003F00
ENDCHAR
STARTCHAR seveneighths
ENCODING 8542
SWIDTH 813 0
DWIDTH 26 0
BBX 24 24 1 0
BITMAP
FF001C
FF0038
070070
060060
0600C0
0C01C0
0C0380
180700
180600
300C00
301C00
703878
6031FE
006186
00E186
01C186
0380FC
0300FC
0601CE
0E0387
1C0303
180387
3001FE
7000FC
ENDCHAR
STARTCHAR partialdiff
ENCODING 8706
SWIDTH 625 0
DWIDTH 20 0
BBX 17 25 1 0
BITMAP
018000
03E000
00F000
007800
001C00
000E00
000E00
000700
000300
03C380
0FF380
1FFD80
3C1D80
700F80
700780
600380
E00380
E00380
E00380
600700
700700
780E00
3C3E00
1FFC00
0FF000
ENDCHAR
STARTCHAR product
ENCODING 8719
SWIDTH 731 0
DWIDTH 23 0
BBX 21 27 1 -4
BITMAP
FFFFF8
FFFFF8
1C01C0
1C01C0
1C01C0
1C01C0
1C01C0
1C01C0
1C01C0
1C01C0
1C01C0
1C01C0
1C01C0
1C01C0
1C01C0
1C01C0
1C01C0
1C01C0
1C01C0
1C01C0
1C01C0
1C01C0
1C01C0
1C01C0
1C01C0
1C01C0
1C01C0
ENDCHAR
STARTCHAR summation
ENCODING 8721
SWIDTH 636 0
DWIDTH 20 0
BBX 18 30 1 -6
BITMAP
FFFFC0
FFFFC0
FFFFC0
700000
780000
380000
3C0000
1E0000
0E0000
0F0000
070000
078000
038000
01C000
01E000
01E000
01C000
038000
078000
070000
0F0000
0E0000
1E0000
1C0000
380000
780000
700000
FFFFC0
FFFFC0
FFFFC0
ENDCHAR
STARTCHAR minus
ENCODING 8722
SWIDTH 604 0
DWIDTH 19 0
BBX 15 3 2 9
BITMAP
FFFE
FFFE
FFFE
ENDCHAR
STARTCHAR radical
ENCODING 8730
SWIDTH 670 0
DWIDTH 21 0
BBX 22 30 0 -4
BITMAP
00001C
000038
000038
000038
000070
000070
000070
0000E0
0000E0
0000E0
0001C0
0001C0
0001C0
FC0380
FC0380
FE0300
0E0700
0E0700
070600
070E00
070E00
039C00
039C00
03DC00
01F800
01F800
00F800
00F000
00F000
007000
ENDCHAR
STARTCHAR infinity
ENCODING 8734
SWIDTH 908 0
DWIDTH 29 0
BBX 25 12 2 6
BITMAP
0F003800
3F80FE00
7BE3EF00
E0F78380
C07F0180
C03E0180
C01C0180
C03E0180
E0770380
71E3C700
7FC1FF00
1F007C00
ENDCHAR
STARTCHAR integral
ENCODING 8747
SWIDTH 422 0
DWIDTH 14 0
BBX 15 33 -1 -7
BITMAP
007E
00FE
01E0
01C0
0380
0380
0380
0380
0380
0380
0380
0380
0380
0380
0380
0380
0380
0380
0380
0380
0380
0380
0380
0380
0380
0380
0380
0380
0380
0780
7F00
FE00
3800
ENDCHAR
STARTCHAR approxequal
ENCODING 8776
SWIDTH 659 0
DWIDTH 21 0
BBX 17 11 2 6
BITMAP
3F0100
7FC780
F1FF00
407E00
000000
000000
1F0100
7FC380
FBFF00
60FE00
001000
ENDCHAR
STARTCHAR notequal
ENCODING 8800
SWIDTH 604 0
DWIDTH 19 0
BBX 15 15 2 3
BITMAP
0030
0070
0060
FFFE
FFFE
FFFE
0180
0380
0300
FFFE
FFFE
FFFE
0E00
0C00
1C00
ENDCHAR
STARTCHAR lessequal
ENCODING 8804
SWIDTH 592 0
DWIDTH 19 0
BBX 14 18 2 2
BITMAP
000C
003C
01FC
07F0
1F80
7E00
F000
FC00
3F80
07E0
01F8
007C
001C
0000
0000
0000
FFFC
FFFC
ENDCHAR
STARTCHAR greaterequal
ENCODING 8805
SWIDTH 592 0
DWIDTH 19 0
BBX 15 19 2 2
BITMAP
8000
E000
F800
7F00
1FC0
03F0
00FC
001E
007E
03F0
0FC0
7F00
FC00
F000
8000
0000
0000
FFFE
FFFE
ENDCHAR
STARTCHAR lozenge
ENCODING 9674
SWIDTH 700 0
DWIDTH 22 0
BBX 20 26 1 -1
BITMAP
007000
00F800
01F800
03DC00
039E00
070E00
0F0700
0E0780
1C0380
3C01C0
3801E0
7000E0
F00070
F00070
7000E0
3801E0
3C01C0
1C0380
0E0780
0F0700
070E00
039E00
03DC00
01F800
00F800
00F000
ENDCHAR
STARTCHAR .notdef
ENCODING -1
SWIDTH 130 0
DWIDTH 4 0
BBX 1 1 0 0
BITMAP
00
ENDCHAR
STARTCHAR uni00A40301
ENCODING -1
SWIDTH 554 0
DWIDTH 18 0
BBX 17 31 1 0
BITMAP
000780
000700
000E00
000E00
000C00
001C00
000000
001C00
001C00
001C00
001C00
001C00
001C00
001C00
001C00
001C00
001C00
001C00
001C00
001C00
001C00
001C00
001C00
001C00
001C00
001C00
403800
E07800
F9F000
7FF000
3FC000
ENDCHAR
STARTCHAR Iacute_J.loclNLD
ENCODING -1
SWIDTH 832 0
DWIDTH 27 0
BBX 23 31 3 0
BITMAP
3C000E
38001E
70001C
70001C
600038
E00038
000000
E00038
E00038
E00038
E00038
E00038
E00038
E00038
E00038
E00038
E00038
E00038
E00038
E00038
E00038
E00038
E00038
E00038
E00038
E00078
E00070
E1C0F0
E3F3E0
E1FFC0
E07F80
ENDCHAR
STARTCHAR J.loclNLD
ENCODING -1
SWIDTH 554 0
DWIDTH 18 0
BBX 16 31 1 0
BITMAP
0007
0007
000E
000E
001C
001C
0000
001C
001C
001C
001C
001C
001C
001C
001C
001C
001C
001C
001C
001C
001C
001C
001C
001C
001C
001C
4038
E078
F9F0
7FF0
3FC0
ENDCHAR
STARTCHAR i.loclTRK
ENCODING -1
SWIDTH 241 0
DWIDTH 8 0
BBX 4 24 2 0
BITMAP
60
F0
F0
F0
00
00
00
E0
E0
E0
E0
E0
E0
E0
E0
E0
E0
E0
E0
E0
E0
E0
E0
E0
ENDCHAR
STARTCHAR uni006A0301
ENCODING -1
SWIDTH 265 0
DWIDTH 8 0
BBX 10 32 -2 -7
BITMAP
01C0
01C0
0380
0380
0300
0000
0000
0000
0700
0700
0700
0700
0700
0700
0700
0700
0700
0700
0700
0700
0700
0700
0700
0700
0700
0700
0700
0700
0700
9E00
FE00
FC00
ENDCHAR
STARTCHAR iacute_j.loclNLD
ENCODING -1
SWIDTH 506 0
DWIDTH 16 0
BBX 14 32 2 -7
BITMAP
3C1C
381C
3838
7038
6070
0000
0000
0000
E070
E070
E070
E070
E070
E070
E070
E070
E070
E070
E070
E070
E070
E070
E070
E070
E070
0070
0070
0070
00E0
09E0
0FC0
1F80
ENDCHAR
STARTCHAR j.loclNLD
ENCODING -1
SWIDTH 265 0
DWIDTH 8 0
BBX 9 31 -2 -7
BITMAP
0700
0780
0F80
0700
0000
0000
0000
0700
0700
0700
0700
0700
0700
0700
0700
0700
0700
0700
0700
0700
0700
0700
0700
0700
0700
0700
0700
0700
9E00
FE00
FC00
ENDCHAR
STARTCHAR a.ss02
ENCODING -1
SWIDTH 572 0
DWIDTH 18 0
BBX 15 19 1 -1
BITMAP
0300
1FF0
7FF8
783C
201E
000E
000E
001E
1FFE
7FFE
780E
E00E
E00E
E01E
E03E
78FE
7FFE
3FCE
0200
ENDCHAR
STARTCHAR aacute.ss02
ENCODING -1
SWIDTH 572 0
DWIDTH 18 0
BBX 15 26 1 -1
BITMAP
00E0
00E0
01C0
01C0
0180
0000
0000
0300
1FF0
7FF8
783C
201E
000E
000E
001E
1FFE
7FFE
780E
E00E
E00E
E01E
E03E
78FE
7FFE
3FCE
0200
ENDCHAR
STARTCHAR abreve.ss02
ENCODING -1
SWIDTH 572 0
DWIDTH 18 0
BBX 15 26 1 -1
BITMAP
3818
1838
1C38
0FF0
07E0
0000
0000
0300
1FF0
7FF8
783C
201E
000E
000E
001E
1FFE
7FFE
780E
E00E
E00E
E01E
E03E
78FE
7FFE
3FCE
0200
ENDCHAR
STARTCHAR acircumflex.ss02
ENCODING -1
SWIDTH 572 0
DWIDTH 18 0
BBX 15 26 1 -1
BITMAP
0380
03C0
07E0
0E70
1C38
0000
0000
0300
1FF0
7FF8
783C
201E
000E
000E
001E
1FFE
7FFE
780E
E00E
E00E
E01E
E03E
78FE
7FFE
3FCE
0200
ENDCHAR
STARTCHAR adieresis.ss02
ENCODING -1
SWIDTH 572 0
DWIDTH 18 0
BBX 15 25 1 -1
BITMAP
1C30
1E78
1E78
1C78
0000
0000
0300
1FF0
7FF8
783C
201E
000E
000E
001E
1FFE
7FFE
780E
E00E
E00E
E01E
E03E
78FE
7FFE
3FCE
0200
ENDCHAR
STARTCHAR agrave.ss02
ENCODING -1
SWIDTH 572 0
DWIDTH 18 0
BBX 15 26 1 -1
BITMAP
0F00
0700
0380
0380
0180
0000
0000
0300
1FF0
7FF8
783C
201E
000E
000E
001E
1FFE
7FFE
780E
E00E
E00E
E01E
E03E
78FE
7FFE
3FCE
0200
ENDCHAR
STARTCHAR amacron.ss02
ENCODING -1
SWIDTH 572 0
DWIDTH 18 0
BBX 15 24 1 -1
BITMAP
1FF8
1FF8
1FF8
0000
0000
0300
1FF0
7FF8
783C
201E
000E
000E
001E
1FFE
7FFE
780E
E00E
E00E
E01E
E03E
78FE
7FFE
3FCE
0200
ENDCHAR
STARTCHAR aogonek.ss02
ENCODING -1
SWIDTH 572 0
DWIDTH 18 0
BBX 15 26 1 -8
BITMAP
0300
1FF0
7FF8
783C
201E
000E
000E
001E
1FFE
7FFE
780E
E00E
E00E
E01E
E03E
78FE
7FFE
3FCE
021C
0038
0030
0070
0070
007A
007E
003E
ENDCHAR
STARTCHAR aring.ss02
ENCODING -1
SWIDTH 572 0
DWIDTH 18 0
BBX 15 27 1 -1
BITMAP
03C0
07E0
0C60
0C30
0E60
07E0
0380
0000
0300
1FF0
7FF8
783C
201E
000E
000E
001E
1FFE
7FFE
780E
E00E
E00E
E01E
E03E
78FE
7FFE
3FCE
0200
ENDCHAR
STARTCHAR atilde.ss02
ENCODING -1
SWIDTH 572 0
DWIDTH 18 0
BBX 15 25 1 -1
BITMAP
0F08
1FFC
3DF8
0070
0000
0000
0300
1FF0
7FF8
783C
201E
000E
000E
001E
1FFE
7FFE
780E
E00E
E00E
E01E
E03E
78FE
7FFE
3FCE
0200
ENDCHAR
STARTCHAR f_b
ENCODING -1
SWIDTH 1055 0
DWIDTH 34 0
BBX 31 25 1 0
BITMAP
00800000
07F38000
0FF38000
1E038000
1C038000
1C038000
1C038000
1C038000
FFE39FE0
FFE3BFF0
1C03F8F8
1C03E03C
1C03C01E
1C03800E
1C03800E
1C03800E
1C03800E
1C03800E
1C03800E
1C03800E
1C03C01E
1C03E03C
1C03F8F8
1C03BFF0
1C039FE0
ENDCHAR
STARTCHAR f_f
ENCODING -1
SWIDTH 758 0
DWIDTH 24 0
BBX 25 25 1 0
BITMAP
00600800
07FC7F80
0FFCFF00
0F0DE100
1C01C000
1C01C000
1C018000
1C018000
FFFFFE00
FFFFFE00
1C018000
1C018000
1C018000
1C018000
1C018000
1C018000
1C018000
1C018000
1C018000
1C018000
1C018000
1C018000
1C018000
1C018000
1C018000
ENDCHAR
STARTCHAR f_f_i
ENCODING -1
SWIDTH 1004 0
DWIDTH 32 0
BBX 29 25 1 0
BITMAP
00601800
07FC7F30
0FFCFF78
0F0DE078
1C01C038
1C01C000
1C018000
1C018000
FFFFFF38
FFFFFF38
1C018038
1C018038
1C018038
1C018038
1C018038
1C018038
1C018038
1C018038
1C018038
1C018038
1C018038
1C018038
1C018038
1C018038
1C018038
ENDCHAR
STARTCHAR f_f_j
ENCODING -1
SWIDTH 1004 0
DWIDTH 32 0
BBX 29 32 1 -7
BITMAP
00601800
07FC7F30
0FFCFF78
0F0DE078
1C01C038
1C01C000
1C018000
1C018000
FFFFFE38
FFFFFE38
1C018038
1C018038
1C018038
1C018038
1C018038
1C018038
1C018038
1C018038
1C018038
1C018038
1C018038
1C018038
1C018038
1C018038
1C018038
00000038
00000038
00000038
00000070
000004F0
000007E0
00000FC0
ENDCHAR
STARTCHAR f_h
ENCODING -1
SWIDTH 1001 0
DWIDTH 32 0
BBX 29 25 1 0
BITMAP
00800000
07F38000
0FF38000
1E038000
1C038000
1C038000
1C038000
1C038400
FFE3BFC0
FFE3FFE0
1C03F1F0
1C03C070
1C038078
1C038038
1C038038
1C038038
1C038038
1C038038
1C038038
1C038038
1C038038
1C038038
1C038038
1C038038
1C038038
ENDCHAR
STARTCHAR f_i
ENCODING -1
SWIDTH 635 0
DWIDTH 20 0
BBX 18 25 1 0
BITMAP
008000
07F380
0FF780
1E07C0
1C0380
1C0000
1C0000
1C0000
FFE380
FFE380
1C0380
1C0380
1C0380
1C0380
1C0380
1C0380
1C0380
1C0380
1C0380
1C0380
1C0380
1C0380
1C0380
1C0380
1C0380
ENDCHAR
STARTCHAR f_j
ENCODING -1
SWIDTH 635 0
DWIDTH 20 0
BBX 18 32 1 -7
BITMAP
008000
07F380
0FF780
1E07C0
1C0380
1C0000
1C0000
1C0000
FFE380
FFE380
1C0380
1C0380
1C0380
1C0380
1C0380
1C0380
1C0380
1C0380
1C0380
1C0380
1C0380
1C0380
1C0380
1C0380
1C0380
000380
000380
000380
000780
004F00
007F00
00FC00
ENDCHAR
STARTCHAR f_k
ENCODING -1
SWIDTH 928 0
DWIDTH 30 0
BBX 28 25 1 0
BITMAP
00800000
07F38000
0FF38000
1E038000
1C038000
1C038000
1C038000
1C038000
FFE380F0
FFE381E0
1C0383C0
1C038780
1C039E00
1C03BC00
1C03F800
1C03F800
1C03FC00
1C03DE00
1C038E00
1C038700
1C038780
1C0383C0
1C0381E0
1C0380F0
1C038070
ENDCHAR
STARTCHAR f_l
ENCODING -1
SWIDTH 630 0
DWIDTH 20 0
BBX 17 25 1 0
BITMAP
008000
07F380
0FF380
1E0380
1C0380
1C0380
1C0380
1C0380
FFE380
FFE380
1C0380
1C0380
1C0380
1C0380
1C0380
1C0380
1C0380
1C0380
1C0380
1C0380
1C0380
1C0380
1C0380
1C0380
1C0380
ENDCHAR
STARTCHAR I_J.loclNLD
ENCODING -1
SWIDTH 832 0
DWIDTH 27 0
BBX 21 24 3 0
BITMAP
E00038
E00038
E00038
E00038
E00038
E00038
E00038
E00038
E00038
E00038
E00038
E00038
E00038
E00038
E00038
E00038
E00038
E00038
E00078
E00070
E1C0F0
E3F3E0
E1FFC0
E07F80
ENDCHAR
STARTCHAR i_j.loclNLD
ENCODING -1
SWIDTH 527 0
DWIDTH 17 0
BBX 12 31 2 -7
BITMAP
6060
F0F0
F0F0
F070
0000
0000
0000
E070
E070
E070
E070
E070
E070
E070
E070
E070
E070
E070
E070
E070
E070
E070
E070
E070
0070
0070
0070
00E0
09E0
0FC0
1F80
ENDCHAR
STARTCHAR uni0414.ss01
ENCODING -1
SWIDTH 732 0
DWIDTH 23 0
BBX 21 29 1 -5
BITMAP
03FFE0
03FFE0
03FFE0
0380E0
0700E0
0700E0
0700E0
0700E0
0700E0
0700E0
0700E0
0E00E0
0E00E0
0E00E0
0E00E0
0E00E0
0E00E0
1C00E0
1C00E0
1C00E0
3800E0
FFFFF8
FFFFF8
FFFFF8
E00038
E00038
E00038
E00038
E00038
ENDCHAR
STARTCHAR uni0416.ss01
ENCODING -1
SWIDTH 877 0
DWIDTH 28 0
BBX 28 24 0 0
BITMAP
F00700F0
780701E0
3C0703C0
1E070380
0E070700
07070E00
07871E00
03C73C00
01E77800
00F7F000
0077E000
003FC000
007FE000
0077E000
00E77000
01E77800
03C73C00
07871E00
07070F00
0E070700
1E070380
3C0703C0
780701E0
F00700F0
ENDCHAR
STARTCHAR uni041B.ss01
ENCODING -1
SWIDTH 711 0
DWIDTH 23 0
BBX 20 24 0 0
BITMAP
00FFF0
00FFF0
00FFF0
01C070
01C070
01C070
01C070
01C070
01C070
01C070
01C070
01C070
038070
038070
038070
038070
038070
070070
070070
0F0070
0E0070
FE0070
7C0070
780070
ENDCHAR
STARTCHAR uni0424.ss01
ENCODING -1
SWIDTH 948 0
DWIDTH 30 0
BBX 28 29 1 -3
BITMAP
00070000
00070000
00070000
000F0000
01FFF800
07FFFE00
0FE77F00
1F070780
3C0703C0
780701E0
700700E0
700700F0
F0070070
E0070070
E0070070
F0070070
700700F0
700700E0
780701E0
3C0701C0
3E0707C0
1F871F80
07FFFF00
03FFFC00
003FE000
00070000
00070000
00070000
00070000
ENDCHAR
STARTCHAR uni042C.ss01
ENCODING -1
SWIDTH 639 0
DWIDTH 20 0
BBX 16 24 3 0
BITMAP
E000
E000
E000
E000
E000
E000
E000
E000
E000
FFF0
FFFC
FFFE
E01E
E00F
E007
E007
E007
E007
E007
E00F
E01E
FFFE
FFFC
FFF0
ENDCHAR
STARTCHAR uni042A.ss01
ENCODING -1
SWIDTH 744 0
DWIDTH 24 0
BBX 23 24 0 0
BITMAP
FF8000
FF8000
FF8000
038000
038000
038000
038000
038000
038000
03FFC0
03FFF0
03FFF8
03803C
03801C
03801E
03800E
03800E
03800E
03801E
03801C
03807C
03FFF8
03FFF0
03FFC0
ENDCHAR
STARTCHAR uni0431.ss01
ENCODING -1
SWIDTH 660 0
DWIDTH 21 0
BBX 18 26 2 0
BITMAP
000080
000F80
007F80
03FF00
0FF800
1F8000
3C0000
780000
700000
E1E000
E7FC00
FFFE00
DC0F00
F80780
F00380
E00380
E001C0
E001C0
E001C0
E001C0
700380
700380
380700
3E1F00
1FFE00
07F800
ENDCHAR
STARTCHAR uni0432.ss01
ENCODING -1
SWIDTH 574 0
DWIDTH 18 0
BBX 15 17 2 0
BITMAP
FFF0
FFF8
E03C
E01C
E01C
E01C
E078
FFF0
FFFC
E01C
E00E
E00E
E00E
E00E
E07C
FFFC
FFF0
ENDCHAR
STARTCHAR uni0433.ss01
ENCODING -1
SWIDTH 430 0
DWIDTH 14 0
BBX 12 17 2 0
BITMAP
FFF0
FFF0
E000
E000
E000
E000
E000
E000
E000
E000
E000
E000
E000
E000
E000
E000
E000
ENDCHAR
STARTCHAR uni0434.ss01
ENCODING -1
SWIDTH 630 0
DWIDTH 20 0
BBX 18 21 1 -4
BITMAP
07FF00
07FF00
060700
0E0700
0E0700
0E0700
0E0700
0E0700
0C0700
1C0700
1C0700
1C0700
180700
380700
FFFFC0
FFFFC0
FFFFC0
C001C0
C001C0
C001C0
C001C0
ENDCHAR
STARTCHAR uni0436.ss01
ENCODING -1
SWIDTH 707 0
DWIDTH 23 0
BBX 22 17 0 0
BITMAP
70381C
383838
1C3870
0E38E0
0739C0
07BB80
03BF00
01FE00
00FE00
01FF00
03BB80
073BC0
0E39E0
1C38E0
383870
783838
F0381C
ENDCHAR
STARTCHAR uni0437.ss01
ENCODING -1
SWIDTH 503 0
DWIDTH 16 0
BBX 14 18 1 0
BITMAP
0200
3FE0
FFF0
7078
4038
0038
0038
0070
1FE0
1FE0
01F0
0038
001C
001C
003C
F078
FFF0
3FE0
ENDCHAR
STARTCHAR uni0438.ss01
ENCODING -1
SWIDTH 636 0
DWIDTH 20 0
BBX 16 17 2 0
BITMAP
E003
E007
E00F
E01F
E03F
E077
E0E7
E0C7
E1C7
E387
E707
EE07
FC07
F807
F007
F007
E007
ENDCHAR
STARTCHAR uni0439.ss01
ENCODING -1
SWIDTH 636 0
DWIDTH 20 0
BBX 16 23 2 0
BITMAP
0008
181C
1F78
0FF0
03C0
0000
E003
E007
E00F
E01F
E03F
E077
E0E7
E0C7
E1C7
E387
E707
EE07
FC07
F807
F007
F007
E007
ENDCHAR
STARTCHAR uni043A.ss01
ENCODING -1
SWIDTH 538 0
DWIDTH 17 0
BBX 15 17 2 0
BITMAP
E03E
E078
E0F0
E1E0
E3C0
E780
EF00
FE00
FF00
F780
E3C0
E1E0
E0F0
E070
E078
E03C
E01E
ENDCHAR
STARTCHAR uni043B.ss01
ENCODING -1
SWIDTH 609 0
DWIDTH 19 0
BBX 16 17 1 0
BITMAP
03FF
03FF
0307
0707
0707
0707
0707
0707
0607
0E07
0E07
0E07
0C07
1C07
3C07
F807
F007
ENDCHAR
STARTCHAR uni043F.ss01
ENCODING -1
SWIDTH 595 0
DWIDTH 19 0
BBX 15 17 2 0
BITMAP
FFFE
FFFE
E00E
E00E
E00E
E00E
E00E
E00E
E00E
E00E
E00E
E00E
E00E
E00E
E00E
E00E
E00E
ENDCHAR
STARTCHAR uni0442.ss01
ENCODING -1
SWIDTH 465 0
DWIDTH 15 0
BBX 15 17 0 0
BITMAP
FFFE
FFFE
0380
0380
0380
0380
0380
0380
0380
0380
0380
0380
0380
0380
0380
0380
0380
ENDCHAR
STARTCHAR uni0444.ss01
ENCODING -1
SWIDTH 816 0
DWIDTH 26 0
BBX 24 27 1 -5
BITMAP
001800
001800
001800
001800
003C00
03FFC0
0FFFF0
1E1878
38181C
70180E
70180E
601807
E01807
E01807
E01807
601807
70180E
70180E
3C181C
1F18F8
0FFFF0
03FFC0
001800
001800
001800
001800
001800
ENDCHAR
STARTCHAR uni0446.ss01
ENCODING -1
SWIDTH 625 0
DWIDTH 20 0
BBX 17 23 2 -6
BITMAP
E00E00
E00E00
E00E00
E00E00
E00E00
E00E00
E00E00
E00E00
E00E00
E00E00
E00E00
E00E00
E00E00
E00E00
FFFF80
FFFF80
FFFF80
000380
000380
000380
000380
000380
000380
ENDCHAR
STARTCHAR uni0448.ss01
ENCODING -1
SWIDTH 891 0
DWIDTH 29 0
BBX 24 17 2 0
BITMAP
E01C07
E01C07
E01C07
E01C07
E01C07
E01C07
E01C07
E01C07
E01C07
E01C07
E01C07
E01C07
E01C07
E01C07
FFFFFF
FFFFFF
FFFFFF
ENDCHAR
STARTCHAR uni0449.ss01
ENCODING -1
SWIDTH 922 0
DWIDTH 30 0
BBX 27 23 2 -6
BITMAP
E01C0700
E01C0700
E01C0700
E01C0700
E01C0700
E01C0700
E01C0700
E01C0700
E01C0700
E01C0700
E01C0700
E01C0700
E01C0700
E01C0700
FFFFFFE0
FFFFFFE0
FFFFFFE0
000000E0
000000E0
000000E0
000000E0
000000E0
000000E0
ENDCHAR
STARTCHAR uni044C.ss01
ENCODING -1
SWIDTH 539 0
DWIDTH 17 0
BBX 14 17 2 0
BITMAP
E000
E000
E000
E000
E000
E000
FFE0
FFF8
E07C
E01C
E01C
E00C
E01C
E01C
E0F8
FFF8
FFE0
ENDCHAR
STARTCHAR uni044A.ss01
ENCODING -1
SWIDTH 600 0
DWIDTH 19 0
BBX 18 17 0 0
BITMAP
FE0000
FE0000
060000
060000
060000
060000
07FE00
07FF80
0607C0
0601C0
0601C0
0600C0
0601C0
0601C0
060F80
07FF80
07FE00
ENDCHAR
STARTCHAR uni044E.ss01
ENCODING -1
SWIDTH 839 0
DWIDTH 27 0
BBX 23 18 2 0
BITMAP
000200
E03FE0
E07FF0
E0F078
E1E03C
E3C01E
E3800E
E3800E
FF8006
FF0006
FF8006
E3800E
E3800E
E3C01E
E1E03C
E0F8F8
E07FF0
E03FE0
ENDCHAR
STARTCHAR zero.lf
ENCODING -1
SWIDTH 678 0
DWIDTH 22 0
BBX 18 24 2 0
BITMAP
03F000
0FFC00
1FFE00
3C0F00
780700
700380
F00380
E00380
E001C0
E001C0
E001C0
E001C0
E001C0
E001C0
E001C0
E001C0
E003C0
F00380
700380
780700
3C0F00
3F3E00
1FFC00
07F800
ENDCHAR
STARTCHAR one.lf
ENCODING -1
SWIDTH 381 0
DWIDTH 12 0
BBX 8 24 1 0
BITMAP
03
0F
1F
3F
7F
F7
E7
87
07
07
07
07
07
07
07
07
07
07
07
07
07
07
07
07
ENDCHAR
STARTCHAR two.lf
ENCODING -1
SWIDTH 556 0
DWIDTH 18 0
BBX 15 24 1 0
BITMAP
0FE0
3FF0
7FF8
F03C
601C
000E
000E
000E
000E
001C
001C
0038
0078
00F0
01E0
03C0
0780
0F00
1E00
3C00
7C00
7FFE
7FFE
7FFE
ENDCHAR
STARTCHAR three.lf
ENCODING -1
SWIDTH 552 0
DWIDTH 18 0
BBX 15 24 1 0
BITMAP
0FC0
3FF0
FFF8
703C
001C
001C
001C
001C
001C
0038
0FF0
0FE0
0FF0
0078
001C
001E
000E
000E
000E
001E
603C
F8FC
FFF8
3FE0
ENDCHAR
STARTCHAR four.lf
ENCODING -1
SWIDTH 591 0
DWIDTH 19 0
BBX 18 24 0 0
BITMAP
000600
000E00
000E00
001E00
003E00
007E00
00FE00
01EE00
01CE00
038E00
070E00
0F0E00
1E0E00
1C0E00
380E00
7FFFC0
FFFFC0
7FFFC0
000E00
000E00
000E00
000E00
000E00
000E00
ENDCHAR
STARTCHAR five.lf
ENCODING -1
SWIDTH 570 0
DWIDTH 18 0
BBX 16 24 1 0
BITMAP
1FFC
1FFC
3FFC
3800
3800
3800
3000
3000
3000
3FF0
7FF8
7E7C
301E
000E
0007
0007
0007
0007
0007
400E
601E
FCFC
7FF8
1FF0
ENDCHAR
STARTCHAR six.lf
ENCODING -1
SWIDTH 612 0
DWIDTH 20 0
BBX 16 24 2 0
BITMAP
03F8
0FFE
1FFE
3C06
3800
7000
7000
E000
E000
E7F0
EFFC
FE7E
F80E
F00F
F007
E007
E007
E007
7007
700F
781E
3F7C
1FF8
07F0
ENDCHAR
STARTCHAR seven.lf
ENCODING -1
SWIDTH 500 0
DWIDTH 16 0
BBX 14 24 1 0
BITMAP
FFFC
FFFC
FFFC
001C
0038
0038
0038
0070
0070
00E0
00E0
01C0
01C0
01C0
0380
0380
0700
0700
0E00
0E00
1E00
1C00
1C00
3800
ENDCHAR
STARTCHAR eight.lf
ENCODING -1
SWIDTH 623 0
DWIDTH 20 0
BBX 16 24 2 0
BITMAP
07E0
1FF8
3FFC
781E
700E
600E
6006
700E
700E
381C
1FF8
0FF0
3FFC
781E
F00E
E007
E007
C007
E007
E007
F00F
7C3E
3FFC
1FF0
ENDCHAR
STARTCHAR nine.lf
ENCODING -1
SWIDTH 610 0
DWIDTH 20 0
BBX 17 24 1 0
BITMAP
07E000
1FF800
3FFC00
381E00
700E00
700700
E00700
E00700
E00780
E00780
700780
780F80
3C3F80
1FFB80
0FF380
010300
000700
000700
000700
000E00
201E00
387C00
7FF800
1FE000
ENDCHAR
STARTCHAR zero.num
ENCODING -1
SWIDTH 370 0
DWIDTH 12 0
BBX 10 13 1 11
BITMAP
1E00
7F00
7380
E1C0
C0C0
C0C0
C0C0
C0C0
C0C0
E1C0
6380
7F80
3E00
ENDCHAR
STARTCHAR one.num
ENCODING -1
SWIDTH 263 0
DWIDTH 8 0
BBX 5 13 1 11
BITMAP
08
38
78
F8
D8
18
18
18
18
18
18
18
18
ENDCHAR
STARTCHAR two.num
ENCODING -1
SWIDTH 344 0
DWIDTH 11 0
BBX 9 13 1 11
BITMAP
3E00
FF00
4300
0300
0300
0300
0700
0E00
1C00
3800
7000
FF80
FF80
ENDCHAR
STARTCHAR three.num
ENCODING -1
SWIDTH 331 0
DWIDTH 11 0
BBX 8 13 1 11
BITMAP
7C
FE
47
03
03
3E
3C
07
03
03
83
FF
7C
ENDCHAR
STARTCHAR four.num
ENCODING -1
SWIDTH 365 0
DWIDTH 12 0
BBX 9 13 1 11
BITMAP
0300
0300
0700
0F00
1B00
3300
7300
6300
FF80
FF80
0300
0300
0300
ENDCHAR
STARTCHAR five.num
ENCODING -1
SWIDTH 348 0
DWIDTH 11 0
BBX 9 13 1 11
BITMAP
7F00
7F00
6000
6000
6000
7E00
7F00
0380
0180
0180
4380
FF00
7E00
ENDCHAR
STARTCHAR six.num
ENCODING -1
SWIDTH 347 0
DWIDTH 11 0
BBX 9 13 1 11
BITMAP
1F00
3F80
6000
E000
C000
DF00
FF80
E180
C180
C180
E180
7F00
3E00
ENDCHAR
STARTCHAR seven.num
ENCODING -1
SWIDTH 286 0
DWIDTH 9 0
BBX 9 13 0 11
BITMAP
FF80
FF80
0300
0300
0700
0600
0E00
0C00
1C00
1800
1800
3000
3000
ENDCHAR
STARTCHAR eight.num
ENCODING -1
SWIDTH 384 0
DWIDTH 12 0
BBX 10 13 1 11
BITMAP
1F00
7F80
6180
6180
6180
3F00
3F00
7180
E0C0
E0C0
E1C0
7F80
3F00
ENDCHAR
STARTCHAR nine.num
ENCODING -1
SWIDTH 377 0
DWIDTH 12 0
BBX 10 13 1 11
BITMAP
3E00
7F00
6180
C180
C1C0
E1C0
77C0
3EC0
0180
0180
4380
7F00
7E00
ENDCHAR
STARTCHAR one.numalt
ENCODING -1
SWIDTH 329 0
DWIDTH 11 0
BBX 6 13 1 11
BITMAP
0C
1C
3C
FC
4C
0C
0C
0C
0C
0C
0C
0C
0C
ENDCHAR
STARTCHAR zero.osf
ENCODING -1
SWIDTH 596 0
DWIDTH 19 0
BBX 15 19 2 0
BITMAP
07C0
1FF0
3FF8
783C
701C
E00E
E00E
E00E
E00E
E00E
E00E
E00E
E00E
E00E
F01E
701C
3C7C
3FF8
0FE0
ENDCHAR
STARTCHAR one.osf
ENCODING -1
SWIDTH 465 0
DWIDTH 15 0
BBX 14 19 0 0
BITMAP
01C0
03C0
0FC0
1FC0
7DC0
F9C0
61C0
41C0
01C0
01C0
01C0
01C0
01C0
01C0
01C0
01C0
01C0
7FFC
7FFC
ENDCHAR
STARTCHAR two.osf
ENCODING -1
SWIDTH 529 0
DWIDTH 17 0
BBX 14 19 1 0
BITMAP
0780
1FF0
7FF8
F83C
601C
001C
001C
001C
0038
0078
00F0
01E0
03C0
0F00
1E00
3C00
7800
7FFC
7FFC
ENDCHAR
STARTCHAR three.osf
ENCODING -1
SWIDTH 532 0
DWIDTH 17 0
BBX 15 23 1 -4
BITMAP
0F80
3FF0
FFF8
6038
401C
001C
001C
001C
0038
00F0
0FE0
0FF0
00F8
003C
001C
001C
001E
001C
001C
F07C
FFF8
7FE0
0200
ENDCHAR
STARTCHAR four.osf
ENCODING -1
SWIDTH 586 0
DWIDTH 19 0
BBX 16 22 1 -3
BITMAP
000C
001C
003C
003C
007C
00FC
01DC
03DC
079C
071C
0E1C
1C1C
381C
701C
F01C
FFFF
FFFF
001C
001C
001C
001C
001C
ENDCHAR
STARTCHAR five.osf
ENCODING -1
SWIDTH 551 0
DWIDTH 18 0
BBX 16 22 1 -4
BITMAP
3FFC
3FFC
3800
3000
3000
3000
3000
77C0
7FF8
7FFC
703C
000E
000E
000F
0007
000E
000E
401E
F03C
7FF8
3FF0
0380
ENDCHAR
STARTCHAR six.osf
ENCODING -1
SWIDTH 602 0
DWIDTH 19 0
BBX 17 23 1 0
BITMAP
01F800
07FE00
0FFF00
1E0200
3C0000
380000
700000
700000
704000
63F800
EFFE00
EE1F00
F80700
F00780
F00380
700380
700380
700380
380700
3C0F00
1F3E00
0FFC00
07F800
ENDCHAR
STARTCHAR seven.osf
ENCODING -1
SWIDTH 494 0
DWIDTH 16 0
BBX 15 21 0 -3
BITMAP
FFFE
FFFE
000E
001C
001C
0038
0038
0070
0070
00E0
00E0
01C0
01C0
03C0
0380
0780
0700
0700
0E00
0E00
1C00
ENDCHAR
STARTCHAR eight.osf
ENCODING -1
SWIDTH 617 0
DWIDTH 20 0
BBX 17 23 1 0
BITMAP
03F000
0FFC00
1F3E00
3C0F00
380700
700700
700700
380700
380F00
1E1E00
0FFC00
0FFC00
1F3E00
380700
700380
600380
E00380
E00380
700380
780780
3E1F00
1FFE00
0FF800
ENDCHAR
STARTCHAR nine.osf
ENCODING -1
SWIDTH 595 0
DWIDTH 19 0
BBX 17 23 1 -4
BITMAP
03E000
1FF800
3FFC00
781E00
700E00
E00700
E00700
E00700
E00700
E00700
700F80
781F80
3FFB00
1FF300
07C700
000700
000700
000E00
001E00
303C00
7FF800
3FF000
070000
ENDCHAR
STARTCHAR zero.slash
ENCODING -1
SWIDTH 678 0
DWIDTH 22 0
BBX 18 24 2 0
BITMAP
03F000
0FFC00
1FFE00
3C0F00
780700
700F80
E01F80
E01D80
E039C0
E079C0
E071C0
E0E1C0
E1C1C0
E3C1C0
E381C0
E701C0
EF01C0
EE0380
7C0380
7C0700
380F00
3E1E00
1FFC00
07F800
ENDCHAR
STARTCHAR zero.tf
ENCODING -1
SWIDTH 590 0
DWIDTH 19 0
BBX 17 24 1 0
BITMAP
07E000
0FF800
1FFC00
3C1E00
780E00
700700
700700
E00380
E00380
E00380
E00380
E00380
E00380
E00380
E00380
E00380
E00380
E00700
700700
700F00
380E00
3E7C00
1FFC00
07F000
ENDCHAR
STARTCHAR one.tf
ENCODING -1
SWIDTH 590 0
DWIDTH 19 0
BBX 14 24 3 0
BITMAP
0380
0780
0F80
3F80
7B80
F380
E380
4380
0380
0380
0380
0380
0380
0380
0380
0380
0380
0380
0380
0380
0380
FFFC
FFFC
FFFC
ENDCHAR
STARTCHAR two.tf
ENCODING -1
SWIDTH 590 0
DWIDTH 19 0
BBX 15 24 2 0
BITMAP
0FC0
3FF0
FFF8
F03C
401C
001C
001C
001C
001C
001C
0038
0078
00F0
00E0
01C0
03C0
0780
0F00
1E00
3C00
7800
FFFE
FFFE
FFFE
ENDCHAR
STARTCHAR three.tf
ENCODING -1
SWIDTH 590 0
DWIDTH 19 0
BBX 15 24 1 0
BITMAP
0FE0
3FF8
7FFC
703C
201E
000E
000E
000E
001C
003C
0FF8
0FE0
0FF8
007C
001E
000E
000E
000E
000E
000E
601E
FCFC
7FF8
1FF0
ENDCHAR
STARTCHAR four.tf
ENCODING -1
SWIDTH 590 0
DWIDTH 19 0
BBX 17 24 1 0
BITMAP
000400
000C00
001C00
003C00
007C00
00FC00
00FC00
01DC00
039C00
079C00
0F1C00
0E1C00
1C1C00
381C00
701C00
FFFF80
FFFF80
FFFF80
001C00
001C00
001C00
001C00
001C00
001C00
ENDCHAR
STARTCHAR five.tf
ENCODING -1
SWIDTH 590 0
DWIDTH 19 0
BBX 16 24 1 0
BITMAP
1FFE
1FFE
1FFE
1800
3800
3800
3800
3800
3800
37F0
3FFC
3E7E
301E
000F
0007
0007
0007
0007
0007
000F
701E
FC7E
3FFC
0FF0
ENDCHAR
STARTCHAR six.tf
ENCODING -1
SWIDTH 590 0
DWIDTH 19 0
BBX 17 24 1 0
BITMAP
01F800
07FE00
0FFF00
1E0200
3C0000
380000
780000
700000
700000
73F800
E7FC00
EF3E00
FC0F00
F80700
F00380
F00380
700380
700380
700380
380700
3C0F00
1F3E00
0FFC00
07F800
ENDCHAR
STARTCHAR seven.tf
ENCODING -1
SWIDTH 590 0
DWIDTH 19 0
BBX 16 24 2 0
BITMAP
FFFF
FFFF
FFFE
000E
001C
001C
0038
0038
0070
0070
00E0
00E0
01C0
01C0
0380
0380
0700
0700
0E00
0E00
1C00
1C00
3800
3800
ENDCHAR
STARTCHAR eight.tf
ENCODING -1
SWIDTH 590 0
DWIDTH 19 0
BBX 17 24 1 0
BITMAP
07F000
1FFC00
3F7E00
380E00
700F00
700700
700700
700700
300E00
381E00
1FFC00
07F000
1FFC00
381E00
700700
E00700
E00380
E00380
E00380
F00780
700F00
7C3E00
3FFC00
0FF800
ENDCHAR
STARTCHAR nine.tf
ENCODING -1
SWIDTH 590 0
DWIDTH 19 0
BBX 16 24 1 0
BITMAP
07E0
1FF8
3FFC
781E
700E
E00F
E007
E007
E007
E007
F00F
700F
7C3B
3FF3
1FE3
0107
0007
0007
000E
000E
201C
787C
7FF8
1FE0
ENDCHAR
STARTCHAR zero.dnom
ENCODING -1
SWIDTH 370 0
DWIDTH 12 0
BBX 10 13 1 0
BITMAP
1E00
7F00
7380
E1C0
C0C0
C0C0
C0C0
C0C0
C0C0
E1C0
6380
7F80
3E00
ENDCHAR
STARTCHAR one.dnom
ENCODING -1
SWIDTH 263 0
DWIDTH 8 0
BBX 5 13 1 0
BITMAP
08
38
78
F8
D8
18
18
18
18
18
18
18
18
ENDCHAR
STARTCHAR two.dnom
ENCODING -1
SWIDTH 344 0
DWIDTH 11 0
BBX 9 13 1 0
BITMAP
3C00
FF00
6300
0300
0300
0300
0700
0E00
1C00
3800
7000
FF80
FF80
ENDCHAR
STARTCHAR three.dnom
ENCODING -1
SWIDTH 331 0
DWIDTH 11 0
BBX 8 13 1 0
BITMAP
3C
FE
47
03
03
0E
3C
0F
03
03
83
FF
7E
ENDCHAR
STARTCHAR four.dnom
ENCODING -1
SWIDTH 365 0
DWIDTH 12 0
BBX 9 13 1 0
BITMAP
0300
0300
0700
0F00
1B00
3B00
7300
6300
FF80
FF80
0300
0300
0300
ENDCHAR
STARTCHAR five.dnom
ENCODING -1
SWIDTH 348 0
DWIDTH 11 0
BBX 9 13 1 0
BITMAP
7F00
7F00
6000
6000
6000
7E00
7F00
0380
0180
0180
4380
FF00
7E00
ENDCHAR
STARTCHAR six.dnom
ENCODING -1
SWIDTH 347 0
DWIDTH 11 0
BBX 9 13 1 0
BITMAP
1F00
3F80
7000
E000
C000
DE00
FF80
E180
C180
C180
E180
7F00
3E00
ENDCHAR
STARTCHAR seven.dnom
ENCODING -1
SWIDTH 286 0
DWIDTH 9 0
BBX 9 13 0 0
BITMAP
FF80
FF80
0300
0300
0700
0600
0E00
0C00
0C00
1800
1800
3000
3000
ENDCHAR
STARTCHAR eight.dnom
ENCODING -1
SWIDTH 384 0
DWIDTH 12 0
BBX 10 13 1 0
BITMAP
1E00
3F80
6180
6180
6180
3F00
3F00
7380
60C0
E0C0
E1C0
7F80
3F00
ENDCHAR
STARTCHAR nine.dnom
ENCODING -1
SWIDTH 377 0
DWIDTH 12 0
BBX 10 13 1 0
BITMAP
1E00
7F00
6380
C180
C180
E1C0
73C0
3EC0
0180
0180
0380
7F00
7E00
ENDCHAR
STARTCHAR two_fraction_seven
ENCODING -1
SWIDTH 867 0
DWIDTH 28 0
BBX 24 24 2 0
BITMAP
7C000E
FE000C
C70018
070038
070070
060060
0E00C0
1C01C0
380380
700700
E00600
FF0CFF
FF1CFF
003803
003006
006006
00E00C
01C00C
03801C
030018
060038
0E0030
1C0030
180060
ENDCHAR
STARTCHAR three_fraction_seven
ENCODING -1
SWIDTH 857 0
DWIDTH 27 0
BBX 25 24 1 0
BITMAP
3E000600
FF000E00
43001C00
03001800
03003000
3E007000
3E00E000
0701C000
03018000
03830000
03070000
FF0E7F80
7E1C7F80
00180380
00380300
00700700
00E00600
00C00600
01800C00
03800C00
07001800
0E001800
0C003000
1C003000
ENDCHAR
STARTCHAR four_fraction_seven
ENCODING -1
SWIDTH 871 0
DWIDTH 28 0
BBX 25 24 1 0
BITMAP
01000300
03000600
07000E00
0F001C00
1F003800
3B003000
33006000
6300E000
FFC1C000
FFC38000
03030000
03067F80
030E7F80
001C0180
00180300
00300300
00700700
00E00600
01C00E00
01800C00
03000C00
07001800
0E001800
0C003000
ENDCHAR
STARTCHAR five_fraction_seven
ENCODING -1
SWIDTH 848 0
DWIDTH 27 0
BBX 25 24 1 0
BITMAP
3F000600
3F000E00
20001C00
60001800
60003000
7F007000
7F80E000
0181C000
01818000
01830000
43870000
FF0EFF80
3E1CFF80
00180300
00380300
00700600
00E00600
00C00C00
01800C00
03801C00
07001800
0E003800
0C003000
1C007000
ENDCHAR
STARTCHAR six_fraction_seven
ENCODING -1
SWIDTH 855 0
DWIDTH 27 0
BBX 25 24 1 0
BITMAP
1F000600
3F800E00
60001C00
E0001800
C0003000
DF007000
FF80E000
E181C000
C1818000
C1830000
E1870000
7F0EFF80
3E0CFF80
00180300
00380300
00700700
00E00600
00C00E00
01800C00
03800C00
07001800
06001800
0C003000
1C003000
ENDCHAR
STARTCHAR two_fraction_nine
ENCODING -1
SWIDTH 862 0
DWIDTH 28 0
BBX 25 24 1 0
BITMAP
3E000700
FF000E00
63000C00
03801800
03803800
03007000
07006000
0E00C000
1C01C000
38038000
70070000
FF863E00
FF8C7F00
001CE380
0038C180
0030C180
0060C180
00E0E780
01C07F80
03800180
03000180
06000300
0E007F00
1C007E00
ENDCHAR
STARTCHAR four_fraction_nine
ENCODING -1
SWIDTH 898 0
DWIDTH 29 0
BBX 26 24 1 0
BITMAP
01000380
03000700
07000E00
0F000C00
1F001800
3B003800
33007000
63006000
FFC0C000
FFC1C000
03038000
03071E00
03063F80
000C7180
001C60C0
003860C0
003061C0
006073C0
00E03FC0
01C000C0
038000C0
03000180
06003F80
0E003E00
ENDCHAR
STARTCHAR five_fraction_nine
ENCODING -1
SWIDTH 844 0
DWIDTH 27 0
BBX 25 24 1 0
BITMAP
3F000600
7F000C00
60001C00
60003800
60007000
7E006000
7F00E000
0381C000
01838000
01830000
43860000
FF0E3C00
7E1CFE00
0038C300
0031C300
00618380
00E1C380
01C0E780
01807D80
03000180
07000300
0E000700
1C00FE00
1800FC00
ENDCHAR
STARTCHAR seven_fraction_nine
ENCODING -1
SWIDTH 797 0
DWIDTH 26 0
BBX 23 24 1 0
BITMAP
FF0038
FF0030
070060
0600E0
0E01C0
0C0180
0C0300
180700
180E00
301C00
301800
7030F0
6071FC
00E38C
01C306
018306
03830E
07039E
0E01FE
0C0006
180006
38000C
7003FC
E001F0
ENDCHAR
STARTCHAR eight_fraction_nine
ENCODING -1
SWIDTH 845 0
DWIDTH 27 0
BBX 25 24 1 0
BITMAP
1E000600
7F800C00
61801C00
61803800
61803000
3F006000
3F00E000
7181C000
E0C38000
C0C30000
E1C60000
7F8E3C00
3F1CFE00
0018C300
0031C300
00718380
00E0C380
01C0E780
01807D80
03000180
07000300
0E000700
1C00FE00
1800FC00
ENDCHAR
STARTCHAR backslash.case
ENCODING -1
SWIDTH 536 0
DWIDTH 17 0
BBX 15 24 1 0
BITMAP
C000
E000
7000
7000
3800
3800
1C00
0C00
0E00
0600
0700
0380
0380
01C0
01C0
00E0
0060
0070
0030
0038
0018
001C
000E
000E
ENDCHAR
STARTCHAR periodcentered.case
ENCODING -1
SWIDTH 254 0
DWIDTH 8 0
BBX 4 4 2 10
BITMAP
60
F0
F0
60
ENDCHAR
STARTCHAR colon.case
ENCODING -1
SWIDTH 265 0
DWIDTH 8 0
BBX 4 15 2 4
BITMAP
20
F0
F0
70
00
00
00
00
00
00
00
60
F0
F0
70
ENDCHAR
STARTCHAR exclamdown.case
ENCODING -1
SWIDTH 284 0
DWIDTH 9 0
BBX 4 24 3 0
BITMAP
E0
F0
F0
60
00
00
E0
E0
E0
E0
E0
E0
E0
E0
E0
E0
E0
E0
E0
E0
E0
E0
E0
E0
ENDCHAR
STARTCHAR questiondown.case
ENCODING -1
SWIDTH 505 0
DWIDTH 16 0
BBX 14 24 1 0
BITMAP
01C0
03C0
01C0
0180
0000
01C0
01C0
01C0
01C0
0380
0780
0F00
1E00
3C00
7800
7000
E000
E000
E000
7008
701C
7C7C
3FF8
0FE0
ENDCHAR
STARTCHAR semicolon.case
ENCODING -1
SWIDTH 285 0
DWIDTH 9 0
BBX 5 18 2 1
BITMAP
30
78
78
70
00
00
00
00
00
00
00
70
78
78
38
30
60
C0
ENDCHAR
STARTCHAR slash.case
ENCODING -1
SWIDTH 536 0
DWIDTH 17 0
BBX 15 24 1 0
BITMAP
0006
000E
000C
001C
0038
0038
0070
0070
00E0
00C0
01C0
0180
0380
0300
0700
0E00
0E00
1C00
1800
3800
3000
7000
6000
E000
ENDCHAR
STARTCHAR semicolon.case.ss03
ENCODING -1
SWIDTH 285 0
DWIDTH 9 0
BBX 6 24 1 -5
BITMAP
18
3C
3C
38
00
00
00
00
00
00
00
00
00
00
38
38
30
70
70
60
60
E0
C0
C0
ENDCHAR
STARTCHAR comma.ss03
ENCODING -1
SWIDTH 199 0
DWIDTH 6 0
BBX 5 10 0 -6
BITMAP
18
38
38
30
30
70
60
60
60
C0
ENDCHAR
STARTCHAR semicolon.ss03
ENCODING -1
SWIDTH 265 0
DWIDTH 8 0
BBX 6 21 1 -6
BITMAP
38
3C
38
18
00
00
00
00
00
00
00
38
38
30
70
70
60
60
E0
C0
C0
ENDCHAR
STARTCHAR braceleft.case
ENCODING -1
SWIDTH 372 0
DWIDTH 12 0
BBX 10 33 1 -5
BITMAP
03C0
0FC0
0E00
1C00
1C00
1C00
1C00
1C00
1C00
1C00
1C00
1C00
1C00
1C00
3800
F000
E000
F000
3800
1C00
1C00
1C00
1C00
1C00
1C00
1C00
1C00
1C00
1C00
1C00
0E00
0FC0
03C0
ENDCHAR
STARTCHAR braceright.case
ENCODING -1
SWIDTH 373 0
DWIDTH 12 0
BBX 10 33 1 -5
BITMAP
F000
F800
1C00
0C00
0E00
0E00
0E00
0E00
0E00
0E00
0C00
0C00
0C00
0E00
0600
03C0
01C0
07C0
0E00
0E00
0C00
0C00
0C00
0E00
0E00
0E00
0E00
0E00
0E00
0C00
1C00
F800
F000
ENDCHAR
STARTCHAR bracketleft.case
ENCODING -1
SWIDTH 373 0
DWIDTH 12 0
BBX 8 33 3 -5
BITMAP
FF
FF
E0
E0
E0
E0
E0
E0
E0
E0
E0
E0
E0
E0
E0
E0
E0
E0
E0
E0
E0
E0
E0
E0
E0
E0
E0
E0
E0
E0
E0
FF
FF
ENDCHAR
STARTCHAR bracketright.case
ENCODING -1
SWIDTH 373 0
DWIDTH 12 0
BBX 8 33 1 -5
BITMAP
FF
FF
07
07
07
07
07
07
07
07
07
07
07
07
07
07
07
07
07
07
07
07
07
07
07
07
07
07
07
07
07
FF
FF
ENDCHAR
STARTCHAR parenleft.case
ENCODING -1
SWIDTH 391 0
DWIDTH 13 0
BBX 11 33 1 -5
BITMAP
0040
00E0
03E0
0780
0F00
0E00
1E00
3C00
3800
3800
7000
7000
7000
7000
F000
E000
E000
E000
F000
7000
7000
7000
7000
3800
3800
1C00
1E00
0E00
0700
0780
03E0
00E0
0040
ENDCHAR
STARTCHAR parenright.case
ENCODING -1
SWIDTH 391 0
DWIDTH 13 0
BBX 10 33 1 -5
BITMAP
8000
E000
F000
7800
3C00
1E00
0E00
0700
0700
0380
0380
03C0
01C0
01C0
01C0
01C0
01C0
01C0
01C0
01C0
01C0
0380
0380
0380
0700
0700
0E00
1E00
3C00
7800
F000
E000
8000
ENDCHAR
STARTCHAR emdash.case
ENCODING -1
SWIDTH 1042 0
DWIDTH 33 0
BBX 29 3 2 11
BITMAP
FFFFFFF8
FFFFFFF8
FFFFFFF8
ENDCHAR
STARTCHAR endash.case
ENCODING -1
SWIDTH 723 0
DWIDTH 23 0
BBX 19 3 2 11
BITMAP
FFFFE0
FFFFE0
FFFFE0
ENDCHAR
STARTCHAR hyphen.case
ENCODING -1
SWIDTH 524 0
DWIDTH 17 0
BBX 12 3 2 11
BITMAP
FFF0
FFF0
FFF0
ENDCHAR
STARTCHAR guillemotleft.case
ENCODING -1
SWIDTH 518 0
DWIDTH 17 0
BBX 12 13 2 6
BITMAP
0E30
1C70
18E0
38C0
71C0
E380
E700
E380
7380
71C0
38E0
1C60
0C70
ENDCHAR
STARTCHAR guillemotright.case
ENCODING -1
SWIDTH 518 0
DWIDTH 17 0
BBX 13 13 2 6
BITMAP
E380
7380
71C0
38E0
1C60
0C70
0E38
0E38
1C70
18E0
38C0
71C0
E380
ENDCHAR
STARTCHAR guilsinglleft.case
ENCODING -1
SWIDTH 339 0
DWIDTH 11 0
BBX 7 13 2 6
BITMAP
0E
1C
18
38
70
E0
E0
E0
70
70
38
1C
0C
ENDCHAR
STARTCHAR guilsinglright.case
ENCODING -1
SWIDTH 339 0
DWIDTH 11 0
BBX 7 13 2 6
BITMAP
E0
70
70
38
1C
0C
0E
0E
1C
18
38
70
E0
ENDCHAR
STARTCHAR quotedblbase.ss03
ENCODING -1
SWIDTH 466 0
DWIDTH 15 0
BBX 13 10 1 -5
BITMAP
1838
3870
3870
3070
3060
70E0
60E0
60C0
60C0
C0C0
ENDCHAR
STARTCHAR quotedblleft.ss03
ENCODING -1
SWIDTH 442 0
DWIDTH 14 0
BBX 11 9 2 17
BITMAP
3060
3060
3060
70E0
60C0
60C0
E1C0
E1C0
C180
ENDCHAR
STARTCHAR quotedblright.ss03
ENCODING -1
SWIDTH 461 0
DWIDTH 15 0
BBX 12 10 2 17
BITMAP
3870
70E0
70E0
70E0
60C0
E0C0
E1C0
C180
C180
C180
ENDCHAR
STARTCHAR quoteleft.ss03
ENCODING -1
SWIDTH 234 0
DWIDTH 7 0
BBX 5 9 1 17
BITMAP
18
18
38
30
30
70
70
70
E0
ENDCHAR
STARTCHAR quoteright.ss03
ENCODING -1
SWIDTH 232 0
DWIDTH 7 0
BBX 5 10 2 17
BITMAP
38
30
70
70
60
60
60
C0
C0
C0
ENDCHAR
STARTCHAR quotesinglbase.ss03
ENCODING -1
SWIDTH 239 0
DWIDTH 8 0
BBX 5 10 1 -5
BITMAP
38
70
70
70
60
E0
E0
C0
C0
C0
ENDCHAR
STARTCHAR dollar.osf
ENCODING -1
SWIDTH 487 0
DWIDTH 16 0
BBX 14 26 1 -4
BITMAP
0380
0380
0380
0780
1FF0
3FF8
7038
7010
7000
7000
3C00
3F00
0FC0
03F0
00F8
0038
001C
401C
E038
7878
7FF0
1FE0
0300
0300
0300
0300
ENDCHAR
STARTCHAR Euro.osf
ENCODING -1
SWIDTH 563 0
DWIDTH 18 0
BBX 18 19 0 0
BITMAP
007C00
01FF80
03E7C0
070080
0E0000
1C0000
1C0000
7FFF00
FFFE00
380000
380000
7FFC00
FFFC00
1C0000
1C0000
0E0000
078080
03FF80
00FF80
ENDCHAR
STARTCHAR sterling.osf
ENCODING -1
SWIDTH 469 0
DWIDTH 15 0
BBX 14 19 1 0
BITMAP
07C0
1FF0
3EF8
7838
7010
7000
7000
7000
7000
FFF0
FFF0
1800
1800
1800
3800
3000
7000
FFFC
FFFC
ENDCHAR
STARTCHAR yen.osf
ENCODING -1
SWIDTH 468 0
DWIDTH 15 0
BBX 15 19 0 0
BITMAP
E00E
700E
701C
3818
3838
1C30
1C70
0EE0
06E0
07C0
7FFC
7FFC
0380
7FFC
7FFC
0380
0380
0380
0380
ENDCHAR
STARTCHAR at.case
ENCODING -1
SWIDTH 975 0
DWIDTH 31 0
BBX 29 29 1 -3
BITMAP
001FE000
00FFFC00
01F87E00
07C00F00
0F0003C0
0E0001C0
1C0000E0
38020070
383FD830
707FF830
70707838
60E03838
60C03818
61C01818
E1C01818
E1C01838
60C03838
60E03830
70707C70
707FFFE0
381F8FC0
38000000
1C000000
0E000000
07000180
03C007C0
01FC7F00
007FFC00
000FF000
ENDCHAR
STARTCHAR caron.alt
ENCODING -1
SWIDTH 299 0
DWIDTH 10 0
BBX 5 5 1 20
BITMAP
78
70
70
E0
E0
ENDCHAR
STARTCHAR acute.case
ENCODING -1
SWIDTH 310 0
DWIDTH 10 0
BBX 6 6 1 25
BITMAP
3C
38
70
70
60
E0
ENDCHAR
STARTCHAR breve.case
ENCODING -1
SWIDTH 441 0
DWIDTH 14 0
BBX 11 6 1 25
BITMAP
E060
E060
60E0
7FC0
3FC0
0E00
ENDCHAR
STARTCHAR caron.case
ENCODING -1
SWIDTH 477 0
DWIDTH 15 0
BBX 9 5 3 25
BITMAP
E380
7700
7E00
3E00
1C00
ENDCHAR
STARTCHAR cedilla.case
ENCODING -1
SWIDTH 310 0
DWIDTH 10 0
BBX 8 9 1 -8
BITMAP
18
18
30
3E
07
07
47
FE
7C
ENDCHAR
STARTCHAR circumflex.case
ENCODING -1
SWIDTH 478 0
DWIDTH 15 0
BBX 11 6 1 25
BITMAP
0600
0F00
1F80
3B80
71C0
E0E0
ENDCHAR
STARTCHAR dieresis.case
ENCODING -1
SWIDTH 392 0
DWIDTH 13 0
BBX 10 4 1 26
BITMAP
6180
F3C0
F3C0
6180
ENDCHAR
STARTCHAR dotaccent.case
ENCODING -1
SWIDTH 302 0
DWIDTH 10 0
BBX 4 4 1 26
BITMAP
70
F0
F0
70
ENDCHAR
STARTCHAR grave.case
ENCODING -1
SWIDTH 294 0
DWIDTH 9 0
BBX 6 6 1 25
BITMAP
F0
70
78
38
18
1C
ENDCHAR
STARTCHAR hungarumlaut.case
ENCODING -1
SWIDTH 502 0
DWIDTH 16 0
BBX 10 6 2 25
BITMAP
71C0
73C0
E380
E380
E700
C700
ENDCHAR
STARTCHAR macron.case
ENCODING -1
SWIDTH 474 0
DWIDTH 15 0
BBX 11 3 1 26
BITMAP
FFE0
FFE0
FFE0
ENDCHAR
STARTCHAR ogonek.case
ENCODING -1
SWIDTH 323 0
DWIDTH 10 0
BBX 7 8 1 -8
BITMAP
1C
30
60
E0
E0
F4
7C
3E
ENDCHAR
STARTCHAR ring.case
ENCODING -1
SWIDTH 320 0
DWIDTH 10 0
BBX 8 7 1 25
BITMAP
3C
7E
E6
C3
C6
7E
3C
ENDCHAR
STARTCHAR tilde.case
ENCODING -1
SWIDTH 536 0
DWIDTH 17 0
BBX 12 4 1 26
BITMAP
3C30
7FF0
E7E0
0080
ENDCHAR
STARTCHAR brevecombcy
ENCODING -1
SWIDTH 0 0
DWIDTH 0 0
BBX 12 5 -13 19
BITMAP
4020
E070
7FF0
3FC0
0F00
ENDCHAR
STARTCHAR NULL
ENCODING -1
SWIDTH 0 0
DWIDTH 0 0
BBX 1 1 0 0
BITMAP
00
ENDCHAR
STARTCHAR commaccent
ENCODING -1
SWIDTH 228 0
DWIDTH 7 0
BBX 4 7 2 -10
BITMAP
F0
F0
F0
30
60
C0
80
ENDCHAR
STARTCHAR commaccent.case
ENCODING -1
SWIDTH 163 0
DWIDTH 5 0
BBX 4 7 2 -10
BITMAP
F0
F0
F0
30
60
C0
80
ENDCHAR
ENDFONT
